<svg width="512" height="512" viewBox="0 0 512 512" fill="none" xmlns="http://www.w3.org/2000/svg">
<g clip-path="url(#clip0_490_47)">
<path d="M418.5 99.4999C370 92.8999 289.2 170 344.9 205.8C363.4 214.3 381.4 205.6 390.6 185.1C403.7 151.5 450.8 164.8 446.6 198.6C444.6 213.5 432.5 223.1 415.7 223.1C353.7 223.2 291.7 223.2 229.8 223.2C225.2 223.2 43.5 223.1 39.3 223.2C4.19998 223.5 0.199976 246.2 0.0999756 256C0.0999756 278.3 16 289.5 38.9 289.4C71.2 289.6 129.9 289.3 163 289.4C244.8 289.2 336.9 289.9 416.6 289.2C543 288.4 543.9 102.7 418.5 99.4999Z" fill="url(#paint0_linear_490_47)"/>
<path d="M265 321.6C255.1 322.5 245.2 322.7 235.2 322.7H86C37.4 320.6 37.8 389.8 86.1 387.9H289.6C309.4 387.9 322.4 399.1 322.6 416.3C323.3 432 311.1 445.2 295.5 445.9H293.9C261.1 446 269.4 401.9 235.5 402.4C212 402.7 196.1 425 204.6 448.7C216.8 485.9 253.8 511.9 294.7 511.9C430 501.6 419.8 308.3 265 321.6Z" fill="url(#paint1_linear_490_47)"/>
<path d="M194.7 0.399968C146.7 -6.40003 63.2999 74.6 124.3 107.4C141.3 112.2 153.4 112.4 167.2 86.6C178.2 56.5 219.8 61.9 223.7 91.8C226.3 130.6 182.9 124.3 154.3 124.4C124.2 124.4 86.6999 124.3 58.7999 124.5C13.1999 125.6 13.9999 184.8 57.6999 189C102.4 191 151.6 189.1 196.9 189.6C321 185.3 317.8 2.19997 194.7 0.399968Z" fill="url(#paint2_linear_490_47)"/>
</g>
<defs>
<linearGradient id="paint0_linear_490_47" x1="256.001" y1="-1.73009" x2="256.001" y2="505.69" gradientUnits="userSpaceOnUse">
<stop stop-color="#2078EE"/>
<stop offset="1" stop-color="#7CECFF"/>
</linearGradient>
<linearGradient id="paint1_linear_490_47" x1="219.458" y1="-1.72999" x2="219.458" y2="505.69" gradientUnits="userSpaceOnUse">
<stop stop-color="#2078EE"/>
<stop offset="1" stop-color="#7CECFF"/>
</linearGradient>
<linearGradient id="paint2_linear_490_47" x1="156.651" y1="-1.73003" x2="156.651" y2="505.69" gradientUnits="userSpaceOnUse">
<stop stop-color="#2078EE"/>
<stop offset="1" stop-color="#7CECFF"/>
</linearGradient>
<clipPath id="clip0_490_47">
<rect width="512" height="512" fill="white"/>
</clipPath>
</defs>
</svg>
