<svg width="512" height="512" viewBox="0 0 512 512" fill="none" xmlns="http://www.w3.org/2000/svg">
<mask id="mask0_490_33" style="mask-type:luminance" maskUnits="userSpaceOnUse" x="0" y="0" width="512" height="512">
<path d="M0 0.00149536H511.999V512H0V0.00149536Z" fill="white"/>
</mask>
<g mask="url(#mask0_490_33)">
<path d="M349.656 504.5H162.343C141.523 504.5 124.185 488.53 122.477 467.781L95.4997 140.01H416.499L389.521 467.781C387.813 488.53 370.475 504.5 349.656 504.5Z" fill="#57BE92"/>
<path d="M386.499 140.009L359.521 467.781C357.813 488.53 340.476 504.5 319.656 504.5H349.656C370.476 504.5 387.813 488.53 389.521 467.781L416.499 140.009H386.499Z" fill="#09A76D"/>
<path d="M377.806 28.6795C375.919 22.5474 372.116 17.1817 366.955 13.3701C361.795 9.55845 355.548 7.50163 349.132 7.50156H162.868C156.452 7.50163 150.205 9.55845 145.044 13.3701C139.883 17.1817 136.08 22.5474 134.194 28.6795L110.71 105.009H142.099L161.565 41.7375C161.942 40.5109 162.702 39.4377 163.735 38.6752C164.767 37.9128 166.016 37.5014 167.3 37.5015H344.7C345.983 37.5018 347.232 37.9133 348.265 38.6756C349.297 39.438 350.057 40.5111 350.435 41.7375L369.901 105.009H401.29L377.806 28.6795Z" fill="#57BE92"/>
<path d="M418.573 140.01H93.4257C91.304 140.01 89.2692 139.167 87.7689 137.667C86.2686 136.167 85.4257 134.132 85.4257 132.01V113.01C85.4257 110.888 86.2686 108.854 87.7689 107.353C89.2692 105.853 91.304 105.01 93.4257 105.01H418.573C420.694 105.01 422.729 105.853 424.23 107.353C425.73 108.854 426.573 110.888 426.573 113.01V132.01C426.573 134.132 425.73 136.167 424.23 137.667C422.729 139.167 420.694 140.01 418.573 140.01Z" fill="#09A76D"/>
<path d="M418.573 105.009H388.573C390.695 105.009 392.729 105.852 394.23 107.352C395.73 108.853 396.573 110.888 396.573 113.009V132.009C396.573 134.131 395.73 136.166 394.23 137.666C392.729 139.166 390.695 140.009 388.573 140.009H418.573C420.694 140.009 422.729 139.166 424.23 137.666C425.73 136.166 426.573 134.131 426.573 132.009V113.009C426.573 110.888 425.73 108.853 424.23 107.352C422.729 105.852 420.694 105.009 418.573 105.009Z" fill="#02905D"/>
<path d="M142.099 105.01L161.566 41.7374C161.943 40.511 162.703 39.4377 163.735 38.6753C164.767 37.9129 166.016 37.5015 167.299 37.5014H344.7C345.983 37.5016 347.232 37.9131 348.264 38.6755C349.296 39.4379 350.057 40.5111 350.434 41.7374L369.901 105.01" fill="#02905D"/>
<path d="M351.015 331.601L378.119 296.941C379.344 295.374 379.897 293.384 379.655 291.41C379.414 289.436 378.398 287.638 376.831 286.413C376.055 285.806 375.167 285.358 374.218 285.094C373.269 284.83 372.278 284.756 371.3 284.876C370.322 284.995 369.378 285.307 368.52 285.791C367.663 286.276 366.91 286.925 366.303 287.701L351.456 306.686C344 261.407 304.591 226.754 257.233 226.754C228.652 226.754 201.807 239.403 183.582 261.457C182.315 262.99 181.709 264.964 181.898 266.944C182.086 268.924 183.053 270.749 184.586 272.016C186.12 273.283 188.094 273.889 190.074 273.701C192.054 273.512 193.878 272.545 195.145 271.012C210.51 252.418 233.14 241.754 257.233 241.754C297.825 241.754 331.477 271.96 336.939 311.073L315.067 293.967C314.291 293.36 313.403 292.912 312.454 292.648C311.505 292.385 310.514 292.311 309.536 292.43C308.558 292.55 307.614 292.861 306.756 293.346C305.899 293.83 305.145 294.479 304.539 295.255C303.932 296.031 303.484 296.919 303.22 297.868C302.957 298.817 302.883 299.809 303.002 300.786C303.122 301.764 303.433 302.708 303.918 303.566C304.402 304.423 305.051 305.177 305.827 305.784L340.487 332.889C343.042 334.983 348.366 335.075 351.015 331.601ZM95.6167 132.509H93.4257C93.2931 132.509 93.1659 132.456 93.0722 132.363C92.9784 132.269 92.9257 132.142 92.9257 132.009V113.009C92.9257 112.734 93.1507 112.509 93.4257 112.509H233.687C235.676 112.509 237.584 111.719 238.991 110.313C240.397 108.906 241.187 106.998 241.187 105.009C241.187 103.02 240.397 101.112 238.991 99.7059C237.584 98.2994 235.676 97.5092 233.687 97.5092H152.253L168.408 45.0004H343.591L359.746 97.5092H263.687C261.698 97.5092 259.79 98.2994 258.384 99.7059C256.977 101.112 256.187 103.02 256.187 105.009C256.187 109.152 259.544 112.509 263.687 112.509H369.873L369.898 112.511L369.924 112.509H401.263L401.287 112.511L401.314 112.509H418.574C418.849 112.509 419.074 112.734 419.074 113.009V132.009C419.074 132.142 419.021 132.269 418.927 132.363C418.833 132.456 418.706 132.509 418.574 132.509H95.6167ZM141.362 30.8834C144.286 21.3835 152.927 15.0005 162.868 15.0005H349.132C359.073 15.0005 367.714 21.3835 370.638 30.8834L391.136 97.5092H375.44L357.603 39.5314C356.764 36.7662 355.055 34.3454 352.73 32.6284C350.406 30.9114 347.59 29.9899 344.7 30.0004H167.299C164.41 29.9896 161.594 30.9111 159.269 32.6281C156.945 34.3451 155.236 36.7661 154.398 39.5314L136.56 97.5092H120.864L141.362 30.8834ZM450.987 496.999H384.152C391.338 489.394 396.087 479.439 396.996 468.396L411.036 297.811C411.199 295.828 410.568 293.862 409.282 292.345C407.995 290.828 406.159 289.884 404.177 289.721C400.073 289.384 396.427 292.452 396.087 296.58L382.047 467.165C380.744 483.009 367.911 495.594 352.296 496.882L339.141 460.931C338.803 460.006 338.286 459.157 337.619 458.431C336.953 457.706 336.15 457.12 335.256 456.705C334.363 456.29 333.397 456.055 332.413 456.014C331.428 455.973 330.446 456.126 329.521 456.465C328.596 456.804 327.747 457.321 327.022 457.987C326.297 458.654 325.71 459.457 325.295 460.35C324.881 461.243 324.646 462.21 324.605 463.194C324.564 464.178 324.717 465.16 325.055 466.085L336.368 496.999H175.631L186.944 466.085C187.283 465.16 187.436 464.178 187.395 463.194C187.353 462.21 187.119 461.243 186.704 460.35C186.289 459.457 185.703 458.654 184.978 457.987C184.253 457.321 183.403 456.804 182.478 456.465C181.554 456.127 180.571 455.973 179.587 456.015C178.603 456.056 177.637 456.29 176.743 456.705C175.85 457.12 175.047 457.707 174.38 458.432C173.714 459.157 173.197 460.006 172.858 460.931L159.703 496.882C144.089 495.594 131.256 483.009 129.953 467.165L103.643 147.509H159.661L172.858 183.578C174.282 187.468 178.588 189.471 182.478 188.043C183.403 187.705 184.253 187.188 184.978 186.521C185.703 185.854 186.29 185.052 186.704 184.158C187.119 183.265 187.354 182.299 187.395 181.314C187.436 180.33 187.283 179.348 186.944 178.423L175.631 147.509H336.368L325.055 178.423C324.716 179.348 324.563 180.33 324.604 181.314C324.646 182.299 324.88 183.265 325.295 184.158C325.71 185.052 326.296 185.854 327.022 186.521C327.747 187.188 328.596 187.705 329.521 188.043C333.316 189.432 337.706 187.515 339.141 183.578L352.339 147.509H408.357L398.378 268.749C398.297 269.73 398.41 270.718 398.711 271.656C399.012 272.594 399.495 273.463 400.132 274.215C401.418 275.732 403.255 276.676 405.237 276.839C407.22 277.002 409.186 276.371 410.703 275.085C411.454 274.448 412.073 273.669 412.523 272.793C412.974 271.917 413.247 270.961 413.328 269.98L423.474 146.703C429.624 144.646 434.074 138.842 434.074 132.009V113.009C434.074 104.462 427.12 97.5092 418.574 97.5092H406.828L384.974 26.4735C380.103 10.6395 365.699 0.000518799 349.132 0.000518799H162.868C146.301 0.000518799 131.897 10.6395 127.026 26.4735L105.171 97.5092H93.4257C84.8787 97.5092 77.9258 104.462 77.9258 113.009V132.009C77.9258 138.842 82.3748 144.646 88.5257 146.703L115.003 468.396C115.912 479.439 120.662 489.394 127.848 496.999H61.0128C59.0237 496.999 57.116 497.789 55.7095 499.196C54.303 500.602 53.5128 502.51 53.5128 504.499C53.5128 508.642 56.8698 511.999 61.0128 511.999H450.987C452.976 511.999 454.883 511.209 456.29 509.802C457.696 508.396 458.487 506.488 458.487 504.499C458.487 502.51 457.696 500.602 456.29 499.196C454.883 497.789 452.976 496.999 450.987 496.999ZM257.233 417.753C296.508 417.753 331.32 394.197 345.92 357.741C346.625 355.902 346.577 353.859 345.789 352.054C345 350.25 343.533 348.827 341.704 348.095C339.876 347.363 337.832 347.379 336.016 348.14C334.199 348.902 332.755 350.347 331.995 352.164C319.687 382.896 290.341 402.753 257.233 402.753C207.207 402.753 169.641 357.565 177.851 308.849L195.644 331.601C196.249 332.381 197.003 333.035 197.861 333.524C198.719 334.013 199.666 334.327 200.646 334.45C201.626 334.572 202.62 334.499 203.572 334.236C204.524 333.972 205.415 333.524 206.193 332.915C206.971 332.307 207.622 331.551 208.107 330.69C208.592 329.83 208.902 328.882 209.02 327.901C209.137 326.92 209.06 325.926 208.793 324.975C208.525 324.025 208.072 323.136 207.46 322.361L180.517 287.907C177.423 285.119 175.459 283.12 169.828 286.413L135.168 313.517C133.633 314.753 132.646 316.543 132.421 318.501C132.196 320.459 132.75 322.427 133.964 323.979C135.178 325.532 136.954 326.544 138.909 326.797C140.863 327.05 142.839 326.524 144.409 325.333L162.377 311.282C155.698 367.239 200.316 417.753 257.233 417.753Z" fill="black"/>
</g>
</svg>
