<svg width="512" height="512" viewBox="0 0 512 512" fill="none" xmlns="http://www.w3.org/2000/svg">
<path d="M392.708 179.2H275.802L384.175 8.53296H247.642L119.642 264.533H220.335L119.642 503.467L392.708 179.2Z" fill="#FFDD09"/>
<path d="M281.775 8.53296H247.642L119.642 264.533H153.775L281.775 8.53296Z" fill="white"/>
<path d="M350.042 179.2L145.242 422.4L111.109 503.467L384.175 179.2H350.042Z" fill="#FD9808"/>
<path d="M119.642 512C117.935 512 116.229 512 115.375 511.147C111.962 508.587 110.255 504.32 111.962 500.907L207.535 273.067H119.642C117.082 273.067 113.669 271.36 111.962 268.8C110.255 266.24 110.255 262.827 111.962 260.267L239.962 4.267C241.669 1.707 244.229 0 247.642 0H384.175C387.588 0 390.148 1.707 391.855 4.267C393.562 6.827 393.562 10.24 391.855 12.8L292.015 170.667H392.708C396.121 170.667 398.681 172.374 400.388 175.787C402.095 179.2 401.241 182.614 399.535 185.174L126.468 509.44C124.762 511.147 122.202 512 119.642 512ZM133.295 256H220.335C222.895 256 225.455 257.707 227.162 259.413C228.869 261.973 228.869 264.533 228.015 267.093L149.508 454.826L374.788 187.733H275.801C272.388 187.733 269.828 186.026 268.121 183.466C266.414 180.906 266.414 177.493 268.121 174.933L368.815 17.067H252.762L133.295 256Z" fill="black"/>
</svg>
