<svg width="100" height="112" viewBox="0 0 100 112" fill="none" xmlns="http://www.w3.org/2000/svg">
<path d="M99.1502 32.2656V79.5612C99.1502 82.639 97.5093 85.4824 94.8425 87.0248L56.9096 108.926L53.8861 110.669C51.2193 112.208 47.9342 112.208 45.2675 110.669L41.1399 108.284L4.30763 87.0214C1.64424 85.4824 0 82.6356 0 79.5578V32.2656C0 29.1843 1.64424 26.3409 4.30763 24.7986L45.2675 1.15419C47.9308 -0.384731 51.2159 -0.384731 53.8861 1.15419L94.8425 24.7986C97.5093 26.3375 99.1502 29.1843 99.1502 32.2656Z" fill="#1877F2"/>
<path d="M56.9098 50.1176V61.5899H71.0999L68.8543 77.0436H56.9098V108.923L53.8863 110.666C51.2196 112.204 47.9345 112.204 45.2677 110.666L41.1401 108.281V77.0436H28.0508V61.5899H41.1401V47.5561C41.1401 38.8457 48.1995 31.7864 56.9064 31.7864V31.7966C56.9302 31.7966 56.9574 31.7864 56.9812 31.7864H71.0999V45.1509H61.8765C59.1316 45.1509 56.9098 47.376 56.9098 50.1176Z" fill="white"/>
</svg>
