<svg width="100" height="112" viewBox="0 0 100 112" fill="none" xmlns="http://www.w3.org/2000/svg">
<path d="M0 32.3174V79.4635C0 82.5889 1.66801 85.4765 4.37217 87.0358L45.2029 110.609C47.9071 112.172 51.2431 112.172 53.9472 110.609L94.778 87.0358C97.4821 85.4731 99.1502 82.5855 99.1502 79.4635V32.3174C99.1502 29.192 97.4821 26.3044 94.778 24.7451L53.9472 1.17203C51.2431 -0.390676 47.9071 -0.390676 45.2029 1.17203L4.37217 24.7451C1.66801 26.3078 0 29.1954 0 32.3174Z" fill="url(#paint0_linear_461_77)"/>
<path d="M64.3641 27.5439H34.7882C26.618 27.5439 19.9697 34.1922 19.9697 42.3591V69.4176C19.9697 77.5878 26.618 84.2327 34.7882 84.2327H64.3641C72.5343 84.2327 79.1792 77.5844 79.1792 69.4176V42.3591C79.1792 34.1888 72.5309 27.5439 64.3641 27.5439ZM25.198 42.3591C25.198 37.0696 29.4988 32.7688 34.7882 32.7688H64.3641C69.6535 32.7688 73.9543 37.0696 73.9543 42.3591V69.4176C73.9543 74.707 69.6535 79.0079 64.3641 79.0079H34.7882C29.4988 79.0079 25.198 74.707 25.198 69.4176V42.3591Z" fill="white"/>
<path d="M49.5753 69.6724C57.1748 69.6724 63.3577 63.4895 63.3577 55.89C63.3577 48.2905 57.1748 42.1077 49.5753 42.1077C41.9758 42.1077 35.793 48.2905 35.793 55.89C35.793 63.4895 41.9758 69.6724 49.5753 69.6724ZM49.5753 47.3359C54.294 47.3359 58.1294 51.1747 58.1294 55.89C58.1294 60.6053 54.2906 64.4441 49.5753 64.4441C44.86 64.4441 41.0212 60.6053 41.0212 55.89C41.0212 51.1747 44.86 47.3359 49.5753 47.3359Z" fill="white"/>
<path d="M64.6399 44.3325C66.6884 44.3325 68.353 42.6679 68.353 40.6194C68.353 38.5709 66.6884 36.9062 64.6399 36.9062C62.5914 36.9062 60.9268 38.5709 60.9268 40.6194C60.9268 42.6679 62.5914 44.3325 64.6399 44.3325Z" fill="white"/>
<defs>
<linearGradient id="paint0_linear_461_77" x1="11.1903" y1="94.2752" x2="87.9632" y2="17.5057" gradientUnits="userSpaceOnUse">
<stop stop-color="#FAAD4F"/>
<stop offset="0.35" stop-color="#DD2A7B"/>
<stop offset="0.62" stop-color="#9537B0"/>
<stop offset="1" stop-color="#515BD4"/>
</linearGradient>
</defs>
</svg>
