<svg width="512" height="512" viewBox="0 0 512 512" fill="none" xmlns="http://www.w3.org/2000/svg">
<g clip-path="url(#clip0_879_2)">
<path d="M114.432 345.147L105.837 307.986C104.368 301.633 96.1833 299.832 92.182 304.981L70.0124 333.516C66.0124 338.665 69.7807 346.15 76.2998 346.005L114.432 345.147ZM114.432 345.147L152.565 344.291C159.084 344.145 162.852 351.63 158.852 356.78L136.682 385.315C132.682 390.464 124.497 388.663 123.027 382.309L114.432 345.147ZM215.498 450.852L201.683 486.405C199.322 492.483 205.073 498.579 211.278 496.576L245.664 485.472C251.87 483.469 252.969 475.16 247.498 471.611L215.498 450.852ZM215.498 450.852L183.5 430.094C178.029 426.546 179.129 418.238 185.334 416.233L219.72 405.129C225.925 403.126 231.676 409.221 229.315 415.3L215.498 450.852ZM437.665 12.3342L325.753 124.246C250.846 100.937 212.389 10.8827 212.389 10.8827C215.908 8.02954 220.355 6.38858 225.157 6.38858L423.281 6.36426C428.677 6.36945 433.851 8.51667 437.665 12.3342Z" fill="#FF4848"/>
<path d="M325.753 124.247C289.055 210.947 171.353 278.647 171.353 278.647C169.064 276.36 167.354 273.56 166.365 270.479C165.377 267.398 165.139 264.126 165.671 260.934L205.068 23.3904C205.886 18.4623 208.493 14.0094 212.391 10.8848L325.753 124.247Z" fill="#5CE259"/>
<path d="M439.14 237.633C439.14 237.633 349.563 204.436 325.754 124.247L437.667 12.335C439.56 14.2214 441.062 16.4633 442.086 18.9319C443.11 21.4005 443.636 24.047 443.634 26.7196V224.866C443.644 229.511 442.057 234.018 439.14 237.633Z" fill="#5AB5FF"/>
<path d="M426.61 244.933L189.09 284.352C182.219 285.469 175.776 283.068 171.354 278.646L325.752 124.247L439.138 237.633C436.016 241.541 431.549 244.144 426.61 244.933Z" fill="#FFF255"/>
<path d="M443.626 79.6572V224.863C443.626 229.677 441.974 234.128 439.147 237.626C436.02 241.535 431.55 244.139 426.608 244.931L189.096 284.339C182.211 285.459 175.774 283.08 171.352 278.658C166.957 274.235 164.55 267.798 165.67 260.941L171.576 225.311C294.054 252.432 417.345 162.924 443.626 79.6572Z" fill="black" fill-opacity="0.0627451"/>
<path d="M442.167 7.8336C437.119 2.78144 430.412 0 423.282 0L225.159 0.02432C219.046 0.02432 213.096 2.11712 208.416 5.91104C203.302 9.9968 199.883 15.8336 198.788 22.3488L159.387 259.91C158.374 266.169 159.605 272.584 162.861 278.024C146.22 294.584 130.24 311.857 117.32 329.373L112.041 306.55C110.804 301.194 106.699 297.133 101.329 295.951C95.9556 294.771 90.5297 296.732 87.1556 301.074L64.9873 329.608C61.6132 333.948 61.0525 339.695 63.5242 344.605C64.691 346.944 66.4879 348.911 68.7124 350.283C70.9369 351.655 73.5006 352.379 76.1143 352.372L102.705 351.776C84.7633 383.768 80.2269 415.904 103.412 445.376C125.047 472.879 162.275 479.121 204.072 462.682L195.749 484.099C193.759 489.222 194.865 494.889 198.638 498.889C201.338 501.751 204.966 503.328 208.853 503.328C210.341 503.326 211.82 503.092 213.236 502.633L247.621 491.53C252.854 489.841 256.552 485.405 257.273 479.955C257.995 474.502 255.577 469.258 250.964 466.268L229.329 452.234C270.48 437.212 305.485 437.83 327.057 454.412C342.183 466.036 349.243 484.794 345.941 504.585C345.8 505.41 345.824 506.254 346.011 507.069C346.198 507.885 346.546 508.655 347.033 509.335C347.521 510.022 348.14 510.605 348.856 511.05C349.571 511.495 350.367 511.793 351.199 511.927C351.545 511.977 351.889 512.001 352.209 512.001C353.716 512.002 355.175 511.468 356.326 510.495C357.477 509.522 358.246 508.173 358.496 506.687V506.68C362.605 482.196 353.755 458.879 334.824 444.306C319.721 432.71 286.528 418.039 226.704 439.598L235.25 417.605C237.241 412.481 236.135 406.815 232.363 402.815C228.585 398.815 222.99 397.381 217.763 399.071L183.378 410.176C178.148 411.866 174.45 416.301 173.728 421.748C173.006 427.199 175.423 432.445 180.036 435.438L202.086 449.741C183.543 457.311 139.322 470.456 113.422 437.486C96.9105 416.506 95.9837 392.375 111.834 362.152L116.827 383.743C118.065 389.1 122.17 393.162 127.538 394.342C128.555 394.565 129.594 394.68 130.624 394.68C134.976 394.68 139.017 392.69 141.713 389.22L163.881 360.684C167.255 356.344 167.815 350.596 165.342 345.686C164.175 343.347 162.378 341.381 160.154 340.009C157.93 338.637 155.366 337.914 152.753 337.921L126.737 338.504C138.028 322.938 153.028 305.888 171.851 287.062C176.009 289.632 180.8 290.993 185.689 290.995H185.696C187.17 290.995 188.661 290.872 190.135 290.634L427.634 251.218C434.155 250.157 440.002 246.753 444.091 241.641C447.904 236.931 450.004 230.973 450.004 224.867V26.7187C450.001 19.5904 447.218 12.8819 442.167 7.8336ZM244.034 476.951C244.516 477.266 244.724 477.714 244.647 478.284C244.571 478.857 244.255 479.237 243.707 479.414L209.326 490.515C208.768 490.692 208.291 490.568 207.897 490.148C207.502 489.732 207.408 489.249 207.618 488.71L218.599 460.452L244.034 476.951ZM186.966 424.755C186.482 424.44 186.274 423.99 186.35 423.419C186.426 422.851 186.742 422.469 187.291 422.292L221.673 411.186C221.84 411.133 221.997 411.107 222.144 411.107C222.609 411.107 222.942 411.386 223.099 411.553C223.495 411.973 223.588 412.456 223.38 412.992L212.398 441.252L186.966 424.755ZM76.1642 339.639C75.4308 339.602 75.0749 339.231 74.8996 338.884C74.6397 338.369 74.6884 337.876 75.0417 337.422L97.21 308.888C97.4941 308.524 97.8269 308.352 98.257 308.352C98.3965 308.352 98.5143 308.371 98.5924 308.389C99.1543 308.513 99.5063 308.859 99.6356 309.42L106.468 338.956L76.1642 339.639ZM152.658 350.655C153.303 350.662 153.708 350.895 153.966 351.412C154.226 351.927 154.178 352.419 153.824 352.873L131.655 381.407C131.209 381.978 130.667 381.992 130.274 381.906C129.712 381.782 129.361 381.436 129.23 380.874L122.398 351.338L152.658 350.655ZM225.16 12.7578L423.282 12.7334C424.758 12.7334 426.199 12.9613 427.582 13.4144L325.755 115.242L223.385 12.8768C223.98 12.7974 224.573 12.7578 225.16 12.7578ZM171.953 261.975L211.348 24.4467C211.591 22.9827 212.066 21.5671 212.757 20.2534L316.75 124.247L172.445 268.553C171.757 266.429 171.589 264.171 171.954 261.969L171.953 261.975ZM425.574 238.651L188.069 278.068C185.851 278.439 183.577 278.265 181.44 277.564L325.754 133.252L429.765 237.265C428.451 237.947 427.036 238.415 425.574 238.651ZM437.266 224.865C437.266 225.458 437.228 226.049 437.15 226.642L334.756 124.248L436.585 22.4205C437.037 23.8054 437.266 25.2442 437.266 26.72V224.865Z" fill="#0F0F0F"/>
</g>
<defs>
<clipPath id="clip0_879_2">
<rect width="512" height="512" fill="white"/>
</clipPath>
</defs>
</svg>
