<svg width="100" height="112" viewBox="0 0 100 112" fill="none" xmlns="http://www.w3.org/2000/svg">
<path d="M0 32.0227V79.9739C0 82.8513 1.53552 85.5079 4.02565 86.9449L45.5528 110.919C48.0429 112.356 51.1106 112.356 53.6041 110.919L95.1313 86.9449C97.6214 85.5079 99.1569 82.8479 99.1569 79.9739V32.0227C99.1569 29.1453 97.6214 26.4887 95.1313 25.0517L53.6041 1.07776C51.114 -0.359252 48.0463 -0.359252 45.5528 1.07776L4.02565 25.0517C1.53552 26.4887 0 29.1487 0 32.0227Z" fill="#007EBB"/>
<path d="M24.2808 36.8233C22.905 35.546 22.2188 33.9663 22.2188 32.0876C22.2188 30.209 22.905 28.558 24.2808 27.2772C25.6533 25.9999 27.4266 25.3612 29.5974 25.3612C31.7682 25.3612 33.4668 25.9999 34.8393 27.2772C36.2118 28.5546 36.9014 30.158 36.9014 32.0876C36.9014 34.0172 36.2151 35.546 34.8393 36.8233C33.4668 38.1007 31.7173 38.7393 29.5974 38.7393C27.4776 38.7393 25.6567 38.1007 24.2808 36.8233ZM35.743 44.1476V83.2866H23.3772V44.1476H35.743Z" fill="white"/>
<path d="M76.9131 48.01C79.6071 50.935 80.9558 54.9539 80.9558 60.0666V82.5933H69.2083V61.6565C69.2083 59.078 68.5391 57.0737 67.204 55.6435C65.8689 54.2167 64.0718 53.4999 61.8126 53.4999C59.5535 53.4999 57.7598 54.2133 56.4213 55.6435C55.0862 57.0703 54.417 59.0746 54.417 61.6565V82.5933H42.6016V44.0353H54.417V49.1481C55.6128 47.4427 57.2264 46.0974 59.2546 45.1054C61.2827 44.1169 63.5622 43.6208 66.0965 43.6208C70.6113 43.6208 74.2157 45.0851 76.9097 48.01H76.9131Z" fill="white"/>
</svg>
