<svg width="100" height="112" viewBox="0 0 100 112" fill="none" xmlns="http://www.w3.org/2000/svg">
<path d="M0 32.3174V79.4635C0 82.5889 1.66797 85.4765 4.37213 87.0358L45.2029 110.609C47.9105 112.172 51.2431 112.172 53.9473 110.609L94.778 87.0358C97.4855 85.4731 99.1502 82.5855 99.1502 79.4635V32.3174C99.1502 29.192 97.4821 26.3044 94.778 24.7451L53.9473 1.17203C51.2397 -0.390676 47.9071 -0.390676 45.2029 1.17203L4.37213 24.7451C1.66458 26.3078 0 29.1954 0 32.3174Z" fill="#FF0000"/>
<path fill-rule="evenodd" clip-rule="evenodd" d="M46.947 67.9025C46.8893 68.0961 46.8349 68.2626 46.7942 68.4256C44.3006 78.1959 44.0255 80.3633 41.4606 84.902C40.2376 87.0592 38.8617 89.1009 37.3398 91.0577C37.1665 91.2785 37.0069 91.5638 36.6637 91.4959C36.2867 91.4144 36.2595 91.078 36.2188 90.7757C35.8077 87.8066 35.5835 84.8306 35.682 81.8343C35.8111 77.931 36.2934 76.5891 41.3281 55.428C41.4028 55.1053 41.3179 54.8369 41.2126 54.5447C40.01 51.2936 39.7722 47.9984 40.8219 44.6556C43.1014 37.4365 51.2818 36.8828 52.7154 42.8415C53.5953 46.524 51.2648 51.3446 49.4745 58.4719C47.9933 64.3524 54.9134 68.5309 60.8279 64.2403C66.2838 60.2826 68.4002 50.7977 67.9959 44.0746C67.2044 30.6727 52.5049 27.7749 43.1796 32.0894C32.4887 37.0323 30.0596 50.2813 34.887 56.3385C35.4985 57.1096 36.6502 57.5784 36.4498 58.3598C36.1372 59.5726 35.8655 60.7956 35.5291 62.0016C35.2811 62.8984 33.8475 63.2245 32.9404 62.8577C31.1603 62.1375 29.6792 61.0028 28.4766 59.5114C24.3762 54.436 23.2041 44.3974 28.6226 35.8976C34.6255 26.4806 45.7954 22.6724 55.9938 23.8274C68.1727 25.2135 75.8707 33.5332 77.3111 42.9739C77.9667 47.2748 77.4945 57.8774 71.4577 65.375C64.5139 73.9868 53.2556 74.5575 48.0613 69.2715C47.6604 68.8673 47.3411 68.3917 46.9504 67.9059L46.947 67.9025Z" fill="white"/>
</svg>
