<svg width="512" height="512" viewBox="0 0 512 512" fill="none" xmlns="http://www.w3.org/2000/svg">
<g clip-path="url(#clip0_490_2)">
<path d="M501.333 40.5333V93.8667C501.333 93.8667 380.267 85.3333 368 125.867C352 179.2 474.667 232.533 378.667 349.867C282.667 467.2 128 480.533 53.3333 480C39.0818 479.995 24.8403 479.248 10.6667 477.76V285.76C10.6667 285.76 261.333 284.587 229.333 167.253C202.667 69.76 320 8.53331 501.333 40.5333Z" fill="#6FABE6"/>
<path d="M501.333 55.8933V93.8667C501.333 93.8667 380.267 85.3333 368 125.867C352 179.2 474.667 232.533 378.667 349.867C282.667 467.2 128 480.533 53.3333 480C52.8263 436.886 66.2435 394.759 91.591 359.88C116.938 325.001 152.863 299.231 194.027 286.4C244.587 270.08 286.187 240.853 272 188.693C247.467 98.9867 344.64 40 501.333 55.8933Z" fill="#82BCF4"/>
<path d="M128 436.693C107.84 436.693 105.067 426.027 92.48 426.027C79.8933 426.027 76.9067 436.693 56.8533 436.693C36.8 436.693 34.0267 426.027 21.3333 426.027C18.5043 426.027 15.7912 424.903 13.7909 422.902C11.7905 420.902 10.6667 418.189 10.6667 415.36C10.6667 412.531 11.7905 409.818 13.7909 407.818C15.7912 405.817 18.5043 404.693 21.3333 404.693C41.8133 404.693 43.9467 415.36 56.8533 415.36C69.76 415.36 72.32 404.693 92.48 404.693C112.64 404.693 115.307 415.36 128 415.36C130.829 415.36 133.542 416.484 135.542 418.484C137.543 420.485 138.667 423.198 138.667 426.027C138.667 428.856 137.543 431.569 135.542 433.569C133.542 435.57 130.829 436.693 128 436.693ZM198.293 341.333C178.133 341.333 175.36 330.667 162.667 330.667C149.973 330.667 147.2 341.333 127.147 341.333C107.093 341.333 104.32 330.667 91.6267 330.667C88.7977 330.667 86.0846 329.543 84.0842 327.543C82.0838 325.542 80.96 322.829 80.96 320C80.96 317.171 82.0838 314.458 84.0842 312.458C86.0846 310.457 88.7977 309.333 91.6267 309.333C111.68 309.333 114.347 320 127.147 320C139.947 320 142.507 309.333 162.667 309.333C182.827 309.333 185.6 320 198.293 320C201.122 320 203.835 321.124 205.836 323.124C207.836 325.125 208.96 327.838 208.96 330.667C208.96 333.496 207.836 336.209 205.836 338.209C203.835 340.21 201.122 341.333 198.293 341.333ZM274.667 394.667C254.507 394.667 251.733 384 239.04 384C226.347 384 224 394.667 203.52 394.667C183.04 394.667 180.693 384 168 384C165.171 384 162.458 382.876 160.458 380.876C158.457 378.875 157.333 376.162 157.333 373.333C157.333 370.504 158.457 367.791 160.458 365.791C162.458 363.79 165.171 362.667 168 362.667C188.373 362.667 190.507 373.333 203.52 373.333C216.533 373.333 218.987 362.667 239.04 362.667C259.093 362.667 261.973 373.333 274.667 373.333C277.496 373.333 280.209 374.457 282.209 376.458C284.21 378.458 285.333 381.171 285.333 384C285.333 386.829 284.21 389.542 282.209 391.543C280.209 393.543 277.496 394.667 274.667 394.667ZM332.16 302.933C312 302.933 309.227 292.267 296.533 292.267C283.84 292.267 281.067 302.933 261.013 302.933C240.96 302.933 238.187 292.267 225.493 292.267C222.664 292.267 219.951 291.143 217.951 289.142C215.95 287.142 214.827 284.429 214.827 281.6C214.827 278.771 215.95 276.058 217.951 274.058C219.951 272.057 222.664 270.933 225.493 270.933C245.547 270.933 248.213 281.6 261.013 281.6C273.813 281.6 276.373 270.933 296.533 270.933C316.693 270.933 319.467 281.6 332.16 281.6C334.989 281.6 337.702 282.724 339.702 284.724C341.703 286.725 342.827 289.438 342.827 292.267C342.827 295.096 341.703 297.809 339.702 299.809C337.702 301.81 334.989 302.933 332.16 302.933Z" fill="#5B9AD8"/>
<path d="M10.6667 296.533C74.6667 296.533 189.44 281.067 228.267 230.08C267.093 179.093 208.32 142.933 256 90.7733C296.107 46.8267 389.44 32 499.52 50.9867C502.349 51.4676 505.253 50.805 507.594 49.1447C509.934 47.4844 511.519 44.9623 512 42.1333C512.481 39.3043 511.818 36.4002 510.158 34.0597C508.498 31.7193 505.976 30.1342 503.147 29.6533C384 8.95999 285.867 26.3467 240.213 76.3733C228.709 88.7563 220.677 103.957 216.932 120.44C213.186 136.922 213.858 154.101 218.88 170.24C241.387 251.84 94.8267 274.56 10.6667 275.2C7.83769 275.2 5.12458 276.324 3.12419 278.324C1.12381 280.325 0 283.038 0 285.867C0 288.696 1.12381 291.409 3.12419 293.409C5.12458 295.41 7.83769 296.533 10.6667 296.533Z" fill="black"/>
<path d="M502.08 83.2C480.747 81.6 371.84 76.0533 357.76 122.773C339.093 185.173 462.4 230.613 370.453 343.04C246.72 494.293 14.2933 467.52 11.9467 467.2C9.11769 466.861 6.26972 467.659 4.02929 469.419C1.78885 471.179 0.339473 473.758 -3.67831e-06 476.587C-0.339481 479.416 0.458752 482.264 2.21909 484.504C3.97944 486.744 6.55769 488.194 9.38666 488.533C25.938 490.177 42.5687 490.89 59.2 490.667C137.707 490.667 290.56 474.133 386.88 356.373C486.4 234.773 365.547 172.373 378.24 128.64C384.96 106.133 453.76 100.8 500.587 104.213C503.114 103.992 505.48 102.876 507.26 101.067C509.039 99.2585 510.115 96.8745 510.295 94.3435C510.475 91.8125 509.747 89.3003 508.241 87.2579C506.735 85.2155 504.551 83.7768 502.08 83.2Z" fill="black"/>
<path d="M115.733 411.52C108.801 406.999 100.703 404.592 92.4267 404.592C84.1502 404.592 76.0525 406.999 69.12 411.52C65.5277 414.045 61.244 415.399 56.8533 415.399C52.4626 415.399 48.1789 414.045 44.5867 411.52C30.8267 403.307 10.6667 400.213 10.6667 415.36C10.6667 418.189 11.7905 420.902 13.7909 422.902C15.7912 424.903 18.5043 426.027 21.3333 426.027C25.742 425.859 30.0737 427.215 33.6 429.867C40.5211 434.366 48.5986 436.76 56.8533 436.76C65.1081 436.76 73.1856 434.366 80.1067 429.867C83.7094 427.318 88.0137 425.95 92.4267 425.95C96.8396 425.95 101.144 427.318 104.747 429.867C118.293 437.973 138.667 441.28 138.667 426.027C138.667 423.198 137.543 420.485 135.542 418.484C133.542 416.484 130.829 415.36 128 415.36C123.598 415.477 119.283 414.126 115.733 411.52ZM162.667 330.667C175.253 330.667 178.133 341.333 198.293 341.333C201.122 341.333 203.835 340.21 205.836 338.209C207.836 336.209 208.96 333.496 208.96 330.667C208.96 327.838 207.836 325.125 205.836 323.124C203.835 321.124 201.122 320 198.293 320C185.707 320 182.827 309.333 162.667 309.333C142.507 309.333 139.84 320 127.147 320C114.453 320 111.68 309.333 91.6267 309.333C88.7977 309.333 86.0846 310.457 84.0842 312.458C82.0838 314.458 80.96 317.171 80.96 320C80.96 322.829 82.0838 325.542 84.0842 327.542C86.0846 329.543 88.7977 330.667 91.6267 330.667C104.107 330.667 107.093 341.333 127.147 341.333C147.2 341.333 149.973 330.667 162.667 330.667ZM168 384C180.48 384 183.467 394.667 203.52 394.667C223.573 394.667 226.24 384 239.04 384C251.84 384 254.507 394.667 274.667 394.667C277.496 394.667 280.209 393.543 282.209 391.542C284.21 389.542 285.333 386.829 285.333 384C285.333 381.171 284.21 378.458 282.209 376.458C280.209 374.457 277.496 373.333 274.667 373.333C262.08 373.333 259.2 362.667 239.04 362.667C218.88 362.667 216.32 373.333 203.52 373.333C190.72 373.333 187.947 362.667 168 362.667C165.171 362.667 162.458 363.79 160.458 365.791C158.457 367.791 157.333 370.504 157.333 373.333C157.333 376.162 158.457 378.875 160.458 380.876C162.458 382.876 165.171 384 168 384ZM309.333 296C322.88 304.213 343.253 307.52 343.253 292.267C343.253 289.438 342.13 286.725 340.129 284.724C338.129 282.724 335.416 281.6 332.587 281.6C328.032 281.625 323.601 280.122 320 277.333C313.079 272.834 305.001 270.44 296.747 270.44C288.492 270.44 280.414 272.834 273.493 277.333C269.901 279.858 265.617 281.213 261.227 281.213C256.836 281.213 252.552 279.858 248.96 277.333C235.307 269.12 215.04 265.92 215.04 281.173C215.04 284.002 216.164 286.715 218.164 288.716C220.165 290.716 222.878 291.84 225.707 291.84C230.095 291.701 234.407 293.013 237.973 295.573C244.894 300.072 252.972 302.467 261.227 302.467C269.481 302.467 277.559 300.072 284.48 295.573C288.148 293.038 292.517 291.716 296.975 291.793C301.433 291.87 305.755 293.341 309.333 296Z" fill="black"/>
</g>
<defs>
<clipPath id="clip0_490_2">
<rect width="512" height="512" fill="white"/>
</clipPath>
</defs>
</svg>
