<svg width="50" height="50" viewBox="0 0 50 50" fill="none" xmlns="http://www.w3.org/2000/svg">
<g clip-path="url(#clip0_3255_3071)">
<rect width="50" height="50" rx="6" fill="#4E4E4E"/>
<path d="M50 0H0V50H50V0Z" fill="black"/>
<path d="M16.3873 40.1848H9L15.0246 29.5267H22.3402L16.3873 40.1848Z" fill="white"/>
<path d="M27.8627 19.3423H20.9057C22.0294 17.3686 24.5348 13.0106 25.5676 11.3685C26.6004 9.72633 28.3408 9.10527 29.082 9H34.1025C36.0533 9 37.5929 11.2632 38.1189 12.3948L44 40.1848H38.4775L34.1742 20.2108C34.0786 19.3686 33.7008 17.258 32.9549 15.5528C32.209 13.8475 30.8272 14.7369 30.2295 15.3949L27.8627 19.3423Z" fill="white"/>
<path d="M21.1487 14.8374L24.5794 9H15.9312C12.6148 9 10.8327 10.8406 10.3562 11.7609L9.71296 13.1809L9.28405 14.9163C9.21258 16.0996 9.09822 19.0025 9.21258 21.1481C9.35553 23.8302 9.99879 24.3824 10.9994 25.4868C11.7999 26.3703 14.0013 26.9593 15.0019 27.1433C17.9085 27.1959 24.122 27.2853 25.723 27.2222C27.3241 27.1591 28.2008 28.2477 28.439 28.7999C28.4867 29.3258 28.5534 30.772 28.439 32.3497C28.3247 33.9273 27.1049 34.2692 26.5093 34.2429H22.0779L18.7186 40.0803C20.6484 40.1592 25.2084 40.2696 28.0102 40.0803C30.812 39.891 32.5607 38.1082 33.0848 37.2405L33.7281 36.0572L34.014 35.0317C34.0378 33.4277 34.0712 29.6045 34.014 27.1433C33.9568 24.6821 31.7507 23.0151 30.6547 22.4892L29.2967 21.937L27.5099 21.6214C24.6033 21.5951 18.4613 21.5583 17.1462 21.6214C15.8311 21.6845 15.1687 20.7537 15.0019 20.2804C15.0258 19.5705 15.0591 17.9139 15.0019 16.9673C14.9448 16.0207 15.8358 15.153 16.2885 14.8374H21.1487Z" fill="white"/>
</g>
<defs>
<clipPath id="clip0_3255_3071">
<rect width="50" height="50" rx="6" fill="white"/>
</clipPath>
</defs>
</svg>
