<svg xmlns="http://www.w3.org/2000/svg" xmlns:xlink="http://www.w3.org/1999/xlink" width="672" zoomAndPan="magnify" viewBox="0 0 504 359.999987" height="480" preserveAspectRatio="xMidYMid meet" version="1.0"><defs><g/><clipPath id="fb086fe297"><path d="M 20 0.398438 L 454 0.398438 L 454 165 L 20 165 Z M 20 0.398438 " clip-rule="nonzero"/></clipPath><clipPath id="093d3e605e"><rect x="0" width="434" y="0" height="165"/></clipPath><clipPath id="60cb468ef2"><path d="M 0.558594 113 L 494 113 L 494 265.121094 L 0.558594 265.121094 Z M 0.558594 113 " clip-rule="nonzero"/></clipPath><clipPath id="bb15a019e0"><rect x="0" width="494" y="0" height="153"/></clipPath><clipPath id="0c41e38ebf"><rect x="0" width="494" y="0" height="266"/></clipPath></defs><rect x="-50.4" width="604.8" fill="#ffffff" y="-35.999999" height="431.999984" fill-opacity="1"/><rect x="-50.4" width="604.8" fill="#ffffff" y="-35.999999" height="431.999984" fill-opacity="1"/><g transform="matrix(1, 0, 0, 1, 10, 38)"><g clip-path="url(#0c41e38ebf)"><g clip-path="url(#fb086fe297)"><g transform="matrix(1, 0, 0, 1, 20, 0)"><g clip-path="url(#093d3e605e)"><g fill="#a9f285" fill-opacity="1"><g transform="translate(31.84219, 141.662943)"><g><path d="M 60.0625 -91.8125 C 60.289062 -90.894531 60.3125 -89.972656 60.125 -89.046875 C 59.945312 -88.128906 59.628906 -87.257812 59.171875 -86.4375 C 58.710938 -85.625 58.101562 -84.910156 57.34375 -84.296875 C 56.59375 -83.691406 55.785156 -83.28125 54.921875 -83.0625 C 52.679688 -82.5 50.378906 -82.179688 48.015625 -82.109375 C 45.648438 -82.046875 43.316406 -81.726562 41.015625 -81.15625 C 38.441406 -80.507812 35.816406 -79.65625 33.140625 -78.59375 C 30.460938 -77.539062 27.867188 -76.296875 25.359375 -74.859375 C 22.847656 -73.429688 20.460938 -71.835938 18.203125 -70.078125 C 15.953125 -68.328125 13.957031 -66.4375 12.21875 -64.40625 C 11.257812 -63.238281 10.445312 -62.082031 9.78125 -60.9375 C 9.125 -59.789062 8.992188 -58.429688 9.390625 -56.859375 C 9.523438 -56.328125 9.675781 -55.925781 9.84375 -55.65625 C 10.019531 -55.382812 10.378906 -55.140625 10.921875 -54.921875 C 12.078125 -54.515625 13.519531 -54.351562 15.25 -54.4375 C 16.976562 -54.519531 18.84375 -54.753906 20.84375 -55.140625 C 22.84375 -55.535156 24.941406 -56.023438 27.140625 -56.609375 C 29.347656 -57.203125 31.46875 -57.820312 33.5 -58.46875 C 35.539062 -59.125 37.441406 -59.726562 39.203125 -60.28125 C 40.960938 -60.832031 42.429688 -61.253906 43.609375 -61.546875 C 45.328125 -61.972656 47.015625 -62.289062 48.671875 -62.5 C 50.335938 -62.707031 52.035156 -62.847656 53.765625 -62.921875 C 58.109375 -63.171875 61.570312 -62.53125 64.15625 -61 C 66.75 -59.476562 68.597656 -56.519531 69.703125 -52.125 C 71.160156 -46.320312 71.195312 -41.21875 69.8125 -36.8125 C 68.425781 -32.40625 66.160156 -28.507812 63.015625 -25.125 C 59.878906 -21.75 56.117188 -18.8125 51.734375 -16.3125 C 47.347656 -13.820312 42.894531 -11.550781 38.375 -9.5 C 36.664062 -8.726562 34.925781 -8.03125 33.15625 -7.40625 C 31.382812 -6.789062 29.609375 -6.257812 27.828125 -5.8125 C 25.523438 -5.226562 22.914062 -4.832031 20 -4.625 C 17.082031 -4.425781 14.242188 -4.59375 11.484375 -5.125 C 8.722656 -5.65625 6.257812 -6.664062 4.09375 -8.15625 C 1.9375 -9.644531 0.5 -11.835938 -0.21875 -14.734375 C -1.175781 -18.554688 0.285156 -20.957031 4.171875 -21.9375 C 5.554688 -22.28125 6.988281 -22.285156 8.46875 -21.953125 C 9.957031 -21.628906 11.492188 -21.226562 13.078125 -20.75 C 14.660156 -20.28125 16.289062 -19.847656 17.96875 -19.453125 C 19.644531 -19.066406 21.394531 -19.003906 23.21875 -19.265625 C 24.363281 -19.410156 25.503906 -19.585938 26.640625 -19.796875 C 27.785156 -20.015625 28.921875 -20.265625 30.046875 -20.546875 C 31.953125 -21.015625 33.742188 -21.65625 35.421875 -22.46875 C 37.109375 -23.28125 38.78125 -24.171875 40.4375 -25.140625 C 42.15625 -26.128906 44.085938 -27.363281 46.234375 -28.84375 C 48.378906 -30.332031 50.332031 -31.945312 52.09375 -33.6875 C 53.863281 -35.425781 55.273438 -37.210938 56.328125 -39.046875 C 57.378906 -40.878906 57.691406 -42.65625 57.265625 -44.375 C 57.003906 -45.425781 56.460938 -46.25 55.640625 -46.84375 C 54.828125 -47.445312 53.90625 -47.847656 52.875 -48.046875 C 51.84375 -48.253906 50.789062 -48.328125 49.71875 -48.265625 C 48.644531 -48.210938 47.710938 -48.085938 46.921875 -47.890625 C 42.046875 -46.660156 37.253906 -45.175781 32.546875 -43.4375 C 27.835938 -41.707031 23.007812 -40.222656 18.0625 -38.984375 C 16.21875 -38.515625 14.445312 -38.101562 12.75 -37.75 C 11.0625 -37.40625 9.390625 -37.25 7.734375 -37.28125 C 6.078125 -37.3125 4.472656 -37.625 2.921875 -38.21875 C 1.367188 -38.820312 -0.132812 -39.8125 -1.59375 -41.1875 C -2.144531 -41.6875 -2.617188 -42.320312 -3.015625 -43.09375 C -3.421875 -43.863281 -3.753906 -44.707031 -4.015625 -45.625 C -4.285156 -46.539062 -4.535156 -47.457031 -4.765625 -48.375 C -5.003906 -49.300781 -5.210938 -50.125 -5.390625 -50.84375 C -5.898438 -52.894531 -5.847656 -55.082031 -5.234375 -57.40625 C -4.628906 -59.726562 -3.648438 -62.035156 -2.296875 -64.328125 C -0.941406 -66.628906 0.671875 -68.90625 2.546875 -71.15625 C 4.429688 -73.414062 6.390625 -75.535156 8.421875 -77.515625 C 10.453125 -79.492188 12.453125 -81.285156 14.421875 -82.890625 C 16.398438 -84.503906 18.128906 -85.847656 19.609375 -86.921875 C 21.378906 -88.203125 23.148438 -89.296875 24.921875 -90.203125 C 26.691406 -91.109375 28.46875 -91.90625 30.25 -92.59375 C 32.039062 -93.28125 33.898438 -93.898438 35.828125 -94.453125 C 37.765625 -95.015625 39.785156 -95.5625 41.890625 -96.09375 C 43.140625 -96.40625 44.722656 -96.644531 46.640625 -96.8125 C 48.566406 -96.976562 50.46875 -96.941406 52.34375 -96.703125 C 54.21875 -96.472656 55.878906 -95.976562 57.328125 -95.21875 C 58.773438 -94.46875 59.6875 -93.332031 60.0625 -91.8125 Z M 60.0625 -91.8125 "/></g></g></g><g fill="#a9f285" fill-opacity="1"><g transform="translate(112.702814, 121.342664)"><g><path d="M 71.390625 -87.625 C 71.765625 -85 71.757812 -82.253906 71.375 -79.390625 C 70.988281 -76.523438 70.707031 -73.773438 70.53125 -71.140625 C 70.320312 -68.242188 70.09375 -65.382812 69.84375 -62.5625 C 69.59375 -59.75 69.289062 -56.914062 68.9375 -54.0625 C 68.375 -49.71875 67.773438 -45.40625 67.140625 -41.125 C 66.503906 -36.851562 66.019531 -32.539062 65.6875 -28.1875 C 65.664062 -27.84375 65.671875 -27.550781 65.703125 -27.3125 C 65.742188 -27.070312 65.785156 -26.785156 65.828125 -26.453125 C 65.984375 -25.378906 66.171875 -24.304688 66.390625 -23.234375 C 66.609375 -22.171875 66.789062 -21.101562 66.9375 -20.03125 C 67.320312 -17.34375 67.023438 -14.9375 66.046875 -12.8125 C 65.066406 -10.6875 63.066406 -9.410156 60.046875 -8.984375 C 59.109375 -8.847656 58.234375 -8.976562 57.421875 -9.375 C 56.609375 -9.769531 55.875 -10.347656 55.21875 -11.109375 C 54.5625 -11.878906 54.007812 -12.765625 53.5625 -13.765625 C 53.113281 -14.773438 52.8125 -15.816406 52.65625 -16.890625 C 52.457031 -18.304688 52.40625 -19.773438 52.5 -21.296875 C 52.59375 -22.816406 52.75 -24.378906 52.96875 -25.984375 C 53.1875 -27.597656 53.421875 -29.222656 53.671875 -30.859375 C 53.929688 -32.503906 54.113281 -34.160156 54.21875 -35.828125 C 53.4375 -35.992188 52.6875 -36.039062 51.96875 -35.96875 C 51.257812 -35.90625 50.535156 -35.820312 49.796875 -35.71875 C 47.847656 -35.4375 45.941406 -35.082031 44.078125 -34.65625 C 42.222656 -34.226562 40.332031 -33.804688 38.40625 -33.390625 C 36.46875 -32.984375 34.457031 -32.613281 32.375 -32.28125 C 30.300781 -31.957031 28.234375 -31.5625 26.171875 -31.09375 C 24.109375 -30.632812 22.097656 -30.0625 20.140625 -29.375 C 18.179688 -28.6875 16.351562 -27.816406 14.65625 -26.765625 C 13.707031 -23.742188 13.035156 -20.679688 12.640625 -17.578125 C 12.253906 -14.472656 11.941406 -11.359375 11.703125 -8.234375 C 11.453125 -5.179688 10.671875 -3.03125 9.359375 -1.78125 C 8.054688 -0.53125 5.929688 0.296875 2.984375 0.703125 C 1.703125 0.890625 0.5625 0.457031 -0.4375 -0.59375 C -1.445312 -1.644531 -2.050781 -2.878906 -2.25 -4.296875 C -2.363281 -5.109375 -2.34375 -5.972656 -2.1875 -6.890625 C -2.039062 -7.804688 -1.84375 -8.726562 -1.59375 -9.65625 C -1.351562 -10.582031 -1.113281 -11.503906 -0.875 -12.421875 C -0.632812 -13.347656 -0.4375 -14.234375 -0.28125 -15.078125 C 1.78125 -25.796875 3.425781 -36.640625 4.65625 -47.609375 C 5.894531 -58.585938 6.492188 -69.5625 6.453125 -80.53125 C 6.460938 -81.96875 6.9375 -82.972656 7.875 -83.546875 C 8.820312 -84.128906 9.9375 -84.515625 11.21875 -84.703125 C 14.375 -85.140625 16.773438 -84.640625 18.421875 -83.203125 C 20.066406 -81.765625 21.101562 -79.523438 21.53125 -76.484375 C 21.664062 -75.472656 21.648438 -74.582031 21.484375 -73.8125 C 20.847656 -71.039062 20.34375 -68.53125 19.96875 -66.28125 C 19.601562 -64.039062 19.265625 -61.851562 18.953125 -59.71875 C 18.640625 -57.582031 18.332031 -55.378906 18.03125 -53.109375 C 17.726562 -50.835938 17.367188 -48.296875 16.953125 -45.484375 C 17.492188 -45.492188 18.035156 -45.535156 18.578125 -45.609375 C 19.117188 -45.679688 19.65625 -45.757812 20.1875 -45.84375 C 23.019531 -46.238281 25.945312 -46.753906 28.96875 -47.390625 C 32 -48.023438 35.050781 -48.742188 38.125 -49.546875 C 41.195312 -50.359375 44.207031 -51.265625 47.15625 -52.265625 C 50.101562 -53.265625 52.867188 -54.351562 55.453125 -55.53125 C 56.117188 -58.101562 56.59375 -60.691406 56.875 -63.296875 C 57.15625 -65.910156 57.320312 -68.507812 57.375 -71.09375 C 57.425781 -73.675781 57.40625 -76.265625 57.3125 -78.859375 C 57.21875 -81.460938 57.148438 -84.09375 57.109375 -86.75 C 57.117188 -87.707031 57.238281 -88.6875 57.46875 -89.6875 C 57.707031 -90.6875 58.078125 -91.613281 58.578125 -92.46875 C 59.078125 -93.320312 59.710938 -94.039062 60.484375 -94.625 C 61.253906 -95.21875 62.175781 -95.59375 63.25 -95.75 C 64.320312 -95.894531 65.320312 -95.738281 66.25 -95.28125 C 67.175781 -94.832031 68.003906 -94.210938 68.734375 -93.421875 C 69.460938 -92.640625 70.050781 -91.726562 70.5 -90.6875 C 70.945312 -89.65625 71.242188 -88.632812 71.390625 -87.625 Z M 71.390625 -87.625 "/></g></g></g><g fill="#a9f285" fill-opacity="1"><g transform="translate(191.859032, 110.273)"><g><path d="M 71.46875 -79.421875 C 71.550781 -77.523438 71.097656 -75.738281 70.109375 -74.0625 C 69.128906 -72.382812 67.582031 -71.5 65.46875 -71.40625 C 63.300781 -71.3125 61.195312 -71.390625 59.15625 -71.640625 C 57.113281 -71.898438 55.003906 -71.914062 52.828125 -71.6875 C 50.734375 -71.457031 48.410156 -71.289062 45.859375 -71.1875 C 43.316406 -71.082031 40.757812 -70.921875 38.1875 -70.703125 C 35.613281 -70.492188 33.113281 -70.148438 30.6875 -69.671875 C 28.257812 -69.203125 26.144531 -68.519531 24.34375 -67.625 C 24.144531 -65.84375 23.859375 -64.210938 23.484375 -62.734375 C 23.109375 -61.265625 22.742188 -59.84375 22.390625 -58.46875 C 22.046875 -57.09375 21.75 -55.664062 21.5 -54.1875 C 21.257812 -52.71875 21.179688 -51.0625 21.265625 -49.21875 L 21.296875 -48.203125 C 26.921875 -48.441406 32.398438 -48.984375 37.734375 -49.828125 C 43.066406 -50.671875 48.46875 -51.6875 53.9375 -52.875 C 54.34375 -52.945312 54.765625 -53.023438 55.203125 -53.109375 C 55.640625 -53.203125 56.097656 -53.257812 56.578125 -53.28125 C 58.609375 -53.363281 60.257812 -52.753906 61.53125 -51.453125 C 62.8125 -50.148438 63.492188 -48.515625 63.578125 -46.546875 C 63.640625 -44.921875 63.40625 -43.625 62.875 -42.65625 C 62.34375 -41.6875 61.609375 -40.925781 60.671875 -40.375 C 59.742188 -39.820312 58.660156 -39.414062 57.421875 -39.15625 C 56.179688 -38.90625 54.851562 -38.679688 53.4375 -38.484375 C 47.414062 -37.609375 41.453125 -36.671875 35.546875 -35.671875 C 29.640625 -34.671875 23.847656 -32.992188 18.171875 -30.640625 C 17.660156 -29.804688 17.210938 -28.734375 16.828125 -27.421875 C 16.441406 -26.117188 16.09375 -24.78125 15.78125 -23.40625 C 15.46875 -22.039062 15.21875 -20.6875 15.03125 -19.34375 C 14.851562 -18.007812 14.753906 -16.832031 14.734375 -15.8125 C 19.078125 -15.863281 23.304688 -16.25 27.421875 -16.96875 C 31.535156 -17.6875 35.722656 -18.410156 39.984375 -19.140625 C 42.734375 -19.597656 45.613281 -20.109375 48.625 -20.671875 C 51.632812 -21.242188 54.53125 -21.585938 57.3125 -21.703125 C 59.269531 -21.785156 60.972656 -21.144531 62.421875 -19.78125 C 63.867188 -18.414062 64.632812 -16.75 64.71875 -14.78125 C 64.789062 -13.019531 64.300781 -11.691406 63.25 -10.796875 C 62.207031 -9.910156 60.921875 -9.296875 59.390625 -8.953125 C 55.535156 -8.253906 51.734375 -7.648438 47.984375 -7.140625 C 44.234375 -6.640625 40.4375 -6.035156 36.59375 -5.328125 C 34.90625 -5.054688 32.800781 -4.554688 30.28125 -3.828125 C 27.757812 -3.109375 25.222656 -2.367188 22.671875 -1.609375 C 20.117188 -0.859375 17.75 -0.203125 15.5625 0.359375 C 13.375 0.929688 11.738281 1.238281 10.65625 1.28125 C 9.238281 1.34375 7.867188 1.078125 6.546875 0.484375 C 5.222656 -0.0976562 4.046875 -0.894531 3.015625 -1.90625 C 1.992188 -2.914062 1.148438 -4.085938 0.484375 -5.421875 C -0.179688 -6.753906 -0.546875 -8.09375 -0.609375 -9.4375 C -0.640625 -10.320312 -0.421875 -11.578125 0.046875 -13.203125 C 0.523438 -14.828125 1.066406 -16.566406 1.671875 -18.421875 C 2.273438 -20.285156 2.875 -22.113281 3.46875 -23.90625 C 4.070312 -25.695312 4.519531 -27.207031 4.8125 -28.4375 C 5.539062 -31.945312 6.148438 -35.457031 6.640625 -38.96875 C 7.140625 -42.488281 7.617188 -46.023438 8.078125 -49.578125 C 8.546875 -53.140625 9.078125 -56.664062 9.671875 -60.15625 C 10.265625 -63.644531 11 -67.144531 11.875 -70.65625 C 11.4375 -71.320312 11.113281 -72.054688 10.90625 -72.859375 C 10.707031 -73.660156 10.585938 -74.472656 10.546875 -75.296875 C 10.484375 -76.984375 10.734375 -78.363281 11.296875 -79.4375 C 11.867188 -80.519531 12.648438 -81.390625 13.640625 -82.046875 C 14.628906 -82.703125 15.78125 -83.175781 17.09375 -83.46875 C 18.40625 -83.769531 19.773438 -83.945312 21.203125 -84 C 23.160156 -84.082031 25.128906 -84.066406 27.109375 -83.953125 C 29.097656 -83.835938 31.078125 -83.820312 33.046875 -83.90625 C 37.378906 -84.082031 41.671875 -84.53125 45.921875 -85.25 C 50.171875 -85.976562 54.429688 -86.4375 58.703125 -86.625 C 59.859375 -86.664062 61.171875 -86.597656 62.640625 -86.421875 C 64.109375 -86.242188 65.484375 -85.894531 66.765625 -85.375 C 68.054688 -84.863281 69.144531 -84.113281 70.03125 -83.125 C 70.925781 -82.144531 71.40625 -80.910156 71.46875 -79.421875 Z M 71.46875 -79.421875 "/></g></g></g><g fill="#a9f285" fill-opacity="1"><g transform="translate(262.719819, 107.130609)"><g><path d="M 78.4375 -72.53125 C 78.34375 -70.632812 77.726562 -68.898438 76.59375 -67.328125 C 75.46875 -65.753906 73.851562 -65.019531 71.75 -65.125 C 69.582031 -65.226562 67.488281 -65.5 65.46875 -65.9375 C 63.445312 -66.375 61.347656 -66.578125 59.171875 -66.546875 C 57.066406 -66.515625 54.738281 -66.5625 52.1875 -66.6875 C 49.644531 -66.8125 47.082031 -66.890625 44.5 -66.921875 C 41.914062 -66.953125 39.394531 -66.835938 36.9375 -66.578125 C 34.476562 -66.328125 32.3125 -65.835938 30.4375 -65.109375 C 30.082031 -63.359375 29.644531 -61.765625 29.125 -60.328125 C 28.613281 -58.890625 28.117188 -57.503906 27.640625 -56.171875 C 27.171875 -54.835938 26.75 -53.445312 26.375 -52 C 26 -50.5625 25.765625 -48.921875 25.671875 -47.078125 L 25.625 -46.0625 C 31.257812 -45.78125 36.765625 -45.8125 42.140625 -46.15625 C 47.523438 -46.507812 53 -47.023438 58.5625 -47.703125 C 58.96875 -47.742188 59.390625 -47.785156 59.828125 -47.828125 C 60.265625 -47.878906 60.722656 -47.894531 61.203125 -47.875 C 63.242188 -47.769531 64.835938 -47.007812 65.984375 -45.59375 C 67.140625 -44.1875 67.671875 -42.503906 67.578125 -40.546875 C 67.492188 -38.910156 67.140625 -37.628906 66.515625 -36.703125 C 65.898438 -35.785156 65.101562 -35.09375 64.125 -34.625 C 63.144531 -34.164062 62.023438 -33.863281 60.765625 -33.71875 C 59.503906 -33.582031 58.160156 -33.484375 56.734375 -33.421875 C 50.660156 -33.097656 44.640625 -32.707031 38.671875 -32.25 C 32.703125 -31.800781 26.773438 -30.671875 20.890625 -28.859375 C 20.316406 -28.066406 19.773438 -27.035156 19.265625 -25.765625 C 18.765625 -24.503906 18.296875 -23.203125 17.859375 -21.859375 C 17.421875 -20.523438 17.050781 -19.203125 16.75 -17.890625 C 16.445312 -16.578125 16.238281 -15.414062 16.125 -14.40625 C 20.445312 -14.050781 24.6875 -14.046875 28.84375 -14.390625 C 33.007812 -14.734375 37.25 -15.070312 41.5625 -15.40625 C 44.34375 -15.613281 47.257812 -15.859375 50.3125 -16.140625 C 53.363281 -16.421875 56.273438 -16.492188 59.046875 -16.359375 C 61.015625 -16.265625 62.65625 -15.472656 63.96875 -13.984375 C 65.289062 -12.492188 65.90625 -10.765625 65.8125 -8.796875 C 65.71875 -7.035156 65.109375 -5.753906 63.984375 -4.953125 C 62.859375 -4.160156 61.507812 -3.664062 59.9375 -3.46875 C 56.050781 -3.125 52.210938 -2.875 48.421875 -2.71875 C 44.640625 -2.5625 40.804688 -2.304688 36.921875 -1.953125 C 35.210938 -1.835938 33.070312 -1.535156 30.5 -1.046875 C 27.925781 -0.554688 25.332031 -0.0546875 22.71875 0.453125 C 20.113281 0.972656 17.695312 1.414062 15.46875 1.78125 C 13.238281 2.144531 11.582031 2.300781 10.5 2.25 C 9.070312 2.1875 7.726562 1.796875 6.46875 1.078125 C 5.21875 0.367188 4.125 -0.53125 3.1875 -1.625 C 2.257812 -2.726562 1.519531 -3.972656 0.96875 -5.359375 C 0.425781 -6.742188 0.191406 -8.113281 0.265625 -9.46875 C 0.304688 -10.351562 0.632812 -11.582031 1.25 -13.15625 C 1.875 -14.726562 2.570312 -16.410156 3.34375 -18.203125 C 4.113281 -19.992188 4.878906 -21.753906 5.640625 -23.484375 C 6.410156 -25.222656 7 -26.691406 7.40625 -27.890625 C 8.4375 -31.304688 9.359375 -34.742188 10.171875 -38.203125 C 10.992188 -41.671875 11.796875 -45.148438 12.578125 -48.640625 C 13.367188 -52.140625 14.222656 -55.597656 15.140625 -59.015625 C 16.054688 -62.441406 17.109375 -65.863281 18.296875 -69.28125 C 17.929688 -69.96875 17.679688 -70.722656 17.546875 -71.546875 C 17.410156 -72.367188 17.363281 -73.191406 17.40625 -74.015625 C 17.488281 -75.710938 17.863281 -77.070312 18.53125 -78.09375 C 19.195312 -79.113281 20.050781 -79.898438 21.09375 -80.453125 C 22.144531 -81.015625 23.332031 -81.382812 24.65625 -81.5625 C 25.988281 -81.738281 27.367188 -81.789062 28.796875 -81.71875 C 30.765625 -81.625 32.726562 -81.425781 34.6875 -81.125 C 36.644531 -80.820312 38.609375 -80.625 40.578125 -80.53125 C 44.921875 -80.3125 49.238281 -80.363281 53.53125 -80.6875 C 57.832031 -81.019531 62.117188 -81.082031 66.390625 -80.875 C 67.546875 -80.8125 68.847656 -80.625 70.296875 -80.3125 C 71.742188 -80.007812 73.082031 -79.539062 74.3125 -78.90625 C 75.539062 -78.28125 76.550781 -77.4375 77.34375 -76.375 C 78.144531 -75.3125 78.507812 -74.03125 78.4375 -72.53125 Z M 78.4375 -72.53125 "/></g></g></g><g fill="#a9f285" fill-opacity="1"><g transform="translate(333.536165, 110.433969)"><g><path d="M 91.40625 -61.203125 C 91.289062 -60.398438 90.988281 -59.738281 90.5 -59.21875 C 90.019531 -58.707031 89.445312 -58.289062 88.78125 -57.96875 C 88.125 -57.65625 87.421875 -57.429688 86.671875 -57.296875 C 85.929688 -57.171875 85.25 -57.082031 84.625 -57.03125 C 82.613281 -56.84375 80.625 -56.835938 78.65625 -57.015625 C 76.695312 -57.191406 74.71875 -57.375 72.71875 -57.5625 C 70.71875 -57.75 68.726562 -57.894531 66.75 -58 C 64.78125 -58.113281 62.816406 -58.035156 60.859375 -57.765625 C 58.648438 -53.347656 56.601562 -48.890625 54.71875 -44.390625 C 52.84375 -39.890625 51.015625 -35.363281 49.234375 -30.8125 C 47.453125 -26.269531 45.671875 -21.722656 43.890625 -17.171875 C 42.109375 -12.628906 40.242188 -8.128906 38.296875 -3.671875 C 37.878906 -2.691406 37.363281 -1.492188 36.75 -0.078125 C 36.144531 1.335938 35.421875 2.703125 34.578125 4.015625 C 33.734375 5.335938 32.75 6.429688 31.625 7.296875 C 30.507812 8.171875 29.242188 8.507812 27.828125 8.3125 C 26.878906 8.175781 25.972656 7.785156 25.109375 7.140625 C 24.242188 6.503906 23.460938 5.742188 22.765625 4.859375 C 22.066406 3.972656 21.539062 2.988281 21.1875 1.90625 C 20.832031 0.820312 20.726562 -0.21875 20.875 -1.21875 C 21.101562 -2.84375 21.578125 -4.375 22.296875 -5.8125 C 23.015625 -7.25 23.828125 -8.640625 24.734375 -9.984375 C 25.648438 -11.335938 26.582031 -12.679688 27.53125 -14.015625 C 28.476562 -15.347656 29.320312 -16.71875 30.0625 -18.125 C 32.28125 -22.539062 34.351562 -26.941406 36.28125 -31.328125 C 38.21875 -35.722656 40.035156 -40.265625 41.734375 -44.953125 C 42.421875 -46.910156 43.160156 -48.863281 43.953125 -50.8125 C 44.753906 -52.757812 45.300781 -54.773438 45.59375 -56.859375 C 45.644531 -57.203125 45.691406 -57.523438 45.734375 -57.828125 C 45.785156 -58.128906 45.800781 -58.445312 45.78125 -58.78125 C 44.832031 -59.332031 43.796875 -59.789062 42.671875 -60.15625 C 41.554688 -60.519531 40.398438 -60.820312 39.203125 -61.0625 C 38.015625 -61.300781 36.8125 -61.488281 35.59375 -61.625 C 34.375 -61.769531 33.257812 -61.914062 32.25 -62.0625 C 30.769531 -62.269531 29.367188 -62.554688 28.046875 -62.921875 C 26.734375 -63.285156 25.609375 -63.804688 24.671875 -64.484375 C 23.742188 -65.171875 23.046875 -66.0625 22.578125 -67.15625 C 22.117188 -68.25 22.015625 -69.671875 22.265625 -71.421875 C 22.546875 -73.367188 23.441406 -74.710938 24.953125 -75.453125 C 26.472656 -76.203125 28.21875 -76.625 30.1875 -76.71875 C 32.15625 -76.8125 34.144531 -76.695312 36.15625 -76.375 C 38.164062 -76.0625 39.773438 -75.816406 40.984375 -75.640625 C 44.078125 -75.203125 47.175781 -74.796875 50.28125 -74.421875 C 53.382812 -74.046875 56.484375 -73.632812 59.578125 -73.1875 C 62.867188 -72.71875 66.15625 -72.453125 69.4375 -72.390625 C 72.71875 -72.328125 76.007812 -72.0625 79.3125 -71.59375 C 80.851562 -71.363281 82.398438 -71.050781 83.953125 -70.65625 C 85.515625 -70.269531 86.894531 -69.695312 88.09375 -68.9375 C 89.289062 -68.1875 90.207031 -67.179688 90.84375 -65.921875 C 91.488281 -64.671875 91.675781 -63.097656 91.40625 -61.203125 Z M 91.40625 -61.203125 "/></g></g></g><g fill="#4a1d0a" fill-opacity="1"><g transform="translate(22.356954, 133.165101)"><g><path d="M 60.0625 -91.8125 C 60.289062 -90.894531 60.3125 -89.972656 60.125 -89.046875 C 59.945312 -88.128906 59.628906 -87.257812 59.171875 -86.4375 C 58.710938 -85.625 58.101562 -84.910156 57.34375 -84.296875 C 56.59375 -83.691406 55.785156 -83.28125 54.921875 -83.0625 C 52.679688 -82.5 50.378906 -82.179688 48.015625 -82.109375 C 45.648438 -82.046875 43.316406 -81.726562 41.015625 -81.15625 C 38.441406 -80.507812 35.816406 -79.65625 33.140625 -78.59375 C 30.460938 -77.539062 27.867188 -76.296875 25.359375 -74.859375 C 22.847656 -73.429688 20.460938 -71.835938 18.203125 -70.078125 C 15.953125 -68.328125 13.957031 -66.4375 12.21875 -64.40625 C 11.257812 -63.238281 10.445312 -62.082031 9.78125 -60.9375 C 9.125 -59.789062 8.992188 -58.429688 9.390625 -56.859375 C 9.523438 -56.328125 9.675781 -55.925781 9.84375 -55.65625 C 10.019531 -55.382812 10.378906 -55.140625 10.921875 -54.921875 C 12.078125 -54.515625 13.519531 -54.351562 15.25 -54.4375 C 16.976562 -54.519531 18.84375 -54.753906 20.84375 -55.140625 C 22.84375 -55.535156 24.941406 -56.023438 27.140625 -56.609375 C 29.347656 -57.203125 31.46875 -57.820312 33.5 -58.46875 C 35.539062 -59.125 37.441406 -59.726562 39.203125 -60.28125 C 40.960938 -60.832031 42.429688 -61.253906 43.609375 -61.546875 C 45.328125 -61.972656 47.015625 -62.289062 48.671875 -62.5 C 50.335938 -62.707031 52.035156 -62.847656 53.765625 -62.921875 C 58.109375 -63.171875 61.570312 -62.53125 64.15625 -61 C 66.75 -59.476562 68.597656 -56.519531 69.703125 -52.125 C 71.160156 -46.320312 71.195312 -41.21875 69.8125 -36.8125 C 68.425781 -32.40625 66.160156 -28.507812 63.015625 -25.125 C 59.878906 -21.75 56.117188 -18.8125 51.734375 -16.3125 C 47.347656 -13.820312 42.894531 -11.550781 38.375 -9.5 C 36.664062 -8.726562 34.925781 -8.03125 33.15625 -7.40625 C 31.382812 -6.789062 29.609375 -6.257812 27.828125 -5.8125 C 25.523438 -5.226562 22.914062 -4.832031 20 -4.625 C 17.082031 -4.425781 14.242188 -4.59375 11.484375 -5.125 C 8.722656 -5.65625 6.257812 -6.664062 4.09375 -8.15625 C 1.9375 -9.644531 0.5 -11.835938 -0.21875 -14.734375 C -1.175781 -18.554688 0.285156 -20.957031 4.171875 -21.9375 C 5.554688 -22.28125 6.988281 -22.285156 8.46875 -21.953125 C 9.957031 -21.628906 11.492188 -21.226562 13.078125 -20.75 C 14.660156 -20.28125 16.289062 -19.847656 17.96875 -19.453125 C 19.644531 -19.066406 21.394531 -19.003906 23.21875 -19.265625 C 24.363281 -19.410156 25.503906 -19.585938 26.640625 -19.796875 C 27.785156 -20.015625 28.921875 -20.265625 30.046875 -20.546875 C 31.953125 -21.015625 33.742188 -21.65625 35.421875 -22.46875 C 37.109375 -23.28125 38.78125 -24.171875 40.4375 -25.140625 C 42.15625 -26.128906 44.085938 -27.363281 46.234375 -28.84375 C 48.378906 -30.332031 50.332031 -31.945312 52.09375 -33.6875 C 53.863281 -35.425781 55.273438 -37.210938 56.328125 -39.046875 C 57.378906 -40.878906 57.691406 -42.65625 57.265625 -44.375 C 57.003906 -45.425781 56.460938 -46.25 55.640625 -46.84375 C 54.828125 -47.445312 53.90625 -47.847656 52.875 -48.046875 C 51.84375 -48.253906 50.789062 -48.328125 49.71875 -48.265625 C 48.644531 -48.210938 47.710938 -48.085938 46.921875 -47.890625 C 42.046875 -46.660156 37.253906 -45.175781 32.546875 -43.4375 C 27.835938 -41.707031 23.007812 -40.222656 18.0625 -38.984375 C 16.21875 -38.515625 14.445312 -38.101562 12.75 -37.75 C 11.0625 -37.40625 9.390625 -37.25 7.734375 -37.28125 C 6.078125 -37.3125 4.472656 -37.625 2.921875 -38.21875 C 1.367188 -38.820312 -0.132812 -39.8125 -1.59375 -41.1875 C -2.144531 -41.6875 -2.617188 -42.320312 -3.015625 -43.09375 C -3.421875 -43.863281 -3.753906 -44.707031 -4.015625 -45.625 C -4.285156 -46.539062 -4.535156 -47.457031 -4.765625 -48.375 C -5.003906 -49.300781 -5.210938 -50.125 -5.390625 -50.84375 C -5.898438 -52.894531 -5.847656 -55.082031 -5.234375 -57.40625 C -4.628906 -59.726562 -3.648438 -62.035156 -2.296875 -64.328125 C -0.941406 -66.628906 0.671875 -68.90625 2.546875 -71.15625 C 4.429688 -73.414062 6.390625 -75.535156 8.421875 -77.515625 C 10.453125 -79.492188 12.453125 -81.285156 14.421875 -82.890625 C 16.398438 -84.503906 18.128906 -85.847656 19.609375 -86.921875 C 21.378906 -88.203125 23.148438 -89.296875 24.921875 -90.203125 C 26.691406 -91.109375 28.46875 -91.90625 30.25 -92.59375 C 32.039062 -93.28125 33.898438 -93.898438 35.828125 -94.453125 C 37.765625 -95.015625 39.785156 -95.5625 41.890625 -96.09375 C 43.140625 -96.40625 44.722656 -96.644531 46.640625 -96.8125 C 48.566406 -96.976562 50.46875 -96.941406 52.34375 -96.703125 C 54.21875 -96.472656 55.878906 -95.976562 57.328125 -95.21875 C 58.773438 -94.46875 59.6875 -93.332031 60.0625 -91.8125 Z M 60.0625 -91.8125 "/></g></g></g><g fill="#4a1d0a" fill-opacity="1"><g transform="translate(103.217578, 112.844809)"><g><path d="M 71.390625 -87.625 C 71.765625 -85 71.757812 -82.253906 71.375 -79.390625 C 70.988281 -76.523438 70.707031 -73.773438 70.53125 -71.140625 C 70.320312 -68.242188 70.09375 -65.382812 69.84375 -62.5625 C 69.59375 -59.75 69.289062 -56.914062 68.9375 -54.0625 C 68.375 -49.71875 67.773438 -45.40625 67.140625 -41.125 C 66.503906 -36.851562 66.019531 -32.539062 65.6875 -28.1875 C 65.664062 -27.84375 65.671875 -27.550781 65.703125 -27.3125 C 65.742188 -27.070312 65.785156 -26.785156 65.828125 -26.453125 C 65.984375 -25.378906 66.171875 -24.304688 66.390625 -23.234375 C 66.609375 -22.171875 66.789062 -21.101562 66.9375 -20.03125 C 67.320312 -17.34375 67.023438 -14.9375 66.046875 -12.8125 C 65.066406 -10.6875 63.066406 -9.410156 60.046875 -8.984375 C 59.109375 -8.847656 58.234375 -8.976562 57.421875 -9.375 C 56.609375 -9.769531 55.875 -10.347656 55.21875 -11.109375 C 54.5625 -11.878906 54.007812 -12.765625 53.5625 -13.765625 C 53.113281 -14.773438 52.8125 -15.816406 52.65625 -16.890625 C 52.457031 -18.304688 52.40625 -19.773438 52.5 -21.296875 C 52.59375 -22.816406 52.75 -24.378906 52.96875 -25.984375 C 53.1875 -27.597656 53.421875 -29.222656 53.671875 -30.859375 C 53.929688 -32.503906 54.113281 -34.160156 54.21875 -35.828125 C 53.4375 -35.992188 52.6875 -36.039062 51.96875 -35.96875 C 51.257812 -35.90625 50.535156 -35.820312 49.796875 -35.71875 C 47.847656 -35.4375 45.941406 -35.082031 44.078125 -34.65625 C 42.222656 -34.226562 40.332031 -33.804688 38.40625 -33.390625 C 36.46875 -32.984375 34.457031 -32.613281 32.375 -32.28125 C 30.300781 -31.957031 28.234375 -31.5625 26.171875 -31.09375 C 24.109375 -30.632812 22.097656 -30.0625 20.140625 -29.375 C 18.179688 -28.6875 16.351562 -27.816406 14.65625 -26.765625 C 13.707031 -23.742188 13.035156 -20.679688 12.640625 -17.578125 C 12.253906 -14.472656 11.941406 -11.359375 11.703125 -8.234375 C 11.453125 -5.179688 10.671875 -3.03125 9.359375 -1.78125 C 8.054688 -0.53125 5.929688 0.296875 2.984375 0.703125 C 1.703125 0.890625 0.5625 0.457031 -0.4375 -0.59375 C -1.445312 -1.644531 -2.050781 -2.878906 -2.25 -4.296875 C -2.363281 -5.109375 -2.34375 -5.972656 -2.1875 -6.890625 C -2.039062 -7.804688 -1.84375 -8.726562 -1.59375 -9.65625 C -1.351562 -10.582031 -1.113281 -11.503906 -0.875 -12.421875 C -0.632812 -13.347656 -0.4375 -14.234375 -0.28125 -15.078125 C 1.78125 -25.796875 3.425781 -36.640625 4.65625 -47.609375 C 5.894531 -58.585938 6.492188 -69.5625 6.453125 -80.53125 C 6.460938 -81.96875 6.9375 -82.972656 7.875 -83.546875 C 8.820312 -84.128906 9.9375 -84.515625 11.21875 -84.703125 C 14.375 -85.140625 16.773438 -84.640625 18.421875 -83.203125 C 20.066406 -81.765625 21.101562 -79.523438 21.53125 -76.484375 C 21.664062 -75.472656 21.648438 -74.582031 21.484375 -73.8125 C 20.847656 -71.039062 20.34375 -68.53125 19.96875 -66.28125 C 19.601562 -64.039062 19.265625 -61.851562 18.953125 -59.71875 C 18.640625 -57.582031 18.332031 -55.378906 18.03125 -53.109375 C 17.726562 -50.835938 17.367188 -48.296875 16.953125 -45.484375 C 17.492188 -45.492188 18.035156 -45.535156 18.578125 -45.609375 C 19.117188 -45.679688 19.65625 -45.757812 20.1875 -45.84375 C 23.019531 -46.238281 25.945312 -46.753906 28.96875 -47.390625 C 32 -48.023438 35.050781 -48.742188 38.125 -49.546875 C 41.195312 -50.359375 44.207031 -51.265625 47.15625 -52.265625 C 50.101562 -53.265625 52.867188 -54.351562 55.453125 -55.53125 C 56.117188 -58.101562 56.59375 -60.691406 56.875 -63.296875 C 57.15625 -65.910156 57.320312 -68.507812 57.375 -71.09375 C 57.425781 -73.675781 57.40625 -76.265625 57.3125 -78.859375 C 57.21875 -81.460938 57.148438 -84.09375 57.109375 -86.75 C 57.117188 -87.707031 57.238281 -88.6875 57.46875 -89.6875 C 57.707031 -90.6875 58.078125 -91.613281 58.578125 -92.46875 C 59.078125 -93.320312 59.710938 -94.039062 60.484375 -94.625 C 61.253906 -95.21875 62.175781 -95.59375 63.25 -95.75 C 64.320312 -95.894531 65.320312 -95.738281 66.25 -95.28125 C 67.175781 -94.832031 68.003906 -94.210938 68.734375 -93.421875 C 69.460938 -92.640625 70.050781 -91.726562 70.5 -90.6875 C 70.945312 -89.65625 71.242188 -88.632812 71.390625 -87.625 Z M 71.390625 -87.625 "/></g></g></g><g fill="#4a1d0a" fill-opacity="1"><g transform="translate(182.373803, 101.775153)"><g><path d="M 71.46875 -79.421875 C 71.550781 -77.523438 71.097656 -75.738281 70.109375 -74.0625 C 69.128906 -72.382812 67.582031 -71.5 65.46875 -71.40625 C 63.300781 -71.3125 61.195312 -71.390625 59.15625 -71.640625 C 57.113281 -71.898438 55.003906 -71.914062 52.828125 -71.6875 C 50.734375 -71.457031 48.410156 -71.289062 45.859375 -71.1875 C 43.316406 -71.082031 40.757812 -70.921875 38.1875 -70.703125 C 35.613281 -70.492188 33.113281 -70.148438 30.6875 -69.671875 C 28.257812 -69.203125 26.144531 -68.519531 24.34375 -67.625 C 24.144531 -65.84375 23.859375 -64.210938 23.484375 -62.734375 C 23.109375 -61.265625 22.742188 -59.84375 22.390625 -58.46875 C 22.046875 -57.09375 21.75 -55.664062 21.5 -54.1875 C 21.257812 -52.71875 21.179688 -51.0625 21.265625 -49.21875 L 21.296875 -48.203125 C 26.921875 -48.441406 32.398438 -48.984375 37.734375 -49.828125 C 43.066406 -50.671875 48.46875 -51.6875 53.9375 -52.875 C 54.34375 -52.945312 54.765625 -53.023438 55.203125 -53.109375 C 55.640625 -53.203125 56.097656 -53.257812 56.578125 -53.28125 C 58.609375 -53.363281 60.257812 -52.753906 61.53125 -51.453125 C 62.8125 -50.148438 63.492188 -48.515625 63.578125 -46.546875 C 63.640625 -44.921875 63.40625 -43.625 62.875 -42.65625 C 62.34375 -41.6875 61.609375 -40.925781 60.671875 -40.375 C 59.742188 -39.820312 58.660156 -39.414062 57.421875 -39.15625 C 56.179688 -38.90625 54.851562 -38.679688 53.4375 -38.484375 C 47.414062 -37.609375 41.453125 -36.671875 35.546875 -35.671875 C 29.640625 -34.671875 23.847656 -32.992188 18.171875 -30.640625 C 17.660156 -29.804688 17.210938 -28.734375 16.828125 -27.421875 C 16.441406 -26.117188 16.09375 -24.78125 15.78125 -23.40625 C 15.46875 -22.039062 15.21875 -20.6875 15.03125 -19.34375 C 14.851562 -18.007812 14.753906 -16.832031 14.734375 -15.8125 C 19.078125 -15.863281 23.304688 -16.25 27.421875 -16.96875 C 31.535156 -17.6875 35.722656 -18.410156 39.984375 -19.140625 C 42.734375 -19.597656 45.613281 -20.109375 48.625 -20.671875 C 51.632812 -21.242188 54.53125 -21.585938 57.3125 -21.703125 C 59.269531 -21.785156 60.972656 -21.144531 62.421875 -19.78125 C 63.867188 -18.414062 64.632812 -16.75 64.71875 -14.78125 C 64.789062 -13.019531 64.300781 -11.691406 63.25 -10.796875 C 62.207031 -9.910156 60.921875 -9.296875 59.390625 -8.953125 C 55.535156 -8.253906 51.734375 -7.648438 47.984375 -7.140625 C 44.234375 -6.640625 40.4375 -6.035156 36.59375 -5.328125 C 34.90625 -5.054688 32.800781 -4.554688 30.28125 -3.828125 C 27.757812 -3.109375 25.222656 -2.367188 22.671875 -1.609375 C 20.117188 -0.859375 17.75 -0.203125 15.5625 0.359375 C 13.375 0.929688 11.738281 1.238281 10.65625 1.28125 C 9.238281 1.34375 7.867188 1.078125 6.546875 0.484375 C 5.222656 -0.0976562 4.046875 -0.894531 3.015625 -1.90625 C 1.992188 -2.914062 1.148438 -4.085938 0.484375 -5.421875 C -0.179688 -6.753906 -0.546875 -8.09375 -0.609375 -9.4375 C -0.640625 -10.320312 -0.421875 -11.578125 0.046875 -13.203125 C 0.523438 -14.828125 1.066406 -16.566406 1.671875 -18.421875 C 2.273438 -20.285156 2.875 -22.113281 3.46875 -23.90625 C 4.070312 -25.695312 4.519531 -27.207031 4.8125 -28.4375 C 5.539062 -31.945312 6.148438 -35.457031 6.640625 -38.96875 C 7.140625 -42.488281 7.617188 -46.023438 8.078125 -49.578125 C 8.546875 -53.140625 9.078125 -56.664062 9.671875 -60.15625 C 10.265625 -63.644531 11 -67.144531 11.875 -70.65625 C 11.4375 -71.320312 11.113281 -72.054688 10.90625 -72.859375 C 10.707031 -73.660156 10.585938 -74.472656 10.546875 -75.296875 C 10.484375 -76.984375 10.734375 -78.363281 11.296875 -79.4375 C 11.867188 -80.519531 12.648438 -81.390625 13.640625 -82.046875 C 14.628906 -82.703125 15.78125 -83.175781 17.09375 -83.46875 C 18.40625 -83.769531 19.773438 -83.945312 21.203125 -84 C 23.160156 -84.082031 25.128906 -84.066406 27.109375 -83.953125 C 29.097656 -83.835938 31.078125 -83.820312 33.046875 -83.90625 C 37.378906 -84.082031 41.671875 -84.53125 45.921875 -85.25 C 50.171875 -85.976562 54.429688 -86.4375 58.703125 -86.625 C 59.859375 -86.664062 61.171875 -86.597656 62.640625 -86.421875 C 64.109375 -86.242188 65.484375 -85.894531 66.765625 -85.375 C 68.054688 -84.863281 69.144531 -84.113281 70.03125 -83.125 C 70.925781 -82.144531 71.40625 -80.910156 71.46875 -79.421875 Z M 71.46875 -79.421875 "/></g></g></g><g fill="#4a1d0a" fill-opacity="1"><g transform="translate(253.234607, 98.632758)"><g><path d="M 78.4375 -72.53125 C 78.34375 -70.632812 77.726562 -68.898438 76.59375 -67.328125 C 75.46875 -65.753906 73.851562 -65.019531 71.75 -65.125 C 69.582031 -65.226562 67.488281 -65.5 65.46875 -65.9375 C 63.445312 -66.375 61.347656 -66.578125 59.171875 -66.546875 C 57.066406 -66.515625 54.738281 -66.5625 52.1875 -66.6875 C 49.644531 -66.8125 47.082031 -66.890625 44.5 -66.921875 C 41.914062 -66.953125 39.394531 -66.835938 36.9375 -66.578125 C 34.476562 -66.328125 32.3125 -65.835938 30.4375 -65.109375 C 30.082031 -63.359375 29.644531 -61.765625 29.125 -60.328125 C 28.613281 -58.890625 28.117188 -57.503906 27.640625 -56.171875 C 27.171875 -54.835938 26.75 -53.445312 26.375 -52 C 26 -50.5625 25.765625 -48.921875 25.671875 -47.078125 L 25.625 -46.0625 C 31.257812 -45.78125 36.765625 -45.8125 42.140625 -46.15625 C 47.523438 -46.507812 53 -47.023438 58.5625 -47.703125 C 58.96875 -47.742188 59.390625 -47.785156 59.828125 -47.828125 C 60.265625 -47.878906 60.722656 -47.894531 61.203125 -47.875 C 63.242188 -47.769531 64.835938 -47.007812 65.984375 -45.59375 C 67.140625 -44.1875 67.671875 -42.503906 67.578125 -40.546875 C 67.492188 -38.910156 67.140625 -37.628906 66.515625 -36.703125 C 65.898438 -35.785156 65.101562 -35.09375 64.125 -34.625 C 63.144531 -34.164062 62.023438 -33.863281 60.765625 -33.71875 C 59.503906 -33.582031 58.160156 -33.484375 56.734375 -33.421875 C 50.660156 -33.097656 44.640625 -32.707031 38.671875 -32.25 C 32.703125 -31.800781 26.773438 -30.671875 20.890625 -28.859375 C 20.316406 -28.066406 19.773438 -27.035156 19.265625 -25.765625 C 18.765625 -24.503906 18.296875 -23.203125 17.859375 -21.859375 C 17.421875 -20.523438 17.050781 -19.203125 16.75 -17.890625 C 16.445312 -16.578125 16.238281 -15.414062 16.125 -14.40625 C 20.445312 -14.050781 24.6875 -14.046875 28.84375 -14.390625 C 33.007812 -14.734375 37.25 -15.070312 41.5625 -15.40625 C 44.34375 -15.613281 47.257812 -15.859375 50.3125 -16.140625 C 53.363281 -16.421875 56.273438 -16.492188 59.046875 -16.359375 C 61.015625 -16.265625 62.65625 -15.472656 63.96875 -13.984375 C 65.289062 -12.492188 65.90625 -10.765625 65.8125 -8.796875 C 65.71875 -7.035156 65.109375 -5.753906 63.984375 -4.953125 C 62.859375 -4.160156 61.507812 -3.664062 59.9375 -3.46875 C 56.050781 -3.125 52.210938 -2.875 48.421875 -2.71875 C 44.640625 -2.5625 40.804688 -2.304688 36.921875 -1.953125 C 35.210938 -1.835938 33.070312 -1.535156 30.5 -1.046875 C 27.925781 -0.554688 25.332031 -0.0546875 22.71875 0.453125 C 20.113281 0.972656 17.695312 1.414062 15.46875 1.78125 C 13.238281 2.144531 11.582031 2.300781 10.5 2.25 C 9.070312 2.1875 7.726562 1.796875 6.46875 1.078125 C 5.21875 0.367188 4.125 -0.53125 3.1875 -1.625 C 2.257812 -2.726562 1.519531 -3.972656 0.96875 -5.359375 C 0.425781 -6.742188 0.191406 -8.113281 0.265625 -9.46875 C 0.304688 -10.351562 0.632812 -11.582031 1.25 -13.15625 C 1.875 -14.726562 2.570312 -16.410156 3.34375 -18.203125 C 4.113281 -19.992188 4.878906 -21.753906 5.640625 -23.484375 C 6.410156 -25.222656 7 -26.691406 7.40625 -27.890625 C 8.4375 -31.304688 9.359375 -34.742188 10.171875 -38.203125 C 10.992188 -41.671875 11.796875 -45.148438 12.578125 -48.640625 C 13.367188 -52.140625 14.222656 -55.597656 15.140625 -59.015625 C 16.054688 -62.441406 17.109375 -65.863281 18.296875 -69.28125 C 17.929688 -69.96875 17.679688 -70.722656 17.546875 -71.546875 C 17.410156 -72.367188 17.363281 -73.191406 17.40625 -74.015625 C 17.488281 -75.710938 17.863281 -77.070312 18.53125 -78.09375 C 19.195312 -79.113281 20.050781 -79.898438 21.09375 -80.453125 C 22.144531 -81.015625 23.332031 -81.382812 24.65625 -81.5625 C 25.988281 -81.738281 27.367188 -81.789062 28.796875 -81.71875 C 30.765625 -81.625 32.726562 -81.425781 34.6875 -81.125 C 36.644531 -80.820312 38.609375 -80.625 40.578125 -80.53125 C 44.921875 -80.3125 49.238281 -80.363281 53.53125 -80.6875 C 57.832031 -81.019531 62.117188 -81.082031 66.390625 -80.875 C 67.546875 -80.8125 68.847656 -80.625 70.296875 -80.3125 C 71.742188 -80.007812 73.082031 -79.539062 74.3125 -78.90625 C 75.539062 -78.28125 76.550781 -77.4375 77.34375 -76.375 C 78.144531 -75.3125 78.507812 -74.03125 78.4375 -72.53125 Z M 78.4375 -72.53125 "/></g></g></g><g fill="#4a1d0a" fill-opacity="1"><g transform="translate(324.05095, 101.936111)"><g><path d="M 91.40625 -61.203125 C 91.289062 -60.398438 90.988281 -59.738281 90.5 -59.21875 C 90.019531 -58.707031 89.445312 -58.289062 88.78125 -57.96875 C 88.125 -57.65625 87.421875 -57.429688 86.671875 -57.296875 C 85.929688 -57.171875 85.25 -57.082031 84.625 -57.03125 C 82.613281 -56.84375 80.625 -56.835938 78.65625 -57.015625 C 76.695312 -57.191406 74.71875 -57.375 72.71875 -57.5625 C 70.71875 -57.75 68.726562 -57.894531 66.75 -58 C 64.78125 -58.113281 62.816406 -58.035156 60.859375 -57.765625 C 58.648438 -53.347656 56.601562 -48.890625 54.71875 -44.390625 C 52.84375 -39.890625 51.015625 -35.363281 49.234375 -30.8125 C 47.453125 -26.269531 45.671875 -21.722656 43.890625 -17.171875 C 42.109375 -12.628906 40.242188 -8.128906 38.296875 -3.671875 C 37.878906 -2.691406 37.363281 -1.492188 36.75 -0.078125 C 36.144531 1.335938 35.421875 2.703125 34.578125 4.015625 C 33.734375 5.335938 32.75 6.429688 31.625 7.296875 C 30.507812 8.171875 29.242188 8.507812 27.828125 8.3125 C 26.878906 8.175781 25.972656 7.785156 25.109375 7.140625 C 24.242188 6.503906 23.460938 5.742188 22.765625 4.859375 C 22.066406 3.972656 21.539062 2.988281 21.1875 1.90625 C 20.832031 0.820312 20.726562 -0.21875 20.875 -1.21875 C 21.101562 -2.84375 21.578125 -4.375 22.296875 -5.8125 C 23.015625 -7.25 23.828125 -8.640625 24.734375 -9.984375 C 25.648438 -11.335938 26.582031 -12.679688 27.53125 -14.015625 C 28.476562 -15.347656 29.320312 -16.71875 30.0625 -18.125 C 32.28125 -22.539062 34.351562 -26.941406 36.28125 -31.328125 C 38.21875 -35.722656 40.035156 -40.265625 41.734375 -44.953125 C 42.421875 -46.910156 43.160156 -48.863281 43.953125 -50.8125 C 44.753906 -52.757812 45.300781 -54.773438 45.59375 -56.859375 C 45.644531 -57.203125 45.691406 -57.523438 45.734375 -57.828125 C 45.785156 -58.128906 45.800781 -58.445312 45.78125 -58.78125 C 44.832031 -59.332031 43.796875 -59.789062 42.671875 -60.15625 C 41.554688 -60.519531 40.398438 -60.820312 39.203125 -61.0625 C 38.015625 -61.300781 36.8125 -61.488281 35.59375 -61.625 C 34.375 -61.769531 33.257812 -61.914062 32.25 -62.0625 C 30.769531 -62.269531 29.367188 -62.554688 28.046875 -62.921875 C 26.734375 -63.285156 25.609375 -63.804688 24.671875 -64.484375 C 23.742188 -65.171875 23.046875 -66.0625 22.578125 -67.15625 C 22.117188 -68.25 22.015625 -69.671875 22.265625 -71.421875 C 22.546875 -73.367188 23.441406 -74.710938 24.953125 -75.453125 C 26.472656 -76.203125 28.21875 -76.625 30.1875 -76.71875 C 32.15625 -76.8125 34.144531 -76.695312 36.15625 -76.375 C 38.164062 -76.0625 39.773438 -75.816406 40.984375 -75.640625 C 44.078125 -75.203125 47.175781 -74.796875 50.28125 -74.421875 C 53.382812 -74.046875 56.484375 -73.632812 59.578125 -73.1875 C 62.867188 -72.71875 66.15625 -72.453125 69.4375 -72.390625 C 72.71875 -72.328125 76.007812 -72.0625 79.3125 -71.59375 C 80.851562 -71.363281 82.398438 -71.050781 83.953125 -70.65625 C 85.515625 -70.269531 86.894531 -69.695312 88.09375 -68.9375 C 89.289062 -68.1875 90.207031 -67.179688 90.84375 -65.921875 C 91.488281 -64.671875 91.675781 -63.097656 91.40625 -61.203125 Z M 91.40625 -61.203125 "/></g></g></g></g></g></g><g clip-path="url(#60cb468ef2)"><g transform="matrix(1, 0, 0, 1, 0, 113)"><g clip-path="url(#bb15a019e0)"><g fill="#a9f285" fill-opacity="1"><g transform="translate(30.947767, 131.490123)"><g><path d="M 81.140625 -63.15625 C 82.265625 -58.75 82.675781 -54.316406 82.375 -49.859375 C 82.082031 -45.398438 81.160156 -41.117188 79.609375 -37.015625 C 78.054688 -32.910156 75.910156 -29.066406 73.171875 -25.484375 C 70.441406 -21.910156 67.242188 -18.816406 63.578125 -16.203125 C 60.078125 -13.703125 56.316406 -11.535156 52.296875 -9.703125 C 48.285156 -7.867188 44.203125 -6.425781 40.046875 -5.375 C 36.554688 -4.476562 32.984375 -3.914062 29.328125 -3.6875 C 25.671875 -3.457031 22.15625 -3.71875 18.78125 -4.46875 C 15.40625 -5.21875 12.25 -6.53125 9.3125 -8.40625 C 6.375 -10.289062 3.910156 -12.941406 1.921875 -16.359375 C 0.523438 -18.804688 -0.734375 -21.359375 -1.859375 -24.015625 C -2.992188 -26.671875 -3.914062 -29.382812 -4.625 -32.15625 C -5.757812 -36.625 -6.242188 -40.945312 -6.078125 -45.125 C -5.921875 -49.300781 -5.238281 -53.347656 -4.03125 -57.265625 C -2.820312 -61.179688 -1.140625 -64.957031 1.015625 -68.59375 C 3.171875 -72.226562 5.707031 -75.75 8.625 -79.15625 C 12.875 -84.238281 17.632812 -88.320312 22.90625 -91.40625 C 28.1875 -94.5 34.015625 -96.863281 40.390625 -98.5 C 41.703125 -98.832031 43.25 -99.210938 45.03125 -99.640625 C 46.8125 -100.066406 48.703125 -100.410156 50.703125 -100.671875 C 52.703125 -100.929688 54.710938 -101.070312 56.734375 -101.09375 C 58.765625 -101.125 60.644531 -100.898438 62.375 -100.421875 C 64.113281 -99.953125 65.609375 -99.195312 66.859375 -98.15625 C 68.109375 -97.113281 68.972656 -95.640625 69.453125 -93.734375 C 70.046875 -91.429688 69.820312 -89.285156 68.78125 -87.296875 C 67.75 -85.316406 66.050781 -84.023438 63.6875 -83.421875 C 62.101562 -83.015625 60.503906 -82.742188 58.890625 -82.609375 C 57.273438 -82.472656 55.660156 -82.394531 54.046875 -82.375 C 52.441406 -82.351562 50.832031 -82.273438 49.21875 -82.140625 C 47.613281 -82.003906 46.019531 -81.738281 44.4375 -81.34375 C 42.207031 -80.769531 39.820312 -79.8125 37.28125 -78.46875 C 34.75 -77.125 32.269531 -75.566406 29.84375 -73.796875 C 27.425781 -72.023438 25.179688 -70.171875 23.109375 -68.234375 C 21.046875 -66.304688 19.375 -64.441406 18.09375 -62.640625 C 15.226562 -58.753906 13.253906 -54.46875 12.171875 -49.78125 C 11.085938 -45.09375 11.273438 -39.890625 12.734375 -34.171875 C 13.460938 -31.335938 14.664062 -29.03125 16.34375 -27.25 C 18.019531 -25.46875 19.972656 -24.125 22.203125 -23.21875 C 24.429688 -22.3125 26.847656 -21.820312 29.453125 -21.75 C 32.066406 -21.6875 34.628906 -21.972656 37.140625 -22.609375 C 39.109375 -23.117188 41.019531 -23.785156 42.875 -24.609375 C 44.738281 -25.429688 46.550781 -26.378906 48.3125 -27.453125 C 50.238281 -28.648438 52.316406 -30.164062 54.546875 -32 C 56.785156 -33.832031 58.773438 -35.859375 60.515625 -38.078125 C 62.265625 -40.304688 63.597656 -42.695312 64.515625 -45.25 C 65.441406 -47.8125 65.582031 -50.375 64.9375 -52.9375 C 64.894531 -53.070312 64.894531 -53.125 64.9375 -53.09375 C 64.976562 -53.0625 64.984375 -53.109375 64.953125 -53.234375 C 64.910156 -53.378906 64.625 -53.382812 64.09375 -53.25 C 63.570312 -53.125 63.25 -53.039062 63.125 -53 C 60.03125 -52.21875 57.035156 -51.171875 54.140625 -49.859375 C 51.253906 -48.554688 48.4375 -47.101562 45.6875 -45.5 C 44.40625 -44.75 43.269531 -44.039062 42.28125 -43.375 C 41.300781 -42.707031 40.304688 -42.070312 39.296875 -41.46875 C 38.296875 -40.863281 37.257812 -40.316406 36.1875 -39.828125 C 35.125 -39.347656 33.875 -38.925781 32.4375 -38.5625 C 30 -37.9375 28 -38.210938 26.4375 -39.390625 C 24.875 -40.566406 23.796875 -42.304688 23.203125 -44.609375 C 22.648438 -46.785156 22.71875 -48.992188 23.40625 -51.234375 C 24.101562 -53.472656 25.363281 -55.28125 27.1875 -56.65625 C 27.957031 -57.207031 28.773438 -57.695312 29.640625 -58.125 C 30.515625 -58.5625 31.382812 -59.03125 32.25 -59.53125 C 33.90625 -60.4375 35.488281 -61.273438 37 -62.046875 C 38.519531 -62.828125 40.035156 -63.546875 41.546875 -64.203125 C 43.066406 -64.867188 44.601562 -65.503906 46.15625 -66.109375 C 47.71875 -66.722656 49.390625 -67.394531 51.171875 -68.125 C 53.390625 -69.050781 55.554688 -70.023438 57.671875 -71.046875 C 59.796875 -72.078125 62.007812 -72.890625 64.3125 -73.484375 C 68.65625 -74.585938 72.28125 -74.179688 75.1875 -72.265625 C 78.101562 -70.347656 80.085938 -67.3125 81.140625 -63.15625 Z M 81.140625 -63.15625 "/></g></g></g><g fill="#a9f285" fill-opacity="1"><g transform="translate(114.886472, 109.867441)"><g><path d="M 76.546875 -85.9375 C 76.734375 -84.53125 76.71875 -83.125 76.5 -81.71875 C 76.28125 -80.320312 76.023438 -78.921875 75.734375 -77.515625 C 74.835938 -72.515625 74.179688 -67.503906 73.765625 -62.484375 C 73.359375 -57.472656 72.875 -52.457031 72.3125 -47.4375 C 71.945312 -44.03125 71.738281 -40.609375 71.6875 -37.171875 C 71.644531 -33.742188 71.191406 -30.394531 70.328125 -27.125 C 69.691406 -24.78125 68.941406 -22.742188 68.078125 -21.015625 C 67.210938 -19.285156 66.164062 -17.753906 64.9375 -16.421875 C 63.71875 -15.097656 62.320312 -13.898438 60.75 -12.828125 C 59.1875 -11.753906 57.351562 -10.628906 55.25 -9.453125 C 51.238281 -7.191406 47.054688 -5.316406 42.703125 -3.828125 C 38.347656 -2.347656 33.847656 -1.296875 29.203125 -0.671875 C 25.910156 -0.222656 22.664062 -0.0195312 19.46875 -0.0625 C 16.28125 -0.113281 13.363281 -0.644531 10.71875 -1.65625 C 8.082031 -2.664062 5.835938 -4.3125 3.984375 -6.59375 C 2.140625 -8.882812 0.945312 -12.019531 0.40625 -16 C 0.113281 -18.144531 0.1875 -20.378906 0.625 -22.703125 C 1.53125 -28.097656 2.234375 -33.46875 2.734375 -38.8125 C 3.242188 -44.164062 3.71875 -49.546875 4.15625 -54.953125 C 4.300781 -56.953125 4.492188 -58.960938 4.734375 -60.984375 C 4.972656 -63.003906 5.125 -65.015625 5.1875 -67.015625 C 5.300781 -68.671875 5.21875 -70.300781 4.9375 -71.90625 C 4.65625 -73.519531 4.535156 -75.148438 4.578125 -76.796875 C 4.609375 -79.128906 5.160156 -81.125 6.234375 -82.78125 C 7.316406 -84.4375 9.109375 -85.429688 11.609375 -85.765625 C 12.867188 -85.941406 14.128906 -85.789062 15.390625 -85.3125 C 16.660156 -84.84375 17.820312 -84.160156 18.875 -83.265625 C 19.925781 -82.367188 20.820312 -81.320312 21.5625 -80.125 C 22.300781 -78.9375 22.753906 -77.734375 22.921875 -76.515625 C 23.078125 -75.367188 23.085938 -74.132812 22.953125 -72.8125 C 22.828125 -71.5 22.632812 -70.15625 22.375 -68.78125 C 22.113281 -67.40625 21.835938 -66.046875 21.546875 -64.703125 C 21.253906 -63.367188 21.007812 -62.132812 20.8125 -61 C 19.851562 -54.988281 19.210938 -48.960938 18.890625 -42.921875 C 18.578125 -36.878906 18.257812 -30.820312 17.9375 -24.75 C 17.90625 -24.394531 17.867188 -24.007812 17.828125 -23.59375 C 17.785156 -23.175781 17.785156 -22.796875 17.828125 -22.453125 C 17.972656 -21.378906 18.359375 -20.5625 18.984375 -20 C 19.609375 -19.4375 20.347656 -19.019531 21.203125 -18.75 C 22.054688 -18.488281 22.960938 -18.375 23.921875 -18.40625 C 24.878906 -18.4375 25.757812 -18.503906 26.5625 -18.609375 C 28.25 -18.835938 30.09375 -19.257812 32.09375 -19.875 C 34.101562 -20.5 36.128906 -21.238281 38.171875 -22.09375 C 40.210938 -22.957031 42.15625 -23.90625 44 -24.9375 C 45.851562 -25.976562 47.46875 -27.003906 48.84375 -28.015625 C 50.257812 -29.097656 51.429688 -30.25 52.359375 -31.46875 C 53.296875 -32.695312 54.035156 -34.140625 54.578125 -35.796875 C 55.878906 -39.804688 56.707031 -43.992188 57.0625 -48.359375 C 57.425781 -52.722656 57.738281 -57.015625 58 -61.234375 C 58.132812 -64.273438 58.191406 -67.265625 58.171875 -70.203125 C 58.148438 -73.140625 58.101562 -76.113281 58.03125 -79.125 C 58.050781 -80.5 58.046875 -81.921875 58.015625 -83.390625 C 57.992188 -84.859375 58.0625 -86.289062 58.21875 -87.6875 C 58.425781 -89.625 59.207031 -91.179688 60.5625 -92.359375 C 61.914062 -93.546875 63.535156 -94.265625 65.421875 -94.515625 C 68.171875 -94.890625 70.613281 -94.242188 72.75 -92.578125 C 74.894531 -90.921875 76.160156 -88.707031 76.546875 -85.9375 Z M 76.546875 -85.9375 "/></g></g></g><g fill="#a9f285" fill-opacity="1"><g transform="translate(189.184543, 99.471766)"><g><path d="M 76.28125 -78.84375 C 76.320312 -77.625 76.175781 -76.414062 75.84375 -75.21875 C 75.519531 -74.03125 75.015625 -72.960938 74.328125 -72.015625 C 73.648438 -71.078125 72.804688 -70.320312 71.796875 -69.75 C 70.796875 -69.175781 69.625 -68.863281 68.28125 -68.8125 C 66.445312 -68.757812 64.609375 -68.851562 62.765625 -69.09375 C 60.921875 -69.332031 59.082031 -69.421875 57.25 -69.359375 C 56.976562 -69.347656 56.722656 -69.320312 56.484375 -69.28125 C 56.242188 -69.25 55.988281 -69.226562 55.71875 -69.21875 C 53.757812 -69.019531 51.585938 -68.878906 49.203125 -68.796875 C 46.828125 -68.722656 44.4375 -68.613281 42.03125 -68.46875 C 39.625 -68.320312 37.289062 -68.070312 35.03125 -67.71875 C 32.769531 -67.363281 30.734375 -66.816406 28.921875 -66.078125 C 28.453125 -63.421875 27.816406 -60.800781 27.015625 -58.21875 C 26.222656 -55.644531 25.804688 -52.96875 25.765625 -50.1875 C 30.859375 -50.488281 35.921875 -51.007812 40.953125 -51.75 C 45.984375 -52.5 51.03125 -53.394531 56.09375 -54.4375 C 57.113281 -54.675781 58.097656 -54.8125 59.046875 -54.84375 C 61.628906 -54.925781 63.765625 -54.125 65.453125 -52.4375 C 67.140625 -50.757812 68.023438 -48.632812 68.109375 -46.0625 C 68.160156 -44.375 67.90625 -42.820312 67.34375 -41.40625 C 66.78125 -40 65.734375 -38.863281 64.203125 -38 C 62.984375 -37.34375 61.664062 -36.890625 60.25 -36.640625 C 58.84375 -36.390625 57.457031 -36.171875 56.09375 -35.984375 C 50.34375 -35.191406 44.578125 -34.34375 38.796875 -33.4375 C 33.023438 -32.539062 27.421875 -31.046875 21.984375 -28.953125 C 21.273438 -27.441406 20.664062 -25.640625 20.15625 -23.546875 C 19.644531 -21.453125 19.285156 -19.550781 19.078125 -17.84375 C 22.953125 -18.039062 26.78125 -18.441406 30.5625 -19.046875 C 34.351562 -19.648438 38.140625 -20.25 41.921875 -20.84375 C 44.828125 -21.28125 47.726562 -21.765625 50.625 -22.296875 C 53.53125 -22.835938 56.476562 -23.160156 59.46875 -23.265625 C 60.695312 -23.304688 61.878906 -23.085938 63.015625 -22.609375 C 64.148438 -22.140625 65.15625 -21.492188 66.03125 -20.671875 C 66.914062 -19.847656 67.613281 -18.882812 68.125 -17.78125 C 68.632812 -16.6875 68.910156 -15.523438 68.953125 -14.296875 C 69.023438 -11.992188 68.382812 -10.207031 67.03125 -8.9375 C 65.6875 -7.664062 63.96875 -6.828125 61.875 -6.421875 C 58.09375 -5.691406 54.300781 -5.109375 50.5 -4.671875 C 46.707031 -4.242188 42.890625 -3.691406 39.046875 -3.015625 C 36.671875 -2.597656 34.359375 -2.0625 32.109375 -1.40625 C 29.859375 -0.75 27.585938 -0.113281 25.296875 0.5 C 23.472656 1.03125 21.398438 1.617188 19.078125 2.265625 C 16.753906 2.921875 14.644531 3.28125 12.75 3.34375 C 11.050781 3.40625 9.410156 3.085938 7.828125 2.390625 C 6.242188 1.703125 4.851562 0.765625 3.65625 -0.421875 C 2.457031 -1.609375 1.472656 -2.988281 0.703125 -4.5625 C -0.0546875 -6.132812 -0.460938 -7.769531 -0.515625 -9.46875 C -0.546875 -10.488281 -0.320312 -11.851562 0.15625 -13.5625 C 0.644531 -15.269531 1.21875 -17.050781 1.875 -18.90625 C 2.53125 -20.757812 3.164062 -22.582031 3.78125 -24.375 C 4.40625 -26.164062 4.867188 -27.679688 5.171875 -28.921875 C 5.941406 -32.347656 6.570312 -35.78125 7.0625 -39.21875 C 7.5625 -42.65625 8.0625 -46.113281 8.5625 -49.59375 C 9.0625 -53.082031 9.59375 -56.554688 10.15625 -60.015625 C 10.726562 -63.472656 11.460938 -66.914062 12.359375 -70.34375 C 12.003906 -71.070312 11.742188 -71.851562 11.578125 -72.6875 C 11.410156 -73.53125 11.316406 -74.363281 11.296875 -75.1875 C 11.222656 -77.15625 11.519531 -78.8125 12.1875 -80.15625 C 12.851562 -81.5 13.765625 -82.582031 14.921875 -83.40625 C 16.085938 -84.226562 17.445312 -84.832031 19 -85.21875 C 20.550781 -85.613281 22.210938 -85.835938 23.984375 -85.890625 C 25.953125 -85.960938 27.921875 -85.925781 29.890625 -85.78125 C 31.867188 -85.644531 33.84375 -85.609375 35.8125 -85.671875 C 40.144531 -85.816406 44.425781 -86.226562 48.65625 -86.90625 C 52.882812 -87.59375 57.175781 -88.007812 61.53125 -88.15625 C 62.957031 -88.195312 64.519531 -88.078125 66.21875 -87.796875 C 67.925781 -87.515625 69.519531 -87.003906 71 -86.265625 C 72.488281 -85.535156 73.726562 -84.554688 74.71875 -83.328125 C 75.707031 -82.109375 76.226562 -80.613281 76.28125 -78.84375 Z M 76.28125 -78.84375 "/></g></g></g><g fill="#a9f285" fill-opacity="1"><g transform="translate(257.424459, 96.379034)"><g><path d="M 86.734375 -26.40625 C 86.628906 -24.988281 86.398438 -23.539062 86.046875 -22.0625 C 85.703125 -20.582031 85.28125 -19.1875 84.78125 -17.875 C 83.757812 -15.15625 82.234375 -12.710938 80.203125 -10.546875 C 78.171875 -8.378906 75.796875 -6.441406 73.078125 -4.734375 C 70.359375 -3.035156 67.441406 -1.582031 64.328125 -0.375 C 61.210938 0.832031 58.0625 1.789062 54.875 2.5 C 51.6875 3.21875 48.535156 3.703125 45.421875 3.953125 C 42.304688 4.203125 39.460938 4.234375 36.890625 4.046875 C 35.265625 3.929688 33.359375 3.65625 31.171875 3.21875 C 28.992188 2.789062 26.753906 2.21875 24.453125 1.5 C 22.148438 0.78125 19.882812 -0.117188 17.65625 -1.203125 C 15.425781 -2.285156 13.441406 -3.519531 11.703125 -4.90625 C 9.972656 -6.300781 8.609375 -7.867188 7.609375 -9.609375 C 6.609375 -11.347656 6.1875 -13.269531 6.34375 -15.375 C 6.40625 -16.25 6.671875 -17.128906 7.140625 -18.015625 C 7.617188 -18.898438 8.207031 -19.691406 8.90625 -20.390625 C 9.613281 -21.085938 10.40625 -21.640625 11.28125 -22.046875 C 12.15625 -22.460938 13.066406 -22.632812 14.015625 -22.5625 C 15.171875 -22.476562 16.238281 -22.175781 17.21875 -21.65625 C 18.195312 -21.144531 19.144531 -20.582031 20.0625 -19.96875 C 21.613281 -18.96875 23.0625 -18.128906 24.40625 -17.453125 C 25.757812 -16.785156 27.101562 -16.25 28.4375 -15.84375 C 29.769531 -15.4375 31.191406 -15.125 32.703125 -14.90625 C 34.222656 -14.6875 35.898438 -14.507812 37.734375 -14.375 C 38.734375 -14.300781 40.132812 -14.265625 41.9375 -14.265625 C 43.75 -14.273438 45.710938 -14.335938 47.828125 -14.453125 C 49.953125 -14.578125 52.117188 -14.8125 54.328125 -15.15625 C 56.535156 -15.5 58.546875 -15.992188 60.359375 -16.640625 C 62.179688 -17.296875 63.691406 -18.09375 64.890625 -19.03125 C 66.085938 -19.96875 66.738281 -21.144531 66.84375 -22.5625 C 66.96875 -24.257812 66.484375 -25.601562 65.390625 -26.59375 C 64.304688 -27.59375 62.96875 -28.375 61.375 -28.9375 C 59.78125 -29.5 58.125 -29.890625 56.40625 -30.109375 C 54.6875 -30.335938 53.253906 -30.535156 52.109375 -30.703125 C 50.890625 -30.847656 49.382812 -31.019531 47.59375 -31.21875 C 45.8125 -31.425781 44.007812 -31.628906 42.1875 -31.828125 C 40.363281 -32.023438 38.585938 -32.207031 36.859375 -32.375 C 35.140625 -32.539062 33.703125 -32.664062 32.546875 -32.75 C 29.898438 -32.945312 27.289062 -33.410156 24.71875 -34.140625 C 22.15625 -34.867188 19.90625 -35.953125 17.96875 -37.390625 C 16.03125 -38.828125 14.515625 -40.675781 13.421875 -42.9375 C 12.335938 -45.195312 11.914062 -47.953125 12.15625 -51.203125 C 12.28125 -52.972656 12.707031 -54.679688 13.4375 -56.328125 C 14.164062 -57.972656 15.125 -59.429688 16.3125 -60.703125 C 19.132812 -63.890625 22.367188 -66.710938 26.015625 -69.171875 C 29.671875 -71.640625 33.53125 -73.65625 37.59375 -75.21875 C 41.65625 -76.789062 45.859375 -77.929688 50.203125 -78.640625 C 54.554688 -79.347656 58.867188 -79.546875 63.140625 -79.234375 C 64.628906 -79.117188 66.316406 -78.9375 68.203125 -78.6875 C 70.085938 -78.445312 71.96875 -78.109375 73.84375 -77.671875 C 75.71875 -77.234375 77.53125 -76.640625 79.28125 -75.890625 C 81.03125 -75.140625 82.578125 -74.222656 83.921875 -73.140625 C 85.273438 -72.054688 86.320312 -70.734375 87.0625 -69.171875 C 87.800781 -67.617188 88.097656 -65.796875 87.953125 -63.703125 C 87.816406 -61.941406 87.148438 -60.390625 85.953125 -59.046875 C 84.765625 -57.703125 83.191406 -57.101562 81.234375 -57.25 C 79.671875 -57.363281 78.226562 -57.691406 76.90625 -58.234375 C 75.582031 -58.773438 74.1875 -59.238281 72.71875 -59.625 C 69.375 -60.476562 65.941406 -61.035156 62.421875 -61.296875 C 58.285156 -61.597656 54.15625 -61.488281 50.03125 -60.96875 C 45.914062 -60.457031 42.039062 -59.148438 38.40625 -57.046875 C 37.976562 -56.804688 37.425781 -56.46875 36.75 -56.03125 C 36.082031 -55.601562 35.421875 -55.140625 34.765625 -54.640625 C 34.117188 -54.140625 33.539062 -53.65625 33.03125 -53.1875 C 32.519531 -52.71875 32.21875 -52.351562 32.125 -52.09375 C 32.800781 -51.976562 33.625 -51.832031 34.59375 -51.65625 C 35.5625 -51.476562 36.519531 -51.316406 37.46875 -51.171875 C 38.414062 -51.035156 39.320312 -50.898438 40.1875 -50.765625 C 41.0625 -50.640625 41.738281 -50.5625 42.21875 -50.53125 C 47.570312 -50.132812 53.050781 -49.390625 58.65625 -48.296875 C 64.269531 -47.203125 69.507812 -45.492188 74.375 -43.171875 C 76.132812 -42.285156 77.8125 -41.320312 79.40625 -40.28125 C 81.007812 -39.238281 82.375 -38.0625 83.5 -36.75 C 84.632812 -35.445312 85.492188 -33.957031 86.078125 -32.28125 C 86.671875 -30.601562 86.890625 -28.644531 86.734375 -26.40625 Z M 86.734375 -26.40625 "/></g></g></g><g fill="#a9f285" fill-opacity="1"><g transform="translate(338.229498, 101.764392)"><g><path d="M 89.1875 -16.265625 C 88.925781 -14.859375 88.535156 -13.441406 88.015625 -12.015625 C 87.503906 -10.597656 86.921875 -9.265625 86.265625 -8.015625 C 84.941406 -5.421875 83.144531 -3.164062 80.875 -1.25 C 78.601562 0.664062 76.019531 2.3125 73.125 3.6875 C 70.238281 5.070312 67.175781 6.179688 63.9375 7.015625 C 60.695312 7.847656 57.453125 8.4375 54.203125 8.78125 C 50.960938 9.132812 47.78125 9.253906 44.65625 9.140625 C 41.53125 9.023438 38.703125 8.726562 36.171875 8.25 C 34.578125 7.945312 32.71875 7.453125 30.59375 6.765625 C 28.476562 6.085938 26.316406 5.257812 24.109375 4.28125 C 21.910156 3.3125 19.765625 2.160156 17.671875 0.828125 C 15.578125 -0.503906 13.75 -1.957031 12.1875 -3.53125 C 10.625 -5.101562 9.445312 -6.8125 8.65625 -8.65625 C 7.863281 -10.507812 7.671875 -12.472656 8.078125 -14.546875 C 8.234375 -15.410156 8.597656 -16.25 9.171875 -17.0625 C 9.742188 -17.882812 10.414062 -18.601562 11.1875 -19.21875 C 11.96875 -19.84375 12.816406 -20.304688 13.734375 -20.609375 C 14.660156 -20.910156 15.585938 -20.972656 16.515625 -20.796875 C 17.648438 -20.578125 18.675781 -20.15625 19.59375 -19.53125 C 20.507812 -18.914062 21.390625 -18.25 22.234375 -17.53125 C 23.660156 -16.351562 25 -15.351562 26.25 -14.53125 C 27.507812 -13.707031 28.78125 -13.015625 30.0625 -12.453125 C 31.34375 -11.898438 32.722656 -11.429688 34.203125 -11.046875 C 35.691406 -10.660156 37.332031 -10.296875 39.125 -9.953125 C 40.125 -9.765625 41.519531 -9.566406 43.3125 -9.359375 C 45.113281 -9.148438 47.070312 -8.984375 49.1875 -8.859375 C 51.300781 -8.734375 53.472656 -8.710938 55.703125 -8.796875 C 57.941406 -8.890625 60 -9.15625 61.875 -9.59375 C 63.757812 -10.03125 65.347656 -10.644531 66.640625 -11.4375 C 67.929688 -12.226562 68.710938 -13.328125 68.984375 -14.734375 C 69.296875 -16.398438 68.96875 -17.789062 68 -18.90625 C 67.039062 -20.03125 65.800781 -20.957031 64.28125 -21.6875 C 62.769531 -22.425781 61.175781 -23.007812 59.5 -23.4375 C 57.820312 -23.863281 56.421875 -24.21875 55.296875 -24.5 C 54.097656 -24.800781 52.625 -25.148438 50.875 -25.546875 C 49.125 -25.953125 47.351562 -26.359375 45.5625 -26.765625 C 43.769531 -27.171875 42.023438 -27.554688 40.328125 -27.921875 C 38.628906 -28.285156 37.210938 -28.570312 36.078125 -28.78125 C 33.472656 -29.28125 30.9375 -30.039062 28.46875 -31.0625 C 26.007812 -32.082031 23.898438 -33.421875 22.140625 -35.078125 C 20.378906 -36.734375 19.085938 -38.742188 18.265625 -41.109375 C 17.453125 -43.484375 17.347656 -46.269531 17.953125 -49.46875 C 18.285156 -51.207031 18.90625 -52.851562 19.8125 -54.40625 C 20.726562 -55.957031 21.851562 -57.296875 23.1875 -58.421875 C 26.351562 -61.273438 29.890625 -63.710938 33.796875 -65.734375 C 37.710938 -67.753906 41.78125 -69.304688 46 -70.390625 C 50.21875 -71.484375 54.523438 -72.128906 58.921875 -72.328125 C 63.316406 -72.535156 67.617188 -72.238281 71.828125 -71.4375 C 73.296875 -71.15625 74.953125 -70.785156 76.796875 -70.328125 C 78.640625 -69.867188 80.46875 -69.3125 82.28125 -68.65625 C 84.09375 -68.007812 85.820312 -67.210938 87.46875 -66.265625 C 89.125 -65.328125 90.5625 -64.238281 91.78125 -63 C 93 -61.769531 93.882812 -60.34375 94.4375 -58.71875 C 95 -57.09375 95.082031 -55.25 94.6875 -53.1875 C 94.351562 -51.457031 93.515625 -49.988281 92.171875 -48.78125 C 90.835938 -47.582031 89.207031 -47.164062 87.28125 -47.53125 C 85.738281 -47.832031 84.34375 -48.328125 83.09375 -49.015625 C 81.84375 -49.703125 80.507812 -50.316406 79.09375 -50.859375 C 75.863281 -52.085938 72.515625 -53.035156 69.046875 -53.703125 C 64.972656 -54.484375 60.859375 -54.851562 56.703125 -54.8125 C 52.554688 -54.78125 48.554688 -53.925781 44.703125 -52.25 C 44.253906 -52.0625 43.664062 -51.789062 42.9375 -51.4375 C 42.21875 -51.082031 41.507812 -50.695312 40.8125 -50.28125 C 40.113281 -49.863281 39.484375 -49.445312 38.921875 -49.03125 C 38.359375 -48.625 38.015625 -48.289062 37.890625 -48.03125 C 38.546875 -47.84375 39.347656 -47.609375 40.296875 -47.328125 C 41.242188 -47.046875 42.175781 -46.78125 43.09375 -46.53125 C 44.019531 -46.289062 44.910156 -46.050781 45.765625 -45.8125 C 46.617188 -45.582031 47.28125 -45.421875 47.75 -45.328125 C 53.019531 -44.328125 58.375 -42.960938 63.8125 -41.234375 C 69.257812 -39.503906 74.265625 -37.203125 78.828125 -34.328125 C 80.484375 -33.242188 82.046875 -32.09375 83.515625 -30.875 C 84.984375 -29.664062 86.203125 -28.34375 87.171875 -26.90625 C 88.140625 -25.476562 88.820312 -23.894531 89.21875 -22.15625 C 89.625 -20.425781 89.613281 -18.460938 89.1875 -16.265625 Z M 89.1875 -16.265625 "/></g></g></g><g fill="#a9f285" fill-opacity="1"><g transform="translate(418.348349, 117.486261)"><g><path d="M 67.6875 -64.765625 C 67.269531 -63.328125 66.25 -61.359375 64.625 -58.859375 C 63 -56.359375 61.15625 -53.742188 59.09375 -51.015625 C 57.039062 -48.285156 55.035156 -45.660156 53.078125 -43.140625 C 51.128906 -40.628906 49.628906 -38.644531 48.578125 -37.1875 C 47.066406 -35.132812 45.648438 -33.039062 44.328125 -30.90625 C 43.015625 -28.78125 41.550781 -26.75 39.9375 -24.8125 C 39.289062 -24.007812 38.585938 -23.222656 37.828125 -22.453125 C 37.078125 -21.679688 36.289062 -21.023438 35.46875 -20.484375 C 34.644531 -19.941406 33.75 -19.578125 32.78125 -19.390625 C 31.8125 -19.203125 30.738281 -19.28125 29.5625 -19.625 C 28.445312 -19.9375 27.425781 -20.457031 26.5 -21.1875 C 25.582031 -21.914062 24.804688 -22.773438 24.171875 -23.765625 C 23.546875 -24.753906 23.128906 -25.804688 22.921875 -26.921875 C 22.710938 -28.046875 22.773438 -29.191406 23.109375 -30.359375 C 23.335938 -31.148438 23.769531 -32 24.40625 -32.90625 C 25.050781 -33.8125 25.765625 -34.71875 26.546875 -35.625 C 27.335938 -36.53125 28.125 -37.421875 28.90625 -38.296875 C 29.6875 -39.179688 30.359375 -39.957031 30.921875 -40.625 C 32.929688 -43.226562 34.832031 -45.9375 36.625 -48.75 C 38.425781 -51.5625 40.273438 -54.316406 42.171875 -57.015625 C 43.046875 -58.316406 43.851562 -59.460938 44.59375 -60.453125 C 45.332031 -61.453125 45.984375 -62.453125 46.546875 -63.453125 C 47.117188 -64.453125 47.65625 -65.515625 48.15625 -66.640625 C 48.65625 -67.773438 49.128906 -69.125 49.578125 -70.6875 C 49.929688 -71.925781 50.515625 -72.925781 51.328125 -73.6875 C 52.148438 -74.445312 53.085938 -75.007812 54.140625 -75.375 C 55.203125 -75.738281 56.316406 -75.925781 57.484375 -75.9375 C 58.660156 -75.957031 59.804688 -75.8125 60.921875 -75.5 C 63.585938 -74.726562 65.585938 -73.460938 66.921875 -71.703125 C 68.253906 -69.953125 68.507812 -67.640625 67.6875 -64.765625 Z M 28.875 -0.53125 C 28.332031 1.363281 27.332031 3 25.875 4.375 C 24.414062 5.757812 22.734375 6.867188 20.828125 7.703125 C 18.929688 8.546875 16.945312 9.078125 14.875 9.296875 C 12.800781 9.515625 10.878906 9.367188 9.109375 8.859375 C 5.972656 7.960938 3.925781 6.300781 2.96875 3.875 C 2.007812 1.445312 1.945312 -1.234375 2.78125 -4.171875 C 3.3125 -6.003906 4.175781 -7.664062 5.375 -9.15625 C 6.582031 -10.65625 7.96875 -11.863281 9.53125 -12.78125 C 11.101562 -13.707031 12.8125 -14.3125 14.65625 -14.59375 C 16.507812 -14.882812 18.382812 -14.753906 20.28125 -14.203125 C 21.71875 -13.796875 23.066406 -13.144531 24.328125 -12.25 C 25.585938 -11.363281 26.628906 -10.3125 27.453125 -9.09375 C 28.273438 -7.875 28.828125 -6.535156 29.109375 -5.078125 C 29.398438 -3.617188 29.320312 -2.101562 28.875 -0.53125 Z M 28.875 -0.53125 "/></g></g></g><g fill="#4a1d0a" fill-opacity="1"><g transform="translate(21.942677, 122.485025)"><g><path d="M 81.140625 -63.15625 C 82.265625 -58.75 82.675781 -54.316406 82.375 -49.859375 C 82.082031 -45.398438 81.160156 -41.117188 79.609375 -37.015625 C 78.054688 -32.910156 75.910156 -29.066406 73.171875 -25.484375 C 70.441406 -21.910156 67.242188 -18.816406 63.578125 -16.203125 C 60.078125 -13.703125 56.316406 -11.535156 52.296875 -9.703125 C 48.285156 -7.867188 44.203125 -6.425781 40.046875 -5.375 C 36.554688 -4.476562 32.984375 -3.914062 29.328125 -3.6875 C 25.671875 -3.457031 22.15625 -3.71875 18.78125 -4.46875 C 15.40625 -5.21875 12.25 -6.53125 9.3125 -8.40625 C 6.375 -10.289062 3.910156 -12.941406 1.921875 -16.359375 C 0.523438 -18.804688 -0.734375 -21.359375 -1.859375 -24.015625 C -2.992188 -26.671875 -3.914062 -29.382812 -4.625 -32.15625 C -5.757812 -36.625 -6.242188 -40.945312 -6.078125 -45.125 C -5.921875 -49.300781 -5.238281 -53.347656 -4.03125 -57.265625 C -2.820312 -61.179688 -1.140625 -64.957031 1.015625 -68.59375 C 3.171875 -72.226562 5.707031 -75.75 8.625 -79.15625 C 12.875 -84.238281 17.632812 -88.320312 22.90625 -91.40625 C 28.1875 -94.5 34.015625 -96.863281 40.390625 -98.5 C 41.703125 -98.832031 43.25 -99.210938 45.03125 -99.640625 C 46.8125 -100.066406 48.703125 -100.410156 50.703125 -100.671875 C 52.703125 -100.929688 54.710938 -101.070312 56.734375 -101.09375 C 58.765625 -101.125 60.644531 -100.898438 62.375 -100.421875 C 64.113281 -99.953125 65.609375 -99.195312 66.859375 -98.15625 C 68.109375 -97.113281 68.972656 -95.640625 69.453125 -93.734375 C 70.046875 -91.429688 69.820312 -89.285156 68.78125 -87.296875 C 67.75 -85.316406 66.050781 -84.023438 63.6875 -83.421875 C 62.101562 -83.015625 60.503906 -82.742188 58.890625 -82.609375 C 57.273438 -82.472656 55.660156 -82.394531 54.046875 -82.375 C 52.441406 -82.351562 50.832031 -82.273438 49.21875 -82.140625 C 47.613281 -82.003906 46.019531 -81.738281 44.4375 -81.34375 C 42.207031 -80.769531 39.820312 -79.8125 37.28125 -78.46875 C 34.75 -77.125 32.269531 -75.566406 29.84375 -73.796875 C 27.425781 -72.023438 25.179688 -70.171875 23.109375 -68.234375 C 21.046875 -66.304688 19.375 -64.441406 18.09375 -62.640625 C 15.226562 -58.753906 13.253906 -54.46875 12.171875 -49.78125 C 11.085938 -45.09375 11.273438 -39.890625 12.734375 -34.171875 C 13.460938 -31.335938 14.664062 -29.03125 16.34375 -27.25 C 18.019531 -25.46875 19.972656 -24.125 22.203125 -23.21875 C 24.429688 -22.3125 26.847656 -21.820312 29.453125 -21.75 C 32.066406 -21.6875 34.628906 -21.972656 37.140625 -22.609375 C 39.109375 -23.117188 41.019531 -23.785156 42.875 -24.609375 C 44.738281 -25.429688 46.550781 -26.378906 48.3125 -27.453125 C 50.238281 -28.648438 52.316406 -30.164062 54.546875 -32 C 56.785156 -33.832031 58.773438 -35.859375 60.515625 -38.078125 C 62.265625 -40.304688 63.597656 -42.695312 64.515625 -45.25 C 65.441406 -47.8125 65.582031 -50.375 64.9375 -52.9375 C 64.894531 -53.070312 64.894531 -53.125 64.9375 -53.09375 C 64.976562 -53.0625 64.984375 -53.109375 64.953125 -53.234375 C 64.910156 -53.378906 64.625 -53.382812 64.09375 -53.25 C 63.570312 -53.125 63.25 -53.039062 63.125 -53 C 60.03125 -52.21875 57.035156 -51.171875 54.140625 -49.859375 C 51.253906 -48.554688 48.4375 -47.101562 45.6875 -45.5 C 44.40625 -44.75 43.269531 -44.039062 42.28125 -43.375 C 41.300781 -42.707031 40.304688 -42.070312 39.296875 -41.46875 C 38.296875 -40.863281 37.257812 -40.316406 36.1875 -39.828125 C 35.125 -39.347656 33.875 -38.925781 32.4375 -38.5625 C 30 -37.9375 28 -38.210938 26.4375 -39.390625 C 24.875 -40.566406 23.796875 -42.304688 23.203125 -44.609375 C 22.648438 -46.785156 22.71875 -48.992188 23.40625 -51.234375 C 24.101562 -53.472656 25.363281 -55.28125 27.1875 -56.65625 C 27.957031 -57.207031 28.773438 -57.695312 29.640625 -58.125 C 30.515625 -58.5625 31.382812 -59.03125 32.25 -59.53125 C 33.90625 -60.4375 35.488281 -61.273438 37 -62.046875 C 38.519531 -62.828125 40.035156 -63.546875 41.546875 -64.203125 C 43.066406 -64.867188 44.601562 -65.503906 46.15625 -66.109375 C 47.71875 -66.722656 49.390625 -67.394531 51.171875 -68.125 C 53.390625 -69.050781 55.554688 -70.023438 57.671875 -71.046875 C 59.796875 -72.078125 62.007812 -72.890625 64.3125 -73.484375 C 68.65625 -74.585938 72.28125 -74.179688 75.1875 -72.265625 C 78.101562 -70.347656 80.085938 -67.3125 81.140625 -63.15625 Z M 81.140625 -63.15625 "/></g></g></g><g fill="#4a1d0a" fill-opacity="1"><g transform="translate(105.881375, 100.862359)"><g><path d="M 76.546875 -85.9375 C 76.734375 -84.53125 76.71875 -83.125 76.5 -81.71875 C 76.28125 -80.320312 76.023438 -78.921875 75.734375 -77.515625 C 74.835938 -72.515625 74.179688 -67.503906 73.765625 -62.484375 C 73.359375 -57.472656 72.875 -52.457031 72.3125 -47.4375 C 71.945312 -44.03125 71.738281 -40.609375 71.6875 -37.171875 C 71.644531 -33.742188 71.191406 -30.394531 70.328125 -27.125 C 69.691406 -24.78125 68.941406 -22.742188 68.078125 -21.015625 C 67.210938 -19.285156 66.164062 -17.753906 64.9375 -16.421875 C 63.71875 -15.097656 62.320312 -13.898438 60.75 -12.828125 C 59.1875 -11.753906 57.351562 -10.628906 55.25 -9.453125 C 51.238281 -7.191406 47.054688 -5.316406 42.703125 -3.828125 C 38.347656 -2.347656 33.847656 -1.296875 29.203125 -0.671875 C 25.910156 -0.222656 22.664062 -0.0195312 19.46875 -0.0625 C 16.28125 -0.113281 13.363281 -0.644531 10.71875 -1.65625 C 8.082031 -2.664062 5.835938 -4.3125 3.984375 -6.59375 C 2.140625 -8.882812 0.945312 -12.019531 0.40625 -16 C 0.113281 -18.144531 0.1875 -20.378906 0.625 -22.703125 C 1.53125 -28.097656 2.234375 -33.46875 2.734375 -38.8125 C 3.242188 -44.164062 3.71875 -49.546875 4.15625 -54.953125 C 4.300781 -56.953125 4.492188 -58.960938 4.734375 -60.984375 C 4.972656 -63.003906 5.125 -65.015625 5.1875 -67.015625 C 5.300781 -68.671875 5.21875 -70.300781 4.9375 -71.90625 C 4.65625 -73.519531 4.535156 -75.148438 4.578125 -76.796875 C 4.609375 -79.128906 5.160156 -81.125 6.234375 -82.78125 C 7.316406 -84.4375 9.109375 -85.429688 11.609375 -85.765625 C 12.867188 -85.941406 14.128906 -85.789062 15.390625 -85.3125 C 16.660156 -84.84375 17.820312 -84.160156 18.875 -83.265625 C 19.925781 -82.367188 20.820312 -81.320312 21.5625 -80.125 C 22.300781 -78.9375 22.753906 -77.734375 22.921875 -76.515625 C 23.078125 -75.367188 23.085938 -74.132812 22.953125 -72.8125 C 22.828125 -71.5 22.632812 -70.15625 22.375 -68.78125 C 22.113281 -67.40625 21.835938 -66.046875 21.546875 -64.703125 C 21.253906 -63.367188 21.007812 -62.132812 20.8125 -61 C 19.851562 -54.988281 19.210938 -48.960938 18.890625 -42.921875 C 18.578125 -36.878906 18.257812 -30.820312 17.9375 -24.75 C 17.90625 -24.394531 17.867188 -24.007812 17.828125 -23.59375 C 17.785156 -23.175781 17.785156 -22.796875 17.828125 -22.453125 C 17.972656 -21.378906 18.359375 -20.5625 18.984375 -20 C 19.609375 -19.4375 20.347656 -19.019531 21.203125 -18.75 C 22.054688 -18.488281 22.960938 -18.375 23.921875 -18.40625 C 24.878906 -18.4375 25.757812 -18.503906 26.5625 -18.609375 C 28.25 -18.835938 30.09375 -19.257812 32.09375 -19.875 C 34.101562 -20.5 36.128906 -21.238281 38.171875 -22.09375 C 40.210938 -22.957031 42.15625 -23.90625 44 -24.9375 C 45.851562 -25.976562 47.46875 -27.003906 48.84375 -28.015625 C 50.257812 -29.097656 51.429688 -30.25 52.359375 -31.46875 C 53.296875 -32.695312 54.035156 -34.140625 54.578125 -35.796875 C 55.878906 -39.804688 56.707031 -43.992188 57.0625 -48.359375 C 57.425781 -52.722656 57.738281 -57.015625 58 -61.234375 C 58.132812 -64.273438 58.191406 -67.265625 58.171875 -70.203125 C 58.148438 -73.140625 58.101562 -76.113281 58.03125 -79.125 C 58.050781 -80.5 58.046875 -81.921875 58.015625 -83.390625 C 57.992188 -84.859375 58.0625 -86.289062 58.21875 -87.6875 C 58.425781 -89.625 59.207031 -91.179688 60.5625 -92.359375 C 61.914062 -93.546875 63.535156 -94.265625 65.421875 -94.515625 C 68.171875 -94.890625 70.613281 -94.242188 72.75 -92.578125 C 74.894531 -90.921875 76.160156 -88.707031 76.546875 -85.9375 Z M 76.546875 -85.9375 "/></g></g></g><g fill="#4a1d0a" fill-opacity="1"><g transform="translate(180.179447, 90.466684)"><g><path d="M 76.28125 -78.84375 C 76.320312 -77.625 76.175781 -76.414062 75.84375 -75.21875 C 75.519531 -74.03125 75.015625 -72.960938 74.328125 -72.015625 C 73.648438 -71.078125 72.804688 -70.320312 71.796875 -69.75 C 70.796875 -69.175781 69.625 -68.863281 68.28125 -68.8125 C 66.445312 -68.757812 64.609375 -68.851562 62.765625 -69.09375 C 60.921875 -69.332031 59.082031 -69.421875 57.25 -69.359375 C 56.976562 -69.347656 56.722656 -69.320312 56.484375 -69.28125 C 56.242188 -69.25 55.988281 -69.226562 55.71875 -69.21875 C 53.757812 -69.019531 51.585938 -68.878906 49.203125 -68.796875 C 46.828125 -68.722656 44.4375 -68.613281 42.03125 -68.46875 C 39.625 -68.320312 37.289062 -68.070312 35.03125 -67.71875 C 32.769531 -67.363281 30.734375 -66.816406 28.921875 -66.078125 C 28.453125 -63.421875 27.816406 -60.800781 27.015625 -58.21875 C 26.222656 -55.644531 25.804688 -52.96875 25.765625 -50.1875 C 30.859375 -50.488281 35.921875 -51.007812 40.953125 -51.75 C 45.984375 -52.5 51.03125 -53.394531 56.09375 -54.4375 C 57.113281 -54.675781 58.097656 -54.8125 59.046875 -54.84375 C 61.628906 -54.925781 63.765625 -54.125 65.453125 -52.4375 C 67.140625 -50.757812 68.023438 -48.632812 68.109375 -46.0625 C 68.160156 -44.375 67.90625 -42.820312 67.34375 -41.40625 C 66.78125 -40 65.734375 -38.863281 64.203125 -38 C 62.984375 -37.34375 61.664062 -36.890625 60.25 -36.640625 C 58.84375 -36.390625 57.457031 -36.171875 56.09375 -35.984375 C 50.34375 -35.191406 44.578125 -34.34375 38.796875 -33.4375 C 33.023438 -32.539062 27.421875 -31.046875 21.984375 -28.953125 C 21.273438 -27.441406 20.664062 -25.640625 20.15625 -23.546875 C 19.644531 -21.453125 19.285156 -19.550781 19.078125 -17.84375 C 22.953125 -18.039062 26.78125 -18.441406 30.5625 -19.046875 C 34.351562 -19.648438 38.140625 -20.25 41.921875 -20.84375 C 44.828125 -21.28125 47.726562 -21.765625 50.625 -22.296875 C 53.53125 -22.835938 56.476562 -23.160156 59.46875 -23.265625 C 60.695312 -23.304688 61.878906 -23.085938 63.015625 -22.609375 C 64.148438 -22.140625 65.15625 -21.492188 66.03125 -20.671875 C 66.914062 -19.847656 67.613281 -18.882812 68.125 -17.78125 C 68.632812 -16.6875 68.910156 -15.523438 68.953125 -14.296875 C 69.023438 -11.992188 68.382812 -10.207031 67.03125 -8.9375 C 65.6875 -7.664062 63.96875 -6.828125 61.875 -6.421875 C 58.09375 -5.691406 54.300781 -5.109375 50.5 -4.671875 C 46.707031 -4.242188 42.890625 -3.691406 39.046875 -3.015625 C 36.671875 -2.597656 34.359375 -2.0625 32.109375 -1.40625 C 29.859375 -0.75 27.585938 -0.113281 25.296875 0.5 C 23.472656 1.03125 21.398438 1.617188 19.078125 2.265625 C 16.753906 2.921875 14.644531 3.28125 12.75 3.34375 C 11.050781 3.40625 9.410156 3.085938 7.828125 2.390625 C 6.242188 1.703125 4.851562 0.765625 3.65625 -0.421875 C 2.457031 -1.609375 1.472656 -2.988281 0.703125 -4.5625 C -0.0546875 -6.132812 -0.460938 -7.769531 -0.515625 -9.46875 C -0.546875 -10.488281 -0.320312 -11.851562 0.15625 -13.5625 C 0.644531 -15.269531 1.21875 -17.050781 1.875 -18.90625 C 2.53125 -20.757812 3.164062 -22.582031 3.78125 -24.375 C 4.40625 -26.164062 4.867188 -27.679688 5.171875 -28.921875 C 5.941406 -32.347656 6.570312 -35.78125 7.0625 -39.21875 C 7.5625 -42.65625 8.0625 -46.113281 8.5625 -49.59375 C 9.0625 -53.082031 9.59375 -56.554688 10.15625 -60.015625 C 10.726562 -63.472656 11.460938 -66.914062 12.359375 -70.34375 C 12.003906 -71.070312 11.742188 -71.851562 11.578125 -72.6875 C 11.410156 -73.53125 11.316406 -74.363281 11.296875 -75.1875 C 11.222656 -77.15625 11.519531 -78.8125 12.1875 -80.15625 C 12.851562 -81.5 13.765625 -82.582031 14.921875 -83.40625 C 16.085938 -84.226562 17.445312 -84.832031 19 -85.21875 C 20.550781 -85.613281 22.210938 -85.835938 23.984375 -85.890625 C 25.953125 -85.960938 27.921875 -85.925781 29.890625 -85.78125 C 31.867188 -85.644531 33.84375 -85.609375 35.8125 -85.671875 C 40.144531 -85.816406 44.425781 -86.226562 48.65625 -86.90625 C 52.882812 -87.59375 57.175781 -88.007812 61.53125 -88.15625 C 62.957031 -88.195312 64.519531 -88.078125 66.21875 -87.796875 C 67.925781 -87.515625 69.519531 -87.003906 71 -86.265625 C 72.488281 -85.535156 73.726562 -84.554688 74.71875 -83.328125 C 75.707031 -82.109375 76.226562 -80.613281 76.28125 -78.84375 Z M 76.28125 -78.84375 "/></g></g></g><g fill="#4a1d0a" fill-opacity="1"><g transform="translate(248.41939, 87.373937)"><g><path d="M 86.734375 -26.40625 C 86.628906 -24.988281 86.398438 -23.539062 86.046875 -22.0625 C 85.703125 -20.582031 85.28125 -19.1875 84.78125 -17.875 C 83.757812 -15.15625 82.234375 -12.710938 80.203125 -10.546875 C 78.171875 -8.378906 75.796875 -6.441406 73.078125 -4.734375 C 70.359375 -3.035156 67.441406 -1.582031 64.328125 -0.375 C 61.210938 0.832031 58.0625 1.789062 54.875 2.5 C 51.6875 3.21875 48.535156 3.703125 45.421875 3.953125 C 42.304688 4.203125 39.460938 4.234375 36.890625 4.046875 C 35.265625 3.929688 33.359375 3.65625 31.171875 3.21875 C 28.992188 2.789062 26.753906 2.21875 24.453125 1.5 C 22.148438 0.78125 19.882812 -0.117188 17.65625 -1.203125 C 15.425781 -2.285156 13.441406 -3.519531 11.703125 -4.90625 C 9.972656 -6.300781 8.609375 -7.867188 7.609375 -9.609375 C 6.609375 -11.347656 6.1875 -13.269531 6.34375 -15.375 C 6.40625 -16.25 6.671875 -17.128906 7.140625 -18.015625 C 7.617188 -18.898438 8.207031 -19.691406 8.90625 -20.390625 C 9.613281 -21.085938 10.40625 -21.640625 11.28125 -22.046875 C 12.15625 -22.460938 13.066406 -22.632812 14.015625 -22.5625 C 15.171875 -22.476562 16.238281 -22.175781 17.21875 -21.65625 C 18.195312 -21.144531 19.144531 -20.582031 20.0625 -19.96875 C 21.613281 -18.96875 23.0625 -18.128906 24.40625 -17.453125 C 25.757812 -16.785156 27.101562 -16.25 28.4375 -15.84375 C 29.769531 -15.4375 31.191406 -15.125 32.703125 -14.90625 C 34.222656 -14.6875 35.898438 -14.507812 37.734375 -14.375 C 38.734375 -14.300781 40.132812 -14.265625 41.9375 -14.265625 C 43.75 -14.273438 45.710938 -14.335938 47.828125 -14.453125 C 49.953125 -14.578125 52.117188 -14.8125 54.328125 -15.15625 C 56.535156 -15.5 58.546875 -15.992188 60.359375 -16.640625 C 62.179688 -17.296875 63.691406 -18.09375 64.890625 -19.03125 C 66.085938 -19.96875 66.738281 -21.144531 66.84375 -22.5625 C 66.96875 -24.257812 66.484375 -25.601562 65.390625 -26.59375 C 64.304688 -27.59375 62.96875 -28.375 61.375 -28.9375 C 59.78125 -29.5 58.125 -29.890625 56.40625 -30.109375 C 54.6875 -30.335938 53.253906 -30.535156 52.109375 -30.703125 C 50.890625 -30.847656 49.382812 -31.019531 47.59375 -31.21875 C 45.8125 -31.425781 44.007812 -31.628906 42.1875 -31.828125 C 40.363281 -32.023438 38.585938 -32.207031 36.859375 -32.375 C 35.140625 -32.539062 33.703125 -32.664062 32.546875 -32.75 C 29.898438 -32.945312 27.289062 -33.410156 24.71875 -34.140625 C 22.15625 -34.867188 19.90625 -35.953125 17.96875 -37.390625 C 16.03125 -38.828125 14.515625 -40.675781 13.421875 -42.9375 C 12.335938 -45.195312 11.914062 -47.953125 12.15625 -51.203125 C 12.28125 -52.972656 12.707031 -54.679688 13.4375 -56.328125 C 14.164062 -57.972656 15.125 -59.429688 16.3125 -60.703125 C 19.132812 -63.890625 22.367188 -66.710938 26.015625 -69.171875 C 29.671875 -71.640625 33.53125 -73.65625 37.59375 -75.21875 C 41.65625 -76.789062 45.859375 -77.929688 50.203125 -78.640625 C 54.554688 -79.347656 58.867188 -79.546875 63.140625 -79.234375 C 64.628906 -79.117188 66.316406 -78.9375 68.203125 -78.6875 C 70.085938 -78.445312 71.96875 -78.109375 73.84375 -77.671875 C 75.71875 -77.234375 77.53125 -76.640625 79.28125 -75.890625 C 81.03125 -75.140625 82.578125 -74.222656 83.921875 -73.140625 C 85.273438 -72.054688 86.320312 -70.734375 87.0625 -69.171875 C 87.800781 -67.617188 88.097656 -65.796875 87.953125 -63.703125 C 87.816406 -61.941406 87.148438 -60.390625 85.953125 -59.046875 C 84.765625 -57.703125 83.191406 -57.101562 81.234375 -57.25 C 79.671875 -57.363281 78.226562 -57.691406 76.90625 -58.234375 C 75.582031 -58.773438 74.1875 -59.238281 72.71875 -59.625 C 69.375 -60.476562 65.941406 -61.035156 62.421875 -61.296875 C 58.285156 -61.597656 54.15625 -61.488281 50.03125 -60.96875 C 45.914062 -60.457031 42.039062 -59.148438 38.40625 -57.046875 C 37.976562 -56.804688 37.425781 -56.46875 36.75 -56.03125 C 36.082031 -55.601562 35.421875 -55.140625 34.765625 -54.640625 C 34.117188 -54.140625 33.539062 -53.65625 33.03125 -53.1875 C 32.519531 -52.71875 32.21875 -52.351562 32.125 -52.09375 C 32.800781 -51.976562 33.625 -51.832031 34.59375 -51.65625 C 35.5625 -51.476562 36.519531 -51.316406 37.46875 -51.171875 C 38.414062 -51.035156 39.320312 -50.898438 40.1875 -50.765625 C 41.0625 -50.640625 41.738281 -50.5625 42.21875 -50.53125 C 47.570312 -50.132812 53.050781 -49.390625 58.65625 -48.296875 C 64.269531 -47.203125 69.507812 -45.492188 74.375 -43.171875 C 76.132812 -42.285156 77.8125 -41.320312 79.40625 -40.28125 C 81.007812 -39.238281 82.375 -38.0625 83.5 -36.75 C 84.632812 -35.445312 85.492188 -33.957031 86.078125 -32.28125 C 86.671875 -30.601562 86.890625 -28.644531 86.734375 -26.40625 Z M 86.734375 -26.40625 "/></g></g></g><g fill="#4a1d0a" fill-opacity="1"><g transform="translate(329.224401, 92.759295)"><g><path d="M 89.1875 -16.265625 C 88.925781 -14.859375 88.535156 -13.441406 88.015625 -12.015625 C 87.503906 -10.597656 86.921875 -9.265625 86.265625 -8.015625 C 84.941406 -5.421875 83.144531 -3.164062 80.875 -1.25 C 78.601562 0.664062 76.019531 2.3125 73.125 3.6875 C 70.238281 5.070312 67.175781 6.179688 63.9375 7.015625 C 60.695312 7.847656 57.453125 8.4375 54.203125 8.78125 C 50.960938 9.132812 47.78125 9.253906 44.65625 9.140625 C 41.53125 9.023438 38.703125 8.726562 36.171875 8.25 C 34.578125 7.945312 32.71875 7.453125 30.59375 6.765625 C 28.476562 6.085938 26.316406 5.257812 24.109375 4.28125 C 21.910156 3.3125 19.765625 2.160156 17.671875 0.828125 C 15.578125 -0.503906 13.75 -1.957031 12.1875 -3.53125 C 10.625 -5.101562 9.445312 -6.8125 8.65625 -8.65625 C 7.863281 -10.507812 7.671875 -12.472656 8.078125 -14.546875 C 8.234375 -15.410156 8.597656 -16.25 9.171875 -17.0625 C 9.742188 -17.882812 10.414062 -18.601562 11.1875 -19.21875 C 11.96875 -19.84375 12.816406 -20.304688 13.734375 -20.609375 C 14.660156 -20.910156 15.585938 -20.972656 16.515625 -20.796875 C 17.648438 -20.578125 18.675781 -20.15625 19.59375 -19.53125 C 20.507812 -18.914062 21.390625 -18.25 22.234375 -17.53125 C 23.660156 -16.351562 25 -15.351562 26.25 -14.53125 C 27.507812 -13.707031 28.78125 -13.015625 30.0625 -12.453125 C 31.34375 -11.898438 32.722656 -11.429688 34.203125 -11.046875 C 35.691406 -10.660156 37.332031 -10.296875 39.125 -9.953125 C 40.125 -9.765625 41.519531 -9.566406 43.3125 -9.359375 C 45.113281 -9.148438 47.070312 -8.984375 49.1875 -8.859375 C 51.300781 -8.734375 53.472656 -8.710938 55.703125 -8.796875 C 57.941406 -8.890625 60 -9.15625 61.875 -9.59375 C 63.757812 -10.03125 65.347656 -10.644531 66.640625 -11.4375 C 67.929688 -12.226562 68.710938 -13.328125 68.984375 -14.734375 C 69.296875 -16.398438 68.96875 -17.789062 68 -18.90625 C 67.039062 -20.03125 65.800781 -20.957031 64.28125 -21.6875 C 62.769531 -22.425781 61.175781 -23.007812 59.5 -23.4375 C 57.820312 -23.863281 56.421875 -24.21875 55.296875 -24.5 C 54.097656 -24.800781 52.625 -25.148438 50.875 -25.546875 C 49.125 -25.953125 47.351562 -26.359375 45.5625 -26.765625 C 43.769531 -27.171875 42.023438 -27.554688 40.328125 -27.921875 C 38.628906 -28.285156 37.210938 -28.570312 36.078125 -28.78125 C 33.472656 -29.28125 30.9375 -30.039062 28.46875 -31.0625 C 26.007812 -32.082031 23.898438 -33.421875 22.140625 -35.078125 C 20.378906 -36.734375 19.085938 -38.742188 18.265625 -41.109375 C 17.453125 -43.484375 17.347656 -46.269531 17.953125 -49.46875 C 18.285156 -51.207031 18.90625 -52.851562 19.8125 -54.40625 C 20.726562 -55.957031 21.851562 -57.296875 23.1875 -58.421875 C 26.351562 -61.273438 29.890625 -63.710938 33.796875 -65.734375 C 37.710938 -67.753906 41.78125 -69.304688 46 -70.390625 C 50.21875 -71.484375 54.523438 -72.128906 58.921875 -72.328125 C 63.316406 -72.535156 67.617188 -72.238281 71.828125 -71.4375 C 73.296875 -71.15625 74.953125 -70.785156 76.796875 -70.328125 C 78.640625 -69.867188 80.46875 -69.3125 82.28125 -68.65625 C 84.09375 -68.007812 85.820312 -67.210938 87.46875 -66.265625 C 89.125 -65.328125 90.5625 -64.238281 91.78125 -63 C 93 -61.769531 93.882812 -60.34375 94.4375 -58.71875 C 95 -57.09375 95.082031 -55.25 94.6875 -53.1875 C 94.351562 -51.457031 93.515625 -49.988281 92.171875 -48.78125 C 90.835938 -47.582031 89.207031 -47.164062 87.28125 -47.53125 C 85.738281 -47.832031 84.34375 -48.328125 83.09375 -49.015625 C 81.84375 -49.703125 80.507812 -50.316406 79.09375 -50.859375 C 75.863281 -52.085938 72.515625 -53.035156 69.046875 -53.703125 C 64.972656 -54.484375 60.859375 -54.851562 56.703125 -54.8125 C 52.554688 -54.78125 48.554688 -53.925781 44.703125 -52.25 C 44.253906 -52.0625 43.664062 -51.789062 42.9375 -51.4375 C 42.21875 -51.082031 41.507812 -50.695312 40.8125 -50.28125 C 40.113281 -49.863281 39.484375 -49.445312 38.921875 -49.03125 C 38.359375 -48.625 38.015625 -48.289062 37.890625 -48.03125 C 38.546875 -47.84375 39.347656 -47.609375 40.296875 -47.328125 C 41.242188 -47.046875 42.175781 -46.78125 43.09375 -46.53125 C 44.019531 -46.289062 44.910156 -46.050781 45.765625 -45.8125 C 46.617188 -45.582031 47.28125 -45.421875 47.75 -45.328125 C 53.019531 -44.328125 58.375 -42.960938 63.8125 -41.234375 C 69.257812 -39.503906 74.265625 -37.203125 78.828125 -34.328125 C 80.484375 -33.242188 82.046875 -32.09375 83.515625 -30.875 C 84.984375 -29.664062 86.203125 -28.34375 87.171875 -26.90625 C 88.140625 -25.476562 88.820312 -23.894531 89.21875 -22.15625 C 89.625 -20.425781 89.613281 -18.460938 89.1875 -16.265625 Z M 89.1875 -16.265625 "/></g></g></g><g fill="#4a1d0a" fill-opacity="1"><g transform="translate(409.343286, 108.481164)"><g><path d="M 67.6875 -64.765625 C 67.269531 -63.328125 66.25 -61.359375 64.625 -58.859375 C 63 -56.359375 61.15625 -53.742188 59.09375 -51.015625 C 57.039062 -48.285156 55.035156 -45.660156 53.078125 -43.140625 C 51.128906 -40.628906 49.628906 -38.644531 48.578125 -37.1875 C 47.066406 -35.132812 45.648438 -33.039062 44.328125 -30.90625 C 43.015625 -28.78125 41.550781 -26.75 39.9375 -24.8125 C 39.289062 -24.007812 38.585938 -23.222656 37.828125 -22.453125 C 37.078125 -21.679688 36.289062 -21.023438 35.46875 -20.484375 C 34.644531 -19.941406 33.75 -19.578125 32.78125 -19.390625 C 31.8125 -19.203125 30.738281 -19.28125 29.5625 -19.625 C 28.445312 -19.9375 27.425781 -20.457031 26.5 -21.1875 C 25.582031 -21.914062 24.804688 -22.773438 24.171875 -23.765625 C 23.546875 -24.753906 23.128906 -25.804688 22.921875 -26.921875 C 22.710938 -28.046875 22.773438 -29.191406 23.109375 -30.359375 C 23.335938 -31.148438 23.769531 -32 24.40625 -32.90625 C 25.050781 -33.8125 25.765625 -34.71875 26.546875 -35.625 C 27.335938 -36.53125 28.125 -37.421875 28.90625 -38.296875 C 29.6875 -39.179688 30.359375 -39.957031 30.921875 -40.625 C 32.929688 -43.226562 34.832031 -45.9375 36.625 -48.75 C 38.425781 -51.5625 40.273438 -54.316406 42.171875 -57.015625 C 43.046875 -58.316406 43.851562 -59.460938 44.59375 -60.453125 C 45.332031 -61.453125 45.984375 -62.453125 46.546875 -63.453125 C 47.117188 -64.453125 47.65625 -65.515625 48.15625 -66.640625 C 48.65625 -67.773438 49.128906 -69.125 49.578125 -70.6875 C 49.929688 -71.925781 50.515625 -72.925781 51.328125 -73.6875 C 52.148438 -74.445312 53.085938 -75.007812 54.140625 -75.375 C 55.203125 -75.738281 56.316406 -75.925781 57.484375 -75.9375 C 58.660156 -75.957031 59.804688 -75.8125 60.921875 -75.5 C 63.585938 -74.726562 65.585938 -73.460938 66.921875 -71.703125 C 68.253906 -69.953125 68.507812 -67.640625 67.6875 -64.765625 Z M 28.875 -0.53125 C 28.332031 1.363281 27.332031 3 25.875 4.375 C 24.414062 5.757812 22.734375 6.867188 20.828125 7.703125 C 18.929688 8.546875 16.945312 9.078125 14.875 9.296875 C 12.800781 9.515625 10.878906 9.367188 9.109375 8.859375 C 5.972656 7.960938 3.925781 6.300781 2.96875 3.875 C 2.007812 1.445312 1.945312 -1.234375 2.78125 -4.171875 C 3.3125 -6.003906 4.175781 -7.664062 5.375 -9.15625 C 6.582031 -10.65625 7.96875 -11.863281 9.53125 -12.78125 C 11.101562 -13.707031 12.8125 -14.3125 14.65625 -14.59375 C 16.507812 -14.882812 18.382812 -14.753906 20.28125 -14.203125 C 21.71875 -13.796875 23.066406 -13.144531 24.328125 -12.25 C 25.585938 -11.363281 26.628906 -10.3125 27.453125 -9.09375 C 28.273438 -7.875 28.828125 -6.535156 29.109375 -5.078125 C 29.398438 -3.617188 29.320312 -2.101562 28.875 -0.53125 Z M 28.875 -0.53125 "/></g></g></g></g></g></g></g></g></svg>