<svg width="512" height="512" viewBox="0 0 512 512" fill="none" xmlns="http://www.w3.org/2000/svg">
<path d="M488 24V488H24V32L48 24L88 48L152 24H184L232 48L280 24H312L360 40L392 24L424 40L488 24Z" fill="#DB8638"/>
<path d="M488 152V488H24V144H48L72 168L112 152L136 168L184 136H200L232 168H256L272 152H288L304 136H376L400 152H488Z" fill="#C47220"/>
<path d="M488 320V488H24V312L48 288H80L160 320L184 296H208L224 312H288L328 296H368L440 320H488Z" fill="#B66514"/>
<path d="M64 400L88 376H104L120 392H144V416L104 448H88L64 400ZM184 384V352L200 336L224 360L184 384ZM216 408L232 456L296 432L280 400L216 408ZM304 368L328 392L352 376V368L312 352L304 368ZM408 416L456 392V440L432 448L408 416Z" fill="#A2590D"/>
<path d="M492.923 17.694C491.965 16.946 490.849 16.4262 489.659 16.1741C488.47 15.922 487.239 15.9442 486.06 16.239L424.93 31.52L395.578 16.844C394.467 16.2887 393.242 15.9996 392 15.9996C390.758 15.9996 389.533 16.2887 388.422 16.844L359.386 31.362L314.53 16.41C313.714 16.1384 312.86 15.9999 312 16H280C278.758 16.0001 277.533 16.2894 276.422 16.845L232 39.055L187.578 16.845C186.467 16.2894 185.242 16.0001 184 16H152C151.041 16.0001 150.089 16.1728 149.191 16.51L88.806 39.153L52.116 17.14C51.1264 16.5462 50.0201 16.1735 48.8729 16.0475C47.7257 15.9215 46.5649 16.0452 45.47 16.41L21.47 24.41C19.877 24.941 18.4916 25.9598 17.5098 27.322C16.5281 28.6843 15.9999 30.3209 16 32V488C16 490.122 16.8429 492.157 18.3431 493.657C19.8434 495.157 21.8783 496 24 496H488C490.122 496 492.157 495.157 493.657 493.657C495.157 492.157 496 490.122 496 488V24C496 22.7842 495.723 21.5843 495.19 20.4916C494.657 19.3989 493.881 18.4421 492.923 17.694ZM47.039 32.753L83.884 54.86C84.9165 55.4792 86.0755 55.8574 87.2745 55.9665C88.4735 56.0756 89.6817 55.9127 90.809 55.49L153.45 32H182.111L228.421 55.155C229.532 55.7105 230.757 55.9996 231.999 55.9996C233.242 55.9996 234.467 55.7105 235.578 55.155L281.888 32H310.702L357.47 47.59C359.483 48.2605 361.68 48.104 363.578 47.155L392 32.945L420.422 47.155C422.13 48.0085 424.087 48.2235 425.94 47.761L480 34.246V144H402.422L380.437 129.344C379.123 128.468 377.579 128 376 128H304C302.949 128 301.909 128.207 300.938 128.609C299.968 129.011 299.086 129.6 298.343 130.343L284.687 144H272C270.949 144 269.909 144.207 268.938 144.609C267.968 145.011 267.086 145.6 266.343 146.343L252.687 160H235.314L205.657 130.343C204.914 129.6 204.032 129.011 203.062 128.609C202.091 128.207 201.051 128 200 128H184C182.42 128 180.876 128.468 179.562 129.344L136 158.385L116.437 145.344C115.358 144.624 114.119 144.177 112.828 144.043C111.538 143.908 110.234 144.09 109.029 144.572L73.927 158.612L53.657 138.343C52.9141 137.6 52.0322 137.011 51.0615 136.609C50.0909 136.207 49.0506 136 48 136H32V37.766L47.039 32.753ZM480 160V312H441.298L370.53 288.41C369.714 288.138 368.86 288 368 288H328C326.983 288 325.975 288.194 325.03 288.572L286.458 304H227.312L213.656 290.343C212.156 288.843 210.121 288 208 288H184C182.949 288 181.909 288.207 180.938 288.609C179.968 289.011 179.086 289.6 178.343 290.343L158.073 310.613L82.971 280.573C82.0262 280.195 81.0178 280 80 280H48C46.9494 280 45.9091 280.207 44.9385 280.609C43.9678 281.011 43.0859 281.6 42.343 282.343L32 292.686V152H44.687L66.343 173.657C67.45 174.764 68.8576 175.522 70.3914 175.837C71.9251 176.151 73.5175 176.009 74.971 175.427L111.063 160.991L131.563 174.656C132.877 175.532 134.421 176 136 176C137.579 176 139.123 175.532 140.437 174.656L186.422 144H196.687L226.343 173.657C227.086 174.4 227.968 174.989 228.938 175.391C229.909 175.793 230.949 176 232 176H256C257.051 176 258.091 175.793 259.062 175.391C260.032 174.989 260.914 174.4 261.657 173.657L275.313 160H288C289.051 160 290.091 159.793 291.062 159.391C292.032 158.989 292.914 158.4 293.657 157.657L307.313 144H373.578L395.562 158.656C396.876 159.532 398.42 160 400 160H480ZM32 480V315.314L51.313 296H78.46L157.03 327.428C158.484 328.01 160.076 328.152 161.61 327.837C163.144 327.523 164.551 326.764 165.658 325.657L187.313 304H204.686L218.343 317.657C219.086 318.4 219.968 318.989 220.938 319.391C221.909 319.793 222.949 320 224 320H288C289.017 320 290.025 319.806 290.97 319.428L329.542 304H366.703L437.471 327.59C438.287 327.862 439.141 328 440.001 328H480.001V480H32Z" fill="black"/>
<path d="M144 384H123.313L109.657 370.343C108.914 369.6 108.032 369.011 107.062 368.609C106.091 368.207 105.051 368 104 368H88C86.9494 368 85.9091 368.207 84.9385 368.609C83.9678 369.011 83.0859 369.6 82.343 370.343L58.343 394.343C57.1557 395.53 56.3722 397.061 56.1033 398.719C55.8344 400.376 56.0939 402.076 56.845 403.578L80.845 451.578C81.5093 452.907 82.5306 454.024 83.7944 454.805C85.0581 455.586 86.5144 456 88 456H104C105.817 456 107.579 455.382 108.998 454.247L148.998 422.247C149.935 421.497 150.691 420.547 151.211 419.465C151.73 418.384 152 417.2 152 416V392C152 389.878 151.157 387.843 149.657 386.343C148.157 384.843 146.122 384 144 384ZM136 412.155L101.193 440H92.944L73.734 401.58L91.314 384H100.686L114.343 397.657C115.086 398.4 115.968 398.989 116.938 399.391C117.909 399.793 118.949 400 120 400H136V412.155ZM180.059 390.961C181.291 391.659 182.686 392.017 184.101 391.999C185.517 391.981 186.902 391.588 188.116 390.86L228.116 366.86C229.159 366.235 230.045 365.38 230.707 364.36C231.37 363.341 231.792 362.184 231.94 360.977C232.089 359.771 231.96 358.546 231.565 357.397C231.169 356.247 230.517 355.203 229.657 354.343L205.657 330.343C204.157 328.843 202.122 328 200 328C197.878 328 195.843 328.843 194.343 330.343L178.343 346.343C177.6 347.086 177.011 347.968 176.609 348.938C176.207 349.909 176 350.949 176 352V384C176 385.416 176.376 386.806 177.089 388.029C177.802 389.252 178.827 390.264 180.059 390.961ZM192 355.313L200 347.313L211.098 358.412L192 369.87V355.313ZM287.155 396.422C286.414 394.943 285.232 393.729 283.774 392.949C282.315 392.168 280.65 391.858 279.008 392.062L215.008 400.062C213.834 400.209 212.706 400.615 211.708 401.25C210.709 401.885 209.863 402.734 209.232 403.735C208.601 404.736 208.2 405.865 208.058 407.04C207.916 408.215 208.036 409.407 208.41 410.53L224.41 458.53C224.75 459.55 225.293 460.492 226.005 461.297C226.717 462.103 227.584 462.757 228.555 463.22C229.526 463.683 230.58 463.946 231.655 463.992C232.729 464.039 233.802 463.868 234.809 463.49L298.809 439.49C299.859 439.096 300.814 438.486 301.613 437.7C302.412 436.913 303.036 435.967 303.446 434.924C303.856 433.88 304.042 432.762 303.992 431.642C303.941 430.522 303.656 429.425 303.155 428.422L287.155 396.422ZM236.964 445.594L226.676 414.728L275.376 408.64L284.87 427.63L236.964 445.594ZM332.438 398.656L356.438 382.656C357.534 381.925 358.432 380.936 359.053 379.775C359.675 378.613 360 377.317 360 376V368C360 366.401 359.521 364.839 358.624 363.515C357.728 362.191 356.455 361.166 354.97 360.572L314.97 344.572C313.107 343.827 311.032 343.809 309.157 344.522C307.281 345.235 305.742 346.627 304.845 348.422L296.845 364.422C296.094 365.924 295.834 367.624 296.103 369.281C296.372 370.939 297.156 372.47 298.343 373.657L322.343 397.657C323.651 398.965 325.371 399.779 327.211 399.961C329.052 400.144 330.898 399.683 332.437 398.657L332.438 398.656ZM313.734 366.42L315.864 362.162L342.408 372.78L329.02 381.706L313.734 366.42ZM460.206 385.195C459.046 384.478 457.722 384.07 456.359 384.009C454.997 383.947 453.642 384.235 452.422 384.845L404.422 408.845C403.374 409.369 402.454 410.117 401.727 411.036C401 411.955 400.483 413.022 400.214 414.162C399.945 415.303 399.93 416.488 400.169 417.635C400.408 418.782 400.897 419.863 401.6 420.8L425.6 452.8C426.607 454.144 428.012 455.136 429.615 455.637C431.217 456.138 432.937 456.121 434.53 455.59L458.53 447.59C460.123 447.059 461.508 446.04 462.49 444.678C463.472 443.316 464 441.679 464 440V392C464 390.636 463.651 389.295 462.987 388.104C462.323 386.913 461.366 385.912 460.206 385.195ZM448 434.234L434.94 438.587L420.151 418.869L448 404.944V434.234ZM72 328H88V344H72V328ZM136 448H152V464H136V448ZM176 432H192V448H176V432ZM248 352H264V368H248V352ZM352 416H368V432H352V416ZM392 336H408V352H392V336ZM424 352H440V368H424V352ZM328 440H344V456H328V440ZM64 240H88V256H64V240ZM96 192H120V208H96V192ZM48 104H72V120H48V104ZM280 200H304V216H280V200ZM304 232H328V248H304V232ZM384 192H408V208H384V192ZM400 240H424V256H400V240ZM128 240H144V256H128V240ZM216 248H232V264H216V248ZM344 88H360V104H344V88ZM424 64H440V80H424V64ZM432 112H448V128H432V112ZM208 72H224V88H208V72ZM224 112H240V128H224V112ZM440 256H456V272H440V256ZM168 200H192V216H168V200ZM304 64H328V80H304V64ZM104.804 70.797H120.804V86.797H104.804V70.797Z" fill="black"/>
</svg>
