<svg width="100" height="112" viewBox="0 0 100 112" fill="none" xmlns="http://www.w3.org/2000/svg">
<path d="M0.0034005 32.0261V79.9773C0.0034005 82.8547 1.53892 85.5113 4.02905 86.9483L45.5562 110.922C48.0463 112.359 51.114 112.359 53.6075 110.922L95.1347 86.9483C97.6248 85.5113 99.1603 82.8513 99.1603 79.9773V32.0261C99.1603 29.1487 97.6248 26.4921 95.1347 25.0551L53.6041 1.07776C51.114 -0.359252 48.0463 -0.359252 45.5528 1.07776L4.02565 25.0517C1.53552 26.4887 0 29.1487 0 32.0227L0.0034005 32.0261Z" fill="black"/>
<path d="M72.7603 46.5963V55.2285C71.2486 55.0824 69.2918 54.7393 67.121 53.9444C64.2877 52.9048 62.1815 51.4882 60.7988 50.3875V67.8355L60.7649 67.7811C60.7887 68.1276 60.7988 68.4775 60.7988 68.8342C60.7988 77.5004 53.7497 84.553 45.0801 84.553C36.4105 84.553 29.3613 77.5004 29.3613 68.8342C29.3613 60.168 36.4105 53.1121 45.0801 53.1121C45.926 53.1121 46.7617 53.18 47.5736 53.3091V61.8157C46.7923 61.5371 45.9532 61.3842 45.0801 61.3842C40.9763 61.3842 37.6335 64.7236 37.6335 68.8308C37.6335 72.938 40.9763 76.2775 45.0801 76.2775C49.1839 76.2775 52.5267 72.9346 52.5267 68.8308C52.5267 68.678 52.5233 68.5217 52.5131 68.3688V34.4615H61.142C61.1725 35.1919 61.2031 35.9257 61.2337 36.6595C61.2914 38.0965 61.8044 39.4792 62.6945 40.6104C63.7442 41.9387 65.2865 43.4845 67.4607 44.7176C69.4922 45.8693 71.4049 46.3653 72.7569 46.5963H72.7603Z" fill="#FF004F"/>
<path d="M69.7955 39.5882V48.2205C68.2837 48.0744 66.3269 47.7313 64.1561 46.9363C61.3229 45.8968 59.2167 44.4802 57.834 43.3795V60.8274L57.8 60.7731C57.8238 61.1196 57.834 61.4695 57.834 61.8262C57.834 70.4924 50.7848 77.5449 42.1152 77.5449C33.4456 77.5449 26.3965 70.4924 26.3965 61.8262C26.3965 53.16 33.4456 46.104 42.1152 46.104C42.9611 46.104 43.7968 46.172 44.6088 46.3011V54.8076C43.8274 54.529 42.9883 54.3762 42.1152 54.3762C38.0114 54.3762 34.6686 57.7156 34.6686 61.8228C34.6686 65.93 38.0114 69.2694 42.1152 69.2694C46.219 69.2694 49.5619 65.9266 49.5619 61.8228C49.5619 61.6699 49.5619 61.5136 49.5483 61.3608V27.4535H58.1771C58.2077 28.1839 58.2383 28.9177 58.2688 29.6515C58.3266 31.0885 58.8395 32.4711 59.7296 33.6024C60.7793 34.9307 62.3217 36.4764 64.4959 37.7096C66.5274 38.8612 68.44 39.3572 69.7921 39.5882H69.7955Z" fill="#00F7EF"/>
<path d="M71.6812 43.3587V51.991C70.1695 51.8449 68.2127 51.5018 66.0419 50.7068C63.2087 49.6673 61.1024 48.2507 59.7198 47.15V64.5979L59.6858 64.5436C59.7095 64.8901 59.7198 65.24 59.7198 65.5967C59.7198 74.2629 52.6706 81.3154 44.001 81.3154C35.3314 81.3154 28.2822 74.2629 28.2822 65.5967C28.2822 56.9305 35.3314 49.8745 44.001 49.8745C44.8469 49.8745 45.6826 49.9425 46.4945 50.0716V58.5781C45.7132 58.2995 44.8741 58.1467 44.001 58.1467C39.8972 58.1467 36.5544 61.4861 36.5544 65.5933C36.5544 69.7005 39.8972 73.0399 44.001 73.0399C48.1048 73.0399 51.4476 69.6971 51.4476 65.5933C51.4476 65.4404 51.4442 65.2841 51.434 65.1313V31.224H60.0628C60.0934 31.9544 60.124 32.6882 60.1546 33.422C60.2123 34.859 60.7253 36.2416 61.6154 37.3729C62.6651 38.7012 64.2074 40.2469 66.3816 41.4801C68.4131 42.6317 70.3258 43.1277 71.6778 43.3587H71.6812Z" fill="white"/>
</svg>
