<svg width="512" height="512" viewBox="0 0 512 512" fill="none" xmlns="http://www.w3.org/2000/svg">
<path d="M478.747 240.972C478.747 206.193 457.597 176.354 427.458 163.615C432.954 153.003 435.816 141.224 435.805 129.273C435.805 87.924 402.285 54.403 360.935 54.403C349.154 54.403 338.014 57.132 328.098 61.98C319.287 30.436 290.357 7.28699 256.001 7.28699C221.645 7.28699 192.715 30.436 183.904 61.981C173.989 57.133 162.848 54.404 151.067 54.404C109.718 54.404 76.197 87.924 76.197 129.274C76.1855 141.225 79.0483 153.004 84.544 163.616C54.405 176.355 33.255 206.194 33.255 240.973C33.255 286.046 68.79 322.772 113.367 324.783C119.582 347.294 143.582 364.075 172.263 364.075C188.519 364.075 203.264 358.676 214.132 349.909C224.999 358.676 239.745 364.075 256.001 364.075C272.257 364.075 287.002 358.676 297.87 349.909C308.737 358.676 323.483 364.075 339.739 364.075C368.421 364.075 392.421 347.293 398.635 324.783C443.212 322.771 478.747 286.045 478.747 240.972Z" fill="#129B12"/>
<path d="M251.511 7.43499C250.592 7.48803 249.675 7.55838 248.759 7.64599C248.48 7.67299 248.202 7.70399 247.923 7.73399C246.943 7.83999 245.968 7.96199 244.999 8.10599C244.818 8.13299 244.636 8.15899 244.455 8.18699C243.302 8.36699 242.157 8.56699 241.022 8.79799L241.016 8.79899C260.67 12.796 279.072 26.485 290.73 43.74C298.986 55.959 313.092 63.002 327.804 62.002L328.098 61.982C319.288 30.436 290.358 7.28699 256.002 7.28699C254.798 7.28699 253.602 7.32199 252.411 7.37899C252.11 7.39299 251.811 7.41699 251.511 7.43499ZM427.457 163.615C432.953 153.003 435.816 141.224 435.804 129.273C435.804 87.924 402.284 54.403 360.934 54.403C355.803 54.403 350.793 54.922 345.953 55.907C380.118 62.851 405.832 93.058 405.832 129.273C405.843 141.224 402.981 153.003 397.485 163.615C427.624 176.354 448.774 206.193 448.774 240.972C448.774 286.045 413.239 322.771 368.663 324.781C363.569 343.231 346.524 357.825 324.75 362.493C329.676 363.547 334.7 364.077 339.738 364.074C368.419 364.074 392.42 347.292 398.634 324.782C443.211 322.772 478.745 286.046 478.745 240.973C478.747 206.193 457.598 176.355 427.457 163.615Z" fill="#097C09"/>
<path d="M202.392 337.507C195.64 348.959 167.657 361.765 157.28 362.493C158.422 362.738 159.579 362.952 160.745 363.142L161.026 363.189C162.209 363.377 163.403 363.538 164.609 363.667L164.702 363.676C166.063 363.817 167.427 363.92 168.794 363.983C169.943 364.038 171.098 364.075 172.264 364.075C187.09 364.075 200.649 359.574 211.166 352.133L213.01 350.792L203.619 335.384L202.392 337.507Z" fill="#009000"/>
<path d="M293.438 356.625L325.515 306.009C326.781 304.01 327.264 301.614 326.871 299.281C326.477 296.948 325.236 294.843 323.384 293.37C321.533 291.896 319.202 291.16 316.84 291.301C314.478 291.442 312.252 292.451 310.589 294.134L286.966 318.05C283.833 321.222 278.465 318.584 279.062 314.166L286.009 262.698C286.751 257.199 282.686 252.219 277.15 251.845L270.642 251.405C268.281 251.246 265.944 251.965 264.08 253.424C262.217 254.884 260.959 256.981 260.549 259.312L248.15 329.761C247.46 333.679 242.485 334.972 239.975 331.885L201.141 284.126C199.833 282.517 198.039 281.375 196.027 280.872C194.015 280.369 191.895 280.531 189.983 281.335L183.184 284.193C177.801 286.456 175.671 292.963 178.675 297.97L218.582 364.488C224.361 374.121 226.744 385.422 225.299 396.562C220.127 436.45 213.703 474.069 187.412 504.713H324.597C296.453 471.908 289.511 431.112 285.786 388.095C284.82 377.05 287.509 365.993 293.438 356.625Z" fill="#BF6101"/>
<path d="M325.513 306.009C326.779 304.01 327.262 301.614 326.869 299.281C326.475 296.948 325.234 294.843 323.382 293.37C321.531 291.896 319.2 291.16 316.838 291.301C314.476 291.442 312.25 292.451 310.587 294.134L300.037 304.814L286.964 318.05C283.831 321.222 278.464 318.584 279.06 314.166L286.007 262.698C286.731 257.338 282.882 252.484 277.56 251.895L258.027 373.303C257.008 378.163 256.707 383.146 257.133 388.094C260.858 431.112 267.8 471.908 295.944 504.712H324.593C296.449 471.907 289.507 431.111 285.782 388.094C284.818 377.049 287.507 365.993 293.436 356.624L325.513 306.009Z" fill="#9A4D01"/>
<path d="M241.753 66.065C220.748 66.065 202.666 78.532 194.469 96.464C185.713 90.2636 175.245 86.9398 164.516 86.953C135.81 86.953 112.539 110.224 112.539 138.93C112.529 148.057 114.934 157.024 119.511 164.921C94.5851 168.753 75.4971 190.292 75.4971 216.291C75.4971 244.997 98.7681 268.268 127.474 268.268C156.18 268.268 293.73 146.748 293.73 118.042C293.73 89.336 270.458 66.065 241.753 66.065Z" fill="#28A528"/>
<path d="M437.094 160.109C441.078 150.331 443.092 139.991 443.092 129.274C443.092 127.101 443.006 124.905 442.836 122.75C442.663 120.84 441.744 119.076 440.278 117.839C438.813 116.602 436.918 115.993 435.007 116.144C433.095 116.294 431.32 117.192 430.066 118.643C428.812 120.094 428.18 121.981 428.308 123.894C428.447 125.671 428.519 127.481 428.519 129.274C428.519 140.178 425.985 150.606 420.987 160.268C420.525 161.16 420.253 162.138 420.187 163.14C420.122 164.143 420.264 165.148 420.605 166.092C420.947 167.037 421.48 167.901 422.171 168.63C422.862 169.358 423.697 169.936 424.622 170.327C438.519 176.18 450.378 186.007 458.711 198.575C467.045 211.143 471.48 225.892 471.462 240.972C471.462 282.036 439.329 315.652 398.308 317.502C396.771 317.571 395.296 318.125 394.093 319.084C392.89 320.044 392.022 321.359 391.613 322.842C386.183 342.511 364.367 356.787 339.741 356.787C328.007 356.787 316.815 353.664 307.596 347.898L331.67 309.908C333.303 307.346 334.216 304.392 334.313 301.355C334.462 296.455 332.454 291.587 328.492 288.14C321.789 282.308 311.649 282.693 305.406 289.013L287.341 307.302L293.231 263.672C293.536 261.381 293.37 259.053 292.742 256.829C292.114 254.605 291.038 252.533 289.579 250.741C288.115 248.954 286.301 247.485 284.248 246.424C282.195 245.364 279.947 244.735 277.642 244.575L271.134 244.135C266.976 243.845 262.859 245.107 259.578 247.677C256.297 250.247 254.086 253.943 253.373 258.049L247.675 290.424L241.977 322.798L206.795 279.531C205.648 278.121 204.278 276.908 202.739 275.94L202.712 275.921C202.549 275.819 202.378 275.731 202.212 275.634C200.051 274.376 197.64 273.607 195.15 273.382C195.071 273.375 194.99 273.376 194.911 273.37C194.545 273.34 194.178 273.322 193.811 273.316C191.529 273.292 189.265 273.735 187.161 274.619L180.362 277.477C178.132 278.414 176.129 279.819 174.489 281.598C172.85 283.376 171.612 285.487 170.86 287.786C170.107 290.085 169.857 292.519 170.127 294.924C170.397 297.328 171.182 299.646 172.427 301.72L201.225 349.72C192.635 354.308 182.578 356.788 172.267 356.788C147.64 356.788 125.825 342.512 120.395 322.844C119.986 321.361 119.118 320.046 117.915 319.087C116.712 318.127 115.237 317.573 113.7 317.504C72.679 315.654 40.546 282.038 40.546 240.973C40.5276 225.893 44.9632 211.144 53.2962 198.576C61.6293 186.008 73.4886 176.181 87.386 170.328C88.3114 169.937 89.1459 169.359 89.8372 168.631C90.5284 167.902 91.0615 167.038 91.4029 166.093C91.7442 165.149 91.8865 164.144 91.8208 163.141C91.7551 162.139 91.4828 161.161 91.021 160.269C86.023 150.607 83.489 140.179 83.489 129.275C83.489 92.01 113.807 61.692 151.072 61.692C161.459 61.692 171.431 63.992 180.709 68.528C181.669 68.9977 182.721 69.2503 183.789 69.2681C184.858 69.2858 185.918 69.0682 186.893 68.6306C187.868 68.1931 188.735 67.5463 189.432 66.7362C190.129 65.9261 190.64 64.9725 190.927 63.943C199.045 34.876 225.807 14.575 256.006 14.575C286.205 14.575 312.967 34.876 321.085 63.943C321.373 64.9721 321.884 65.9254 322.581 66.7352C323.278 67.545 324.145 68.1916 325.12 68.6291C326.095 69.0666 327.154 69.2843 328.223 69.2668C329.291 69.2494 330.343 68.9971 331.303 68.528C340.581 63.992 350.553 61.692 360.94 61.692C385.851 61.692 408.67 75.331 420.491 97.288C421.407 98.9895 422.962 100.257 424.813 100.813C426.664 101.368 428.66 101.165 430.361 100.249C432.063 99.3328 433.33 97.7782 433.886 95.9272C434.441 94.0763 434.238 92.0805 433.322 90.379C418.955 63.695 391.22 47.119 360.94 47.119C351.101 47.119 341.567 48.818 332.496 52.18C320.293 21.083 289.932 0 256.001 0C222.07 0 191.709 21.083 179.511 52.179C170.44 48.817 160.906 47.118 151.067 47.118C105.765 47.118 68.91 83.973 68.91 129.274C68.91 139.991 70.924 150.332 74.908 160.109C44.946 175.762 25.968 206.736 25.968 240.972C25.968 288.151 61.599 327.069 107.987 331.695C117.107 355.29 142.737 371.36 172.262 371.36C185.206 371.36 197.882 368.146 208.719 362.218L212.33 368.236C217.256 376.448 219.295 386.174 218.07 395.625C217.01 403.796 215.705 413.418 214.05 422.836C213.884 423.778 213.906 424.744 214.114 425.678C214.322 426.612 214.711 427.496 215.261 428.28C215.81 429.063 216.508 429.731 217.316 430.244C218.123 430.758 219.024 431.108 219.966 431.273C220.908 431.439 221.874 431.418 222.809 431.21C223.743 431.003 224.627 430.613 225.411 430.064C226.194 429.514 226.862 428.816 227.375 428.008C227.889 427.2 228.238 426.3 228.403 425.357C230.108 415.654 231.442 405.83 232.522 397.497C234.167 384.806 231.435 371.751 224.827 360.738L184.92 294.221C184.748 293.938 184.64 293.621 184.603 293.293C184.566 292.964 184.601 292.631 184.706 292.317C184.807 292.002 184.976 291.713 185.2 291.47C185.424 291.227 185.698 291.036 186.004 290.909L192.804 288.051C193.264 287.86 193.773 287.822 194.256 287.943C194.738 288.064 195.169 288.337 195.485 288.722L234.32 336.482C234.423 336.608 234.532 336.726 234.639 336.847C236.082 338.487 237.877 339.666 239.85 340.313C241.946 341.001 244.236 341.091 246.501 340.518C246.526 340.512 246.551 340.508 246.577 340.501H246.579C248.712 339.954 250.652 338.826 252.183 337.242C252.241 337.181 252.304 337.124 252.361 337.063C252.413 337.006 252.461 336.945 252.512 336.887C253.975 335.232 254.949 333.202 255.325 331.025L267.724 260.576C267.826 260.017 268.129 259.515 268.576 259.165C269.023 258.815 269.583 258.64 270.15 258.675L276.659 259.115C276.974 259.135 277.282 259.221 277.562 259.366C277.843 259.511 278.09 259.713 278.289 259.958C278.525 260.247 278.904 260.861 278.787 261.724L271.84 313.193C271.481 315.835 272.019 318.522 273.368 320.822C274.716 323.122 276.797 324.904 279.278 325.882C281.453 326.744 283.833 326.947 286.123 326.465C288.412 325.982 290.509 324.837 292.151 323.171L315.773 299.255C316.168 298.857 316.695 298.618 317.254 298.582C317.278 298.58 317.301 298.574 317.325 298.573L317.361 298.575C317.934 298.561 318.492 298.761 318.926 299.136C319.344 299.497 319.617 299.996 319.697 300.542C319.777 301.088 319.657 301.644 319.36 302.109L287.283 352.725C280.546 363.357 277.435 376.142 278.525 388.724C281.577 423.973 286.866 463.718 309.849 497.427H202.105C210.329 485.231 216.719 471.356 221.497 455.384C221.771 454.467 221.862 453.505 221.765 452.553C221.667 451.602 221.383 450.678 220.929 449.836C220.475 448.994 219.859 448.249 219.117 447.645C218.375 447.041 217.521 446.589 216.604 446.315C215.687 446.041 214.725 445.949 213.773 446.047C212.821 446.144 211.898 446.428 211.056 446.883C210.214 447.337 209.469 447.953 208.865 448.695C208.261 449.437 207.809 450.291 207.535 451.208C201.707 470.69 193.315 486.641 181.878 499.969C180.971 501.027 180.386 502.323 180.193 503.703C179.999 505.083 180.206 506.49 180.788 507.756C181.37 509.023 182.303 510.096 183.477 510.848C184.65 511.6 186.014 512 187.408 512H324.593C325.987 512 327.352 511.601 328.525 510.849C329.699 510.097 330.632 509.024 331.214 507.758C331.797 506.491 332.003 505.084 331.81 503.704C331.616 502.324 331.031 501.028 330.123 499.97C302.064 467.264 296.27 424.749 293.041 387.467C292.226 378.046 294.551 368.477 299.59 360.526L299.794 360.203C311.337 367.437 325.241 371.361 339.738 371.361C369.263 371.361 394.893 355.291 404.013 331.695C450.401 327.069 486.032 288.151 486.032 240.973C486.034 206.736 467.055 175.762 437.094 160.109Z" fill="#121419"/>
</svg>
