<svg width="100" height="112" viewBox="0 0 100 112" fill="none" xmlns="http://www.w3.org/2000/svg">
<path d="M0.0034005 32.0261V79.9773C0.0034005 82.8547 1.53892 85.5113 4.02905 86.9483L45.5562 110.922C48.0463 112.359 51.114 112.359 53.6075 110.922L95.1347 86.9483C97.6248 85.5113 99.1603 82.8513 99.1603 79.9773V32.0261C99.1603 29.1487 97.6248 26.4921 95.1347 25.0551L53.6041 1.07776C51.114 -0.359252 48.0464 -0.359252 45.5528 1.07776L4.02565 25.0517C1.53552 26.4887 0 29.1487 0 32.0227L0.0034005 32.0261Z" fill="#2188F7"/>
<path d="M80.5917 36.7787C79.1377 38.2497 77.1198 39.1602 74.8845 39.1602C74.5991 39.1602 74.3171 39.1432 74.042 39.116C76.3724 37.7164 78.1729 35.5252 79.0698 32.9127C79.0698 32.9127 79.0732 32.9127 79.0732 32.9093C79.1989 32.5594 79.3008 32.2061 79.3857 31.8392C77.5411 33.813 75.0169 35.1481 72.1871 35.464C71.7522 35.515 71.3106 35.5388 70.8656 35.5388C70.7263 35.5388 70.587 35.5354 70.4511 35.5252C69.4931 34.5196 68.3517 33.6873 67.0879 33.0758C65.6781 32.3896 64.1018 31.9819 62.4372 31.931C62.3013 31.9242 62.1654 31.9174 62.0227 31.9174C60.6129 31.9174 59.2574 32.1654 58.0072 32.6274C57.6845 32.7429 57.3754 32.872 57.0696 33.0215C53.1051 34.8797 50.3636 38.9054 50.3636 43.5731C50.3636 44.5311 50.4791 45.4619 50.6965 46.352C49.4837 46.3044 48.2811 46.1855 47.1023 46.0089C46.7252 45.9477 46.3481 45.8832 45.9711 45.8118C42.9645 45.2547 40.0973 44.2933 37.4339 42.9854C35.0491 41.8202 32.8274 40.3797 30.806 38.7083C29.104 37.3053 27.5481 35.7426 26.1587 34.0338C26.0975 33.9625 26.0364 33.8843 25.982 33.813C25.9005 33.9387 25.8258 34.061 25.7578 34.1901C24.7862 35.8921 24.2359 37.8556 24.2359 39.9551C24.2359 40.0196 24.2359 40.0876 24.2392 40.1521C24.263 41.725 24.596 43.2198 25.1905 44.5787C25.4453 45.1834 25.7544 45.7541 26.1077 46.2942C27.1506 47.8977 28.5707 49.2328 30.2523 50.1568C30.327 50.2044 30.4051 50.2452 30.4867 50.2825C30.3644 50.3063 30.2421 50.3267 30.1164 50.3403C29.7699 50.3844 29.4166 50.4082 29.0599 50.4082C27.2696 50.4082 25.6049 49.8511 24.2426 48.8965C24.2359 48.9984 24.2359 49.0969 24.2359 49.2022C24.2359 52.5315 25.6321 55.5346 27.8675 57.651C29.6068 59.3122 31.8591 60.4299 34.3595 60.756C33.4592 61.0856 32.4876 61.2622 31.4719 61.2622C30.3746 61.2622 29.3248 61.0516 28.3634 60.6711C29.7936 65.3253 34.0639 68.7394 39.1529 68.8923C36.0445 72.1196 31.6791 74.1274 26.8483 74.1274C23.8452 74.1274 21.0221 73.3528 18.5762 71.9939C24.4567 77.0829 32.1275 80.1574 40.5186 80.1574C59.0604 80.1574 74.0861 65.1316 74.0861 46.5898C74.0861 45.5672 74.042 44.5583 73.9502 43.5629C77.0179 42.3535 79.4503 39.877 80.5985 36.7719L80.5917 36.7787Z" fill="white"/>
</svg>
