<svg width="80" height="80" viewBox="0 0 80 80" fill="none" xmlns="http://www.w3.org/2000/svg">
<g clip-path="url(#clip0_359_51)">
<path d="M29.5423 65H20C18.6739 65 17.4021 64.4732 16.4645 63.5355C15.5268 62.5979 15 61.3261 15 60V20C15 18.6739 15.5268 17.4021 16.4645 16.4645C17.4021 15.5268 18.6739 15 20 15H60C61.3261 15 62.5979 15.5268 63.5355 16.4645C64.4732 17.4021 65 18.6739 65 20V31.3462M65 45.7692L46.8846 63.8846L38.6923 65L39.8462 56.8077L57.9231 38.6923L65 45.7692Z" stroke="white" stroke-width="2.5" stroke-linecap="round" stroke-linejoin="round"/>
<path d="M15 40.6312C23.5134 39.1009 32.2937 40.399 40 44.3274M47.7462 31.5197C49.0212 31.5197 50.2441 31.0132 51.1457 30.1115C52.0473 29.2099 52.5538 27.9871 52.5538 26.712C52.5538 25.4369 52.0473 24.2141 51.1457 23.3124C50.2441 22.4108 49.0212 21.9043 47.7462 21.9043C46.4711 21.9043 45.2482 22.4108 44.3466 23.3124C43.445 24.2141 42.9385 25.4369 42.9385 26.712C42.9385 27.9871 43.445 29.2099 44.3466 30.1115C45.2482 31.0132 46.4711 31.5197 47.7462 31.5197Z" stroke="white" stroke-width="2.5" stroke-linecap="round" stroke-linejoin="round"/>
</g>
<defs>
<clipPath id="clip0_359_51">
<rect width="80" height="80" fill="white"/>
</clipPath>
</defs>
</svg>
