<svg width="102" height="27" viewBox="0 0 102 27" fill="none" xmlns="http://www.w3.org/2000/svg">
<g clip-path="url(#clip0_3256_3083)">
<mask id="path-1-outside-1_3256_3083" maskUnits="userSpaceOnUse" x="-1" y="0" width="103" height="27" fill="black">
<rect fill="white" x="-1" width="103" height="27"/>
<path d="M9.58681 26.3361C2.99946 26.3361 0.109094 22.4711 0.109094 20.4209C0.109094 19.6479 0.54601 19.0766 1.38623 19.0766C3.80607 19.1774 2.96585 25.0253 9.72124 25.0253C12.9141 25.0253 15.0987 23.1769 15.0987 20.5217C15.0987 12.1531 0.747664 18.4716 0.747664 8.38893C0.747664 4.65834 3.77247 1.83519 9.11628 1.83519C14.8298 1.83519 17.821 4.99443 17.821 7.31344C17.821 8.12006 17.3505 8.6578 16.443 8.6578C13.9224 8.6578 15.1995 3.14594 9.01546 3.14594C5.62096 3.14594 3.80607 5.12886 3.80607 7.68314C3.80607 15.514 18.1907 9.66607 18.1907 19.816C18.1907 23.849 14.2921 26.3361 9.58681 26.3361ZM34.7092 23.3113C34.9109 25.395 36.5913 24.6556 36.5913 25.4959C36.5913 26 35.6839 26.2017 34.4403 26.2017C32.9279 26.2017 32.1213 25.832 31.9869 23.9835C31.2139 25.395 29.6007 26.3361 27.1472 26.3361C23.4502 26.3361 20.8959 24.4876 20.8959 21.2611C20.8623 18.0347 23.5511 16.287 27.0464 16.287C28.8276 16.287 30.2728 16.7912 31.1803 17.6314L31.1131 16.7239C30.7434 12.7581 29.6679 10.6071 26.9792 10.6071C23.4838 10.6071 24.0216 14.4385 22.3411 14.4385C21.5345 14.4385 21.0304 13.968 21.0304 13.195C21.0304 11.4137 23.3158 9.53163 26.9792 9.53163C31.1131 9.53163 33.6001 12.1867 34.037 16.6231L34.7092 23.3113ZM27.8866 25.2606C30.1384 25.2606 31.6172 23.6138 31.55 21.5636L31.4155 20.0512C31.0794 18.4716 29.7015 17.3625 27.7186 17.3625C25.4331 17.3625 23.8535 18.7741 23.8535 20.8578C23.8535 23.3113 25.4668 25.2606 27.8866 25.2606ZM47.2742 9.53163C51.4081 9.53163 55.0043 12.7245 55.0043 17.6986C55.0043 22.6727 51.5762 26.3361 47.3078 26.3361C45.0896 26.3361 43.3084 25.395 42.1321 23.7818L42.1657 25.4959C42.1657 25.8656 41.964 26.0336 41.5943 26.0336L38.6703 26C38.3679 26 38.1662 25.8656 38.1662 25.6303V25.5295C38.1662 24.9245 39.4097 24.8237 39.4097 23.6138V4.79277C39.4097 3.41481 38.0654 3.3812 38.0654 2.77624V2.67541C38.0654 2.44015 38.2334 2.30571 38.6367 2.13767L41.2918 0.860532C41.9304 0.558052 42.3337 0.759704 42.3337 1.33106V11.7162C43.4092 10.3719 45.2241 9.53163 47.2742 9.53163ZM46.8709 25.2606C49.9965 25.2606 52.0131 22.6391 52.0131 18.5052C52.0131 13.8672 49.7949 10.6071 46.5012 10.6071C44.283 10.6071 42.3337 12.5564 42.3337 14.8418V19.6143L42.3001 20.0848H42.3337C42.3337 22.7735 44.5519 25.2606 46.8709 25.2606ZM66.7451 9.53163C70.879 9.53163 74.4751 12.7245 74.4751 17.6986C74.4751 22.6727 71.047 26.3361 66.7787 26.3361C64.5605 26.3361 62.7792 25.395 61.6029 23.7818L61.6365 25.4959C61.6365 25.8656 61.4349 26.0336 61.0652 26.0336L58.1412 26C57.8387 26 57.6371 25.8656 57.6371 25.6303V25.5295C57.6371 24.9245 58.8806 24.8237 58.8806 23.6138V4.79277C58.8806 3.41481 57.5362 3.3812 57.5362 2.77624V2.67541C57.5362 2.44015 57.7043 2.30571 58.1076 2.13767L60.7627 0.860532C61.4012 0.558052 61.8046 0.759704 61.8046 1.33106V11.7162C62.88 10.3719 64.6949 9.53163 66.7451 9.53163ZM66.3418 25.2606C69.4674 25.2606 71.4839 22.6391 71.4839 18.5052C71.4839 13.8672 69.2657 10.6071 65.9721 10.6071C63.7539 10.6071 61.8046 12.5564 61.8046 14.8418V19.6143L61.7709 20.0848H61.8046C61.8046 22.7735 64.0227 25.2606 66.3418 25.2606ZM79.9647 6.67487C78.5867 6.67487 77.7129 5.83465 77.7129 4.59112C77.7129 3.34759 78.5867 2.47376 79.9647 2.47376C81.2754 2.47376 82.1492 3.34759 82.1492 4.59112C82.1492 5.83465 81.2754 6.67487 79.9647 6.67487ZM78.0153 26C77.612 26 77.3768 25.832 77.3768 25.5631V25.4286C77.3768 24.7901 78.5867 24.7901 78.5867 23.6138V13.5983C78.5867 12.2876 77.3768 12.0187 77.3768 11.5146V11.4473C77.3768 11.2121 77.5784 11.1113 77.8809 10.9432L80.4688 9.66607C81.1746 9.32998 81.5107 9.66607 81.5107 10.1366V23.6138C81.5107 24.7901 82.855 24.7901 82.855 25.4286V25.5631C82.855 25.832 82.5526 26 82.1492 26H78.0153ZM94.0523 9.53163C96.0688 9.53163 97.1443 10.7079 97.1443 12.1195C97.1443 12.9933 96.741 13.6991 95.8 13.6991C94.0523 13.6991 94.8925 11.3465 92.8088 11.3465C90.9603 11.3465 89.952 13.4639 89.952 15.9845V23.6474C89.952 24.8237 91.3636 24.8573 91.3636 25.4623V25.5967C91.3636 25.8656 91.1283 26 90.6914 26H86.5239C86.087 26 85.8517 25.8656 85.8517 25.5967V25.4623C85.8517 24.8573 87.0953 24.8237 87.0953 23.6474V13.4303C87.0953 12.1531 85.7509 12.1195 85.7509 11.4809V11.4137C85.7509 11.1785 85.9526 10.9768 86.255 10.8088L88.8093 9.66607C89.4479 9.36359 89.6832 9.63246 89.6832 10.1366V12.8253C90.4225 10.6743 91.9686 9.53163 94.0523 9.53163ZM99.4371 26.3361C98.2272 26.3361 97.2861 25.6303 97.2861 24.3532C97.2861 23.0088 98.2272 22.303 99.4371 22.303C100.613 22.303 101.554 23.0088 101.554 24.3532C101.554 25.6303 100.613 26.3361 99.4371 26.3361Z"/>
</mask>
<path d="M9.58681 26.3361C2.99946 26.3361 0.109094 22.4711 0.109094 20.4209C0.109094 19.6479 0.54601 19.0766 1.38623 19.0766C3.80607 19.1774 2.96585 25.0253 9.72124 25.0253C12.9141 25.0253 15.0987 23.1769 15.0987 20.5217C15.0987 12.1531 0.747664 18.4716 0.747664 8.38893C0.747664 4.65834 3.77247 1.83519 9.11628 1.83519C14.8298 1.83519 17.821 4.99443 17.821 7.31344C17.821 8.12006 17.3505 8.6578 16.443 8.6578C13.9224 8.6578 15.1995 3.14594 9.01546 3.14594C5.62096 3.14594 3.80607 5.12886 3.80607 7.68314C3.80607 15.514 18.1907 9.66607 18.1907 19.816C18.1907 23.849 14.2921 26.3361 9.58681 26.3361ZM34.7092 23.3113C34.9109 25.395 36.5913 24.6556 36.5913 25.4959C36.5913 26 35.6839 26.2017 34.4403 26.2017C32.9279 26.2017 32.1213 25.832 31.9869 23.9835C31.2139 25.395 29.6007 26.3361 27.1472 26.3361C23.4502 26.3361 20.8959 24.4876 20.8959 21.2611C20.8623 18.0347 23.5511 16.287 27.0464 16.287C28.8276 16.287 30.2728 16.7912 31.1803 17.6314L31.1131 16.7239C30.7434 12.7581 29.6679 10.6071 26.9792 10.6071C23.4838 10.6071 24.0216 14.4385 22.3411 14.4385C21.5345 14.4385 21.0304 13.968 21.0304 13.195C21.0304 11.4137 23.3158 9.53163 26.9792 9.53163C31.1131 9.53163 33.6001 12.1867 34.037 16.6231L34.7092 23.3113ZM27.8866 25.2606C30.1384 25.2606 31.6172 23.6138 31.55 21.5636L31.4155 20.0512C31.0794 18.4716 29.7015 17.3625 27.7186 17.3625C25.4331 17.3625 23.8535 18.7741 23.8535 20.8578C23.8535 23.3113 25.4668 25.2606 27.8866 25.2606ZM47.2742 9.53163C51.4081 9.53163 55.0043 12.7245 55.0043 17.6986C55.0043 22.6727 51.5762 26.3361 47.3078 26.3361C45.0896 26.3361 43.3084 25.395 42.1321 23.7818L42.1657 25.4959C42.1657 25.8656 41.964 26.0336 41.5943 26.0336L38.6703 26C38.3679 26 38.1662 25.8656 38.1662 25.6303V25.5295C38.1662 24.9245 39.4097 24.8237 39.4097 23.6138V4.79277C39.4097 3.41481 38.0654 3.3812 38.0654 2.77624V2.67541C38.0654 2.44015 38.2334 2.30571 38.6367 2.13767L41.2918 0.860532C41.9304 0.558052 42.3337 0.759704 42.3337 1.33106V11.7162C43.4092 10.3719 45.2241 9.53163 47.2742 9.53163ZM46.8709 25.2606C49.9965 25.2606 52.0131 22.6391 52.0131 18.5052C52.0131 13.8672 49.7949 10.6071 46.5012 10.6071C44.283 10.6071 42.3337 12.5564 42.3337 14.8418V19.6143L42.3001 20.0848H42.3337C42.3337 22.7735 44.5519 25.2606 46.8709 25.2606ZM66.7451 9.53163C70.879 9.53163 74.4751 12.7245 74.4751 17.6986C74.4751 22.6727 71.047 26.3361 66.7787 26.3361C64.5605 26.3361 62.7792 25.395 61.6029 23.7818L61.6365 25.4959C61.6365 25.8656 61.4349 26.0336 61.0652 26.0336L58.1412 26C57.8387 26 57.6371 25.8656 57.6371 25.6303V25.5295C57.6371 24.9245 58.8806 24.8237 58.8806 23.6138V4.79277C58.8806 3.41481 57.5362 3.3812 57.5362 2.77624V2.67541C57.5362 2.44015 57.7043 2.30571 58.1076 2.13767L60.7627 0.860532C61.4012 0.558052 61.8046 0.759704 61.8046 1.33106V11.7162C62.88 10.3719 64.6949 9.53163 66.7451 9.53163ZM66.3418 25.2606C69.4674 25.2606 71.4839 22.6391 71.4839 18.5052C71.4839 13.8672 69.2657 10.6071 65.9721 10.6071C63.7539 10.6071 61.8046 12.5564 61.8046 14.8418V19.6143L61.7709 20.0848H61.8046C61.8046 22.7735 64.0227 25.2606 66.3418 25.2606ZM79.9647 6.67487C78.5867 6.67487 77.7129 5.83465 77.7129 4.59112C77.7129 3.34759 78.5867 2.47376 79.9647 2.47376C81.2754 2.47376 82.1492 3.34759 82.1492 4.59112C82.1492 5.83465 81.2754 6.67487 79.9647 6.67487ZM78.0153 26C77.612 26 77.3768 25.832 77.3768 25.5631V25.4286C77.3768 24.7901 78.5867 24.7901 78.5867 23.6138V13.5983C78.5867 12.2876 77.3768 12.0187 77.3768 11.5146V11.4473C77.3768 11.2121 77.5784 11.1113 77.8809 10.9432L80.4688 9.66607C81.1746 9.32998 81.5107 9.66607 81.5107 10.1366V23.6138C81.5107 24.7901 82.855 24.7901 82.855 25.4286V25.5631C82.855 25.832 82.5526 26 82.1492 26H78.0153ZM94.0523 9.53163C96.0688 9.53163 97.1443 10.7079 97.1443 12.1195C97.1443 12.9933 96.741 13.6991 95.8 13.6991C94.0523 13.6991 94.8925 11.3465 92.8088 11.3465C90.9603 11.3465 89.952 13.4639 89.952 15.9845V23.6474C89.952 24.8237 91.3636 24.8573 91.3636 25.4623V25.5967C91.3636 25.8656 91.1283 26 90.6914 26H86.5239C86.087 26 85.8517 25.8656 85.8517 25.5967V25.4623C85.8517 24.8573 87.0953 24.8237 87.0953 23.6474V13.4303C87.0953 12.1531 85.7509 12.1195 85.7509 11.4809V11.4137C85.7509 11.1785 85.9526 10.9768 86.255 10.8088L88.8093 9.66607C89.4479 9.36359 89.6832 9.63246 89.6832 10.1366V12.8253C90.4225 10.6743 91.9686 9.53163 94.0523 9.53163ZM99.4371 26.3361C98.2272 26.3361 97.2861 25.6303 97.2861 24.3532C97.2861 23.0088 98.2272 22.303 99.4371 22.303C100.613 22.303 101.554 23.0088 101.554 24.3532C101.554 25.6303 100.613 26.3361 99.4371 26.3361Z" fill="white"/>
<path d="M1.38623 19.0766L1.39424 18.8845H1.38623V19.0766ZM9.58681 26.144C6.33184 26.144 4.00552 25.1897 2.49682 23.9967C0.97995 22.7972 0.301145 21.3686 0.301145 20.4209H-0.0829568C-0.0829568 21.5233 0.683422 23.0524 2.25857 24.298C3.84189 25.55 6.25443 26.5281 9.58681 26.5281V26.144ZM0.301145 20.4209C0.301145 20.0692 0.400402 19.7828 0.575704 19.5869C0.74825 19.3941 1.01231 19.2686 1.38623 19.2686V18.8845C0.919933 18.8845 0.545424 19.0447 0.289456 19.3308C0.0362445 19.6138 -0.0829568 19.9997 -0.0829568 20.4209H0.301145ZM1.37824 19.2684C1.88744 19.2897 2.2414 19.6062 2.59864 20.1536C2.7769 20.4267 2.94786 20.7446 3.13669 21.0943C3.32413 21.4415 3.52745 21.8166 3.76581 22.1918C4.24353 22.9437 4.86673 23.7039 5.80986 24.2744C6.75377 24.8453 8.00357 25.2174 9.72124 25.2174V24.8333C8.06122 24.8333 6.88278 24.4744 6.00865 23.9457C5.13375 23.4165 4.54914 22.7084 4.09001 21.9858C3.85994 21.6236 3.66258 21.2599 3.47467 20.9119C3.28817 20.5664 3.10912 20.2329 2.9203 19.9436C2.5434 19.3661 2.09495 18.9139 1.39423 18.8847L1.37824 19.2684ZM9.72124 25.2174C11.3538 25.2174 12.7446 24.7447 13.7308 23.9163C14.7195 23.0857 15.2907 21.906 15.2907 20.5217H14.9066C14.9066 21.7926 14.3855 22.8646 13.4837 23.6222C12.5795 24.3818 11.2816 24.8333 9.72124 24.8333V25.2174ZM15.2907 20.5217C15.2907 19.4475 15.0601 18.595 14.6463 17.9118C14.2326 17.2288 13.6439 16.7284 12.9491 16.3452C11.5713 15.5853 9.74029 15.2703 7.9613 14.9099C6.16244 14.5455 4.40861 14.1342 3.10127 13.2049C1.81218 12.2887 0.939714 10.8547 0.939714 8.38893H0.555613C0.555613 10.9645 1.47702 12.5217 2.87875 13.518C4.26222 14.5013 6.09614 14.9239 7.88504 15.2863C9.6938 15.6527 11.4506 15.9574 12.7636 16.6815C13.4142 17.0403 13.9466 17.4981 14.3178 18.1108C14.6887 18.7232 14.9066 19.5039 14.9066 20.5217H15.2907ZM0.939714 8.38893C0.939714 6.5794 1.67149 4.99597 3.05008 3.86138C4.43161 2.72437 6.47685 2.02724 9.11628 2.02724V1.64314C6.4119 1.64314 4.27283 2.35758 2.806 3.5648C1.33624 4.77442 0.555613 6.46787 0.555613 8.38893H0.939714ZM9.11628 2.02724C11.9377 2.02724 14.0725 2.80706 15.4971 3.85918C16.927 4.91515 17.6289 6.23324 17.6289 7.31344H18.013C18.013 6.07463 17.2194 4.65359 15.7253 3.5502C14.226 2.44294 12.0084 1.64314 9.11628 1.64314V2.02724ZM17.6289 7.31344C17.6289 7.67997 17.5226 7.96281 17.3353 8.15353C17.1487 8.3435 16.8585 8.46575 16.443 8.46575V8.84985C16.935 8.84985 17.3338 8.70322 17.6093 8.42267C17.8841 8.14287 18.013 7.75353 18.013 7.31344H17.6289ZM16.443 8.46575C15.9056 8.46575 15.5643 8.18243 15.2504 7.6929C15.0916 7.44536 14.9458 7.15363 14.7885 6.82987C14.6326 6.50916 14.4662 6.1587 14.2707 5.8083C13.8784 5.10521 13.361 4.38683 12.5356 3.84649C11.7092 3.30541 10.5911 2.95389 9.01546 2.95389V3.33799C10.5319 3.33799 11.5731 3.67545 12.3252 4.16785C13.0785 4.66098 13.5588 5.32056 13.9353 5.99544C14.1242 6.33402 14.285 6.67254 14.443 6.99776C14.5996 7.31992 14.7544 7.63105 14.927 7.90024C15.2758 8.44419 15.7201 8.84985 16.443 8.84985V8.46575ZM9.01546 2.95389C7.28086 2.95389 5.92811 3.46108 5.00717 4.31593C4.08547 5.17148 3.61402 6.35909 3.61402 7.68314H3.99813C3.99813 6.45292 4.43412 5.37192 5.26848 4.59744C6.10361 3.82226 7.35555 3.33799 9.01546 3.33799V2.95389ZM3.61402 7.68314C3.61402 8.69268 3.84629 9.49536 4.26281 10.1406C4.67864 10.7849 5.26923 11.2585 5.96405 11.6251C7.34218 12.3522 9.17558 12.6783 10.9574 13.0675C12.7585 13.461 14.5174 13.9199 15.8286 14.8936C17.1234 15.8552 17.9986 17.3328 17.9986 19.816H18.3827C18.3827 17.2241 17.4599 15.6266 16.0576 14.5853C14.6717 13.5561 12.8344 13.0844 11.0394 12.6923C9.22504 12.2959 7.46228 11.9813 6.1433 11.2854C5.48956 10.9404 4.95635 10.5068 4.58552 9.93234C4.21538 9.3589 3.99813 8.63133 3.99813 7.68314H3.61402ZM17.9986 19.816C17.9986 21.7628 17.0605 23.3379 15.541 24.4326C14.0174 25.5302 11.908 26.144 9.58681 26.144V26.5281C11.9709 26.5281 14.1634 25.8984 15.7655 24.7442C17.3716 23.5872 18.3827 21.9022 18.3827 19.816H17.9986ZM34.7092 23.3113L34.9004 23.2928L34.9003 23.2921L34.7092 23.3113ZM31.9869 23.9835L32.1784 23.9695L32.1312 23.3201L31.8184 23.8912L31.9869 23.9835ZM20.8959 21.2611L21.088 21.2611L21.088 21.2591L20.8959 21.2611ZM31.1803 17.6314L31.0498 17.7723L31.4078 18.1038L31.3718 17.6172L31.1803 17.6314ZM31.1131 16.7239L31.3046 16.7097L31.3043 16.7061L31.1131 16.7239ZM34.037 16.6231L33.8459 16.6419L33.8459 16.6423L34.037 16.6231ZM31.55 21.5636L31.7422 21.5573L31.7413 21.5466L31.55 21.5636ZM31.4155 20.0512L31.6068 20.0342L31.6058 20.0226L31.6034 20.0113L31.4155 20.0512ZM34.5181 23.3298C34.5711 23.8775 34.7234 24.2596 34.9373 24.5321C35.1514 24.8049 35.4137 24.9505 35.6537 25.0479C35.7719 25.0958 35.8887 25.1335 35.9877 25.1669C36.0906 25.2015 36.1725 25.2308 36.2388 25.2644C36.3041 25.2975 36.3412 25.3284 36.3629 25.3586C36.3825 25.3856 36.3993 25.4252 36.3993 25.4959H36.7834C36.7834 25.3564 36.7477 25.2354 36.6745 25.1339C36.6036 25.0355 36.5078 24.9701 36.4124 24.9218C36.318 24.874 36.2114 24.8369 36.1102 24.8028C36.0052 24.7675 35.9026 24.7343 35.7981 24.6919C35.5927 24.6086 35.3971 24.4959 35.2394 24.295C35.0816 24.0938 34.9482 23.787 34.9004 23.2928L34.5181 23.3298ZM36.3993 25.4959C36.3993 25.5555 36.3755 25.6125 36.3049 25.6732C36.2293 25.7382 36.1058 25.8008 35.9275 25.8537C35.5718 25.9592 35.0559 26.0096 34.4403 26.0096V26.3937C35.0683 26.3937 35.6279 26.3432 36.0368 26.2219C36.2408 26.1614 36.4219 26.0791 36.5553 25.9645C36.6936 25.8456 36.7834 25.6883 36.7834 25.4959H36.3993ZM34.4403 26.0096C33.6894 26.0096 33.1688 25.9151 32.8163 25.6353C32.471 25.3613 32.2441 24.8729 32.1784 23.9695L31.7953 23.9974C31.8641 24.9426 32.1077 25.5633 32.5775 25.9362C33.04 26.3033 33.6789 26.3937 34.4403 26.3937V26.0096ZM31.8184 23.8912C31.0877 25.2257 29.5502 26.144 27.1472 26.144V26.5281C29.6511 26.5281 31.3401 25.5644 32.1553 24.0757L31.8184 23.8912ZM27.1472 26.144C25.3283 26.144 23.8115 25.6891 22.7539 24.8576C21.7017 24.0302 21.088 22.8182 21.088 21.2611H20.7039C20.7039 22.9305 21.3674 24.256 22.5165 25.1595C23.6603 26.0588 25.2691 26.5281 27.1472 26.5281V26.144ZM21.088 21.2591C21.0718 19.7065 21.7076 18.5205 22.7641 17.717C23.8266 16.909 25.3279 16.4791 27.0464 16.4791V16.095C25.2695 16.095 23.6788 16.5389 22.5316 17.4113C21.3783 18.2883 20.6865 19.5893 20.7039 21.2631L21.088 21.2591ZM27.0464 16.4791C28.795 16.4791 30.1879 16.9743 31.0498 17.7723L31.3108 17.4905C30.3578 16.6081 28.8603 16.095 27.0464 16.095V16.4791ZM31.3718 17.6172L31.3046 16.7098L30.9215 16.7381L30.9887 17.6456L31.3718 17.6172ZM31.3043 16.7061C31.1188 14.7164 30.7545 13.1493 30.0782 12.076C29.7379 11.5359 29.317 11.1181 28.7992 10.8365C28.2815 10.5549 27.6775 10.4151 26.9792 10.4151V10.7992C27.6252 10.7992 28.1639 10.9282 28.6156 11.1739C29.0672 11.4195 29.4424 11.7873 29.7533 12.2807C30.3793 13.2744 30.7376 14.7657 30.9218 16.7418L31.3043 16.7061ZM26.9792 10.4151C26.0669 10.4151 25.403 10.6662 24.8992 11.0535C24.3996 11.4374 24.0711 11.9447 23.8102 12.4322C23.6804 12.6749 23.5635 12.9202 23.4536 13.1405C23.342 13.3643 23.2366 13.5643 23.1236 13.733C22.8992 14.0682 22.6685 14.2465 22.3411 14.2465V14.6306C22.8539 14.6306 23.1862 14.3299 23.4428 13.9467C23.5704 13.7562 23.685 13.5372 23.7973 13.312C23.9114 13.0833 24.0225 12.8497 24.1489 12.6134C24.4006 12.1431 24.698 11.6925 25.1332 11.3581C25.5641 11.0269 26.1438 10.7992 26.9792 10.7992V10.4151ZM22.3411 14.2465C21.9747 14.2465 21.6984 14.1401 21.5151 13.967C21.3332 13.7952 21.2224 13.5384 21.2224 13.195H20.8383C20.8383 13.6246 20.9796 13.9895 21.2514 14.2463C21.5219 14.5017 21.901 14.6306 22.3411 14.6306V14.2465ZM21.2224 13.195C21.2224 12.389 21.7421 11.5256 22.7383 10.8546C23.7309 10.1862 25.1792 9.72368 26.9792 9.72368V9.33958C25.1157 9.33958 23.5897 9.81816 22.5237 10.536C21.4614 11.2515 20.8383 12.2197 20.8383 13.195H21.2224ZM26.9792 9.72368C29.0026 9.72368 30.6056 10.3721 31.7573 11.5481C32.9116 12.7268 33.6304 14.454 33.8459 16.6419L34.2282 16.6043C34.0067 14.3558 33.2636 12.5373 32.0317 11.2794C30.7971 10.0187 29.0896 9.33958 26.9792 9.33958V9.72368ZM33.8459 16.6423L34.5181 23.3305L34.9003 23.2921L34.2281 16.6039L33.8459 16.6423ZM27.8866 25.4527C30.248 25.4527 31.8127 23.7149 31.7419 21.5573L31.358 21.5699C31.4217 23.5126 30.0288 25.0686 27.8866 25.0686V25.4527ZM31.7413 21.5466L31.6068 20.0342L31.2242 20.0682L31.3587 21.5806L31.7413 21.5466ZM31.6034 20.0113C31.2459 18.331 29.7793 17.1705 27.7186 17.1705V17.5546C29.6237 17.5546 30.913 18.6122 31.2277 20.0912L31.6034 20.0113ZM27.7186 17.1705C26.5366 17.1705 25.522 17.5358 24.8004 18.1861C24.0772 18.8379 23.6615 19.7646 23.6615 20.8578H24.0456C24.0456 19.8673 24.4196 19.0464 25.0576 18.4714C25.6972 17.895 26.6151 17.5546 27.7186 17.5546V17.1705ZM23.6615 20.8578C23.6615 23.3955 25.3401 25.4527 27.8866 25.4527V25.0686C25.5935 25.0686 24.0456 23.2271 24.0456 20.8578H23.6615ZM42.1321 23.7818L42.2872 23.6687L41.9281 23.1761L41.94 23.7856L42.1321 23.7818ZM42.1657 25.4959H42.3578L42.3577 25.4921L42.1657 25.4959ZM41.5943 26.0336L41.5921 26.2257H41.5943V26.0336ZM38.6703 26L38.6725 25.8079H38.6703V26ZM38.6367 2.13767L38.7107 2.3152L38.72 2.31074L38.6367 2.13767ZM41.2918 0.860532L41.2096 0.686965L41.2086 0.687462L41.2918 0.860532ZM42.3337 11.7162H42.1417V12.2637L42.4837 11.8362L42.3337 11.7162ZM42.3337 19.6143L42.5258 19.628V19.6143H42.3337ZM42.3001 20.0848L42.1085 20.0711L42.0938 20.2769H42.3001V20.0848ZM42.3337 20.0848H42.5258V19.8928H42.3337V20.0848ZM47.2742 9.72368C51.3015 9.72368 54.8122 12.83 54.8122 17.6986H55.1963C55.1963 12.6189 51.5147 9.33958 47.2742 9.33958V9.72368ZM54.8122 17.6986C54.8122 22.5853 51.4524 26.144 47.3078 26.144V26.5281C51.6999 26.5281 55.1963 22.7602 55.1963 17.6986H54.8122ZM47.3078 26.144C45.1496 26.144 43.4266 25.2312 42.2872 23.6687L41.9769 23.895C43.1901 25.5589 45.0297 26.5281 47.3078 26.5281V26.144ZM41.94 23.7856L41.9737 25.4996L42.3577 25.4921L42.3241 23.778L41.94 23.7856ZM41.9736 25.4959C41.9736 25.6466 41.9333 25.7212 41.8891 25.7615C41.8416 25.8049 41.7539 25.8416 41.5943 25.8416V26.2257C41.8045 26.2257 42.0024 26.1783 42.1481 26.0452C42.2972 25.9091 42.3577 25.7148 42.3577 25.4959H41.9736ZM41.5965 25.8416L38.6725 25.808L38.6681 26.192L41.5921 26.2256L41.5965 25.8416ZM38.6703 25.8079C38.5443 25.8079 38.4618 25.7795 38.4165 25.7471C38.3782 25.7198 38.3583 25.6853 38.3583 25.6303H37.9742C37.9742 25.8106 38.055 25.9609 38.1932 26.0597C38.3243 26.1533 38.4939 26.1921 38.6703 26.1921V25.8079ZM38.3583 25.6303V25.5295H37.9742V25.6303H38.3583ZM38.3583 25.5295C38.3583 25.4535 38.3939 25.3805 38.4944 25.2827C38.6035 25.1766 38.7357 25.0881 38.9089 24.9477C39.2384 24.6805 39.6018 24.3037 39.6018 23.6138H39.2177C39.2177 24.1338 38.9593 24.4123 38.667 24.6493C38.5293 24.7609 38.3507 24.8867 38.2266 25.0074C38.0939 25.1365 37.9742 25.3029 37.9742 25.5295H38.3583ZM39.6018 23.6138V4.79277H39.2177V23.6138H39.6018ZM39.6018 4.79277C39.6018 4.41467 39.5089 4.11928 39.3636 3.88134C39.2198 3.6459 39.0307 3.47662 38.854 3.34191C38.7664 3.27513 38.6781 3.21412 38.6017 3.16002C38.5229 3.10432 38.4565 3.0558 38.4016 3.00793C38.2909 2.91157 38.2574 2.84447 38.2574 2.77624H37.8733C37.8733 3.01049 38.0079 3.17445 38.1493 3.2976C38.2204 3.35948 38.301 3.41783 38.3798 3.47358C38.4609 3.53095 38.5406 3.586 38.6211 3.64735C38.7805 3.76891 38.9275 3.90421 39.0358 4.08153C39.1425 4.25634 39.2177 4.4819 39.2177 4.79277H39.6018ZM38.2574 2.77624V2.67541H37.8733V2.77624H38.2574ZM38.2574 2.67541C38.2574 2.61514 38.2741 2.57331 38.329 2.52344C38.3952 2.46322 38.5114 2.39793 38.7106 2.31495L38.5629 1.96039C38.3587 2.04546 38.1892 2.13141 38.0706 2.23923C37.9406 2.3574 37.8733 2.50042 37.8733 2.67541H38.2574ZM38.72 2.31074L41.3751 1.0336L41.2086 0.687462L38.5535 1.9646L38.72 2.31074ZM41.374 1.0341C41.6735 0.89227 41.8675 0.893976 41.9712 0.942244C42.0589 0.983016 42.1417 1.08751 42.1417 1.33106H42.5258C42.5258 1.00325 42.4069 0.721243 42.1332 0.59397C41.8757 0.474194 41.5488 0.526313 41.2096 0.686968L41.374 1.0341ZM42.1417 1.33106V11.7162H42.5258V1.33106H42.1417ZM42.4837 11.8362C43.5181 10.5432 45.2745 9.72368 47.2742 9.72368V9.33958C45.1736 9.33958 43.3003 10.2005 42.1837 11.5962L42.4837 11.8362ZM46.8709 25.4527C48.4934 25.4527 49.8355 24.7695 50.7668 23.5497C51.6942 22.3349 52.2051 20.601 52.2051 18.5052H51.821C51.821 20.5433 51.3237 22.1871 50.4615 23.3166C49.6031 24.4409 48.3741 25.0686 46.8709 25.0686V25.4527ZM52.2051 18.5052C52.2051 16.1581 51.6442 14.1424 50.6501 12.7075C49.6532 11.2685 48.2196 10.4151 46.5012 10.4151V10.7992C48.0765 10.7992 49.3988 11.5758 50.3344 12.9263C51.2729 14.281 51.821 16.2143 51.821 18.5052H52.2051ZM46.5012 10.4151C44.175 10.4151 42.1417 12.4524 42.1417 14.8418H42.5258C42.5258 12.6605 44.3911 10.7992 46.5012 10.7992V10.4151ZM42.1417 14.8418V19.6143H42.5258V14.8418H42.1417ZM42.1421 19.6006L42.1085 20.0711L42.4917 20.0985L42.5253 19.628L42.1421 19.6006ZM42.3001 20.2769H42.3337V19.8928H42.3001V20.2769ZM42.1417 20.0848C42.1417 21.481 42.7168 22.819 43.5886 23.808C44.4594 24.7957 45.6426 25.4527 46.8709 25.4527V25.0686C45.7802 25.0686 44.6948 24.482 43.8767 23.554C43.0598 22.6273 42.5258 21.3774 42.5258 20.0848H42.1417ZM61.6029 23.7818L61.7581 23.6687L61.3989 23.1761L61.4109 23.7856L61.6029 23.7818ZM61.6365 25.4959H61.8286L61.8285 25.4921L61.6365 25.4959ZM61.0652 26.0336L61.063 26.2257H61.0652V26.0336ZM58.1412 26L58.1434 25.8079H58.1412V26ZM58.1076 2.13767L58.1815 2.3152L58.1908 2.31074L58.1076 2.13767ZM60.7627 0.860532L60.6805 0.686965L60.6794 0.687462L60.7627 0.860532ZM61.8046 11.7162H61.6125V12.2637L61.9545 11.8362L61.8046 11.7162ZM61.8046 19.6143L61.9966 19.628V19.6143H61.8046ZM61.7709 20.0848L61.5794 20.0711L61.5647 20.2769H61.7709V20.0848ZM61.8046 20.0848H61.9966V19.8928H61.8046V20.0848ZM66.7451 9.72368C70.7724 9.72368 74.2831 12.83 74.2831 17.6986H74.6672C74.6672 12.6189 70.9856 9.33958 66.7451 9.33958V9.72368ZM74.2831 17.6986C74.2831 22.5853 70.9232 26.144 66.7787 26.144V26.5281C71.1708 26.5281 74.6672 22.7602 74.6672 17.6986H74.2831ZM66.7787 26.144C64.6205 26.144 62.8974 25.2312 61.7581 23.6687L61.4477 23.895C62.661 25.5589 64.5005 26.5281 66.7787 26.5281V26.144ZM61.4109 23.7856L61.4445 25.4996L61.8285 25.4921L61.7949 23.778L61.4109 23.7856ZM61.4445 25.4959C61.4445 25.6466 61.4041 25.7212 61.36 25.7615C61.3125 25.8049 61.2247 25.8416 61.0652 25.8416V26.2257C61.2753 26.2257 61.4732 26.1783 61.619 26.0452C61.7681 25.9091 61.8286 25.7148 61.8286 25.4959H61.4445ZM61.0674 25.8416L58.1434 25.808L58.139 26.192L61.063 26.2256L61.0674 25.8416ZM58.1412 25.8079C58.0151 25.8079 57.9327 25.7795 57.8873 25.7471C57.8491 25.7198 57.8291 25.6853 57.8291 25.6303H57.445C57.445 25.8106 57.5259 25.9609 57.6641 26.0597C57.7951 26.1533 57.9648 26.1921 58.1412 26.1921V25.8079ZM57.8291 25.6303V25.5295H57.445V25.6303H57.8291ZM57.8291 25.5295C57.8291 25.4535 57.8648 25.3805 57.9653 25.2827C58.0744 25.1766 58.2066 25.0881 58.3798 24.9477C58.7092 24.6805 59.0726 24.3037 59.0726 23.6138H58.6885C58.6885 24.1338 58.4302 24.4123 58.1379 24.6493C58.0002 24.7609 57.8215 24.8867 57.6974 25.0074C57.5648 25.1365 57.445 25.3029 57.445 25.5295H57.8291ZM59.0726 23.6138V4.79277H58.6885V23.6138H59.0726ZM59.0726 4.79277C59.0726 4.41467 58.9797 4.11928 58.8344 3.88134C58.6906 3.6459 58.5015 3.47662 58.3249 3.34191C58.2373 3.27513 58.149 3.21412 58.0725 3.16002C57.9938 3.10432 57.9274 3.0558 57.8724 3.00793C57.7617 2.91157 57.7283 2.84447 57.7283 2.77624H57.3442C57.3442 3.01049 57.4787 3.17445 57.6202 3.2976C57.6912 3.35948 57.7719 3.41783 57.8507 3.47358C57.9317 3.53095 58.0115 3.586 58.092 3.64735C58.2514 3.76891 58.3983 3.90421 58.5066 4.08153C58.6134 4.25634 58.6885 4.4819 58.6885 4.79277H59.0726ZM57.7283 2.77624V2.67541H57.3442V2.77624H57.7283ZM57.7283 2.67541C57.7283 2.61514 57.745 2.57331 57.7998 2.52344C57.8661 2.46322 57.9823 2.39793 58.1814 2.31495L58.0337 1.96039C57.8296 2.04546 57.6601 2.13141 57.5415 2.23923C57.4115 2.3574 57.3442 2.50042 57.3442 2.67541H57.7283ZM58.1908 2.31074L60.8459 1.0336L60.6794 0.687462L58.0243 1.9646L58.1908 2.31074ZM60.8449 1.0341C61.1443 0.89227 61.3383 0.893976 61.4421 0.942244C61.5297 0.983016 61.6125 1.08751 61.6125 1.33106H61.9966C61.9966 1.00325 61.8777 0.721243 61.6041 0.59397C61.3466 0.474194 61.0196 0.526313 60.6805 0.686968L60.8449 1.0341ZM61.6125 1.33106V11.7162H61.9966V1.33106H61.6125ZM61.9545 11.8362C62.9889 10.5432 64.7454 9.72368 66.7451 9.72368V9.33958C64.6445 9.33958 62.7712 10.2005 61.6546 11.5962L61.9545 11.8362ZM66.3418 25.4527C67.9642 25.4527 69.3063 24.7695 70.2376 23.5497C71.165 22.3349 71.676 20.601 71.676 18.5052H71.2919C71.2919 20.5433 70.7946 22.1871 69.9323 23.3166C69.0739 24.4409 67.8449 25.0686 66.3418 25.0686V25.4527ZM71.676 18.5052C71.676 16.1581 71.115 14.1424 70.121 12.7075C69.124 11.2685 67.6905 10.4151 65.9721 10.4151V10.7992C67.5473 10.7992 68.8697 11.5758 69.8053 12.9263C70.7437 14.281 71.2919 16.2143 71.2919 18.5052H71.676ZM65.9721 10.4151C63.6458 10.4151 61.6125 12.4524 61.6125 14.8418H61.9966C61.9966 12.6605 63.8619 10.7992 65.9721 10.7992V10.4151ZM61.6125 14.8418V19.6143H61.9966V14.8418H61.6125ZM61.613 19.6006L61.5794 20.0711L61.9625 20.0985L61.9961 19.628L61.613 19.6006ZM61.7709 20.2769H61.8046V19.8928H61.7709V20.2769ZM61.6125 20.0848C61.6125 21.481 62.1876 22.819 63.0595 23.808C63.9302 24.7957 65.1134 25.4527 66.3418 25.4527V25.0686C65.2511 25.0686 64.1657 24.482 63.3476 23.554C62.5306 22.6273 61.9966 21.3774 61.9966 20.0848H61.6125ZM77.8809 10.9432L77.7958 10.7708L77.7876 10.7753L77.8809 10.9432ZM80.4688 9.66607L80.3862 9.49265L80.3838 9.49385L80.4688 9.66607ZM79.9647 6.48282C79.3147 6.48282 78.8018 6.28519 78.4532 5.95907C78.1057 5.63399 77.9049 5.16605 77.9049 4.59112H77.5208C77.5208 5.25972 77.7569 5.83365 78.1908 6.23957C78.6236 6.64445 79.2367 6.86692 79.9647 6.86692V6.48282ZM77.9049 4.59112C77.9049 4.01585 78.106 3.53865 78.4548 3.20487C78.8041 2.87058 79.3167 2.66581 79.9647 2.66581V2.28171C79.2346 2.28171 78.6213 2.51385 78.1892 2.92736C77.7566 3.34138 77.5208 3.92286 77.5208 4.59112H77.9049ZM79.9647 2.66581C80.5765 2.66581 81.0723 2.86901 81.4142 3.20342C81.7559 3.53761 81.9572 4.01569 81.9572 4.59112H82.3413C82.3413 3.92302 82.1057 3.34242 81.6828 2.92882C81.2601 2.51542 80.6636 2.28171 79.9647 2.28171V2.66581ZM81.9572 4.59112C81.9572 5.16622 81.7562 5.63504 81.4158 5.9605C81.0746 6.28666 80.5786 6.48282 79.9647 6.48282V6.86692C80.6615 6.86692 81.2578 6.64297 81.6812 6.23814C82.1054 5.83261 82.3413 5.25956 82.3413 4.59112H81.9572ZM78.0153 25.8079C77.8368 25.8079 77.7203 25.7702 77.6541 25.7245C77.5957 25.684 77.5688 25.6333 77.5688 25.5631H77.1847C77.1847 25.7618 77.2755 25.9295 77.4355 26.0403C77.5878 26.1457 77.7906 26.1921 78.0153 26.1921V25.8079ZM77.5688 25.5631V25.4286H77.1847V25.5631H77.5688ZM77.5688 25.4286C77.5688 25.3409 77.6062 25.268 77.6984 25.1801C77.8011 25.0821 77.9285 25.0029 78.097 24.8765C78.2543 24.7585 78.427 24.612 78.5589 24.4081C78.693 24.2007 78.7788 23.9437 78.7788 23.6138H78.3946C78.3946 23.872 78.3291 24.0561 78.2364 24.1995C78.1414 24.3464 78.0117 24.4604 77.8665 24.5692C77.7325 24.6697 77.5575 24.7837 77.4333 24.9021C77.2986 25.0306 77.1847 25.1971 77.1847 25.4286H77.5688ZM78.7788 23.6138V13.5983H78.3946V23.6138H78.7788ZM78.7788 13.5983C78.7788 12.8707 78.4376 12.4293 78.1156 12.1163C78.0366 12.0394 77.9577 11.9693 77.8876 11.9067C77.816 11.8426 77.7548 11.7873 77.7035 11.7346C77.5956 11.6237 77.5688 11.5602 77.5688 11.5146H77.1847C77.1847 11.721 77.3092 11.8801 77.4282 12.0024C77.4903 12.0663 77.5614 12.1302 77.6316 12.193C77.7033 12.2571 77.7757 12.3215 77.8479 12.3917C78.1309 12.6668 78.3946 13.0152 78.3946 13.5983H78.7788ZM77.5688 11.5146V11.4473H77.1847V11.5146H77.5688ZM77.5688 11.4473C77.5688 11.3993 77.5832 11.3649 77.6404 11.3159C77.71 11.2563 77.8135 11.2003 77.9742 11.1111L77.7876 10.7753C77.6458 10.8541 77.4973 10.9326 77.3904 11.0243C77.2712 11.1265 77.1847 11.2601 77.1847 11.4473H77.5688ZM77.9659 11.1154L80.5538 9.83829L80.3838 9.49385L77.7959 10.771L77.9659 11.1154ZM80.5514 9.83946C80.8775 9.68416 81.064 9.70993 81.1574 9.76459C81.2498 9.81871 81.3186 9.94116 81.3186 10.1366H81.7027C81.7027 9.86149 81.6035 9.58065 81.3514 9.43311C81.1003 9.28612 80.7659 9.31189 80.3862 9.49267L80.5514 9.83946ZM81.3186 10.1366V23.6138H81.7027V10.1366H81.3186ZM81.3186 23.6138C81.3186 23.9483 81.4154 24.208 81.5648 24.4159C81.711 24.6194 81.9019 24.7649 82.0754 24.882C82.2609 25.0072 82.4049 25.0881 82.5199 25.1868C82.6257 25.2776 82.663 25.3489 82.663 25.4286H83.0471C83.0471 25.1891 82.9163 25.0209 82.7701 24.8954C82.633 24.7777 82.4409 24.6654 82.2903 24.5637C82.1277 24.454 81.9825 24.339 81.8767 24.1917C81.774 24.0488 81.7027 23.8674 81.7027 23.6138H81.3186ZM82.663 25.4286V25.5631H83.0471V25.4286H82.663ZM82.663 25.5631C82.663 25.6136 82.6384 25.6674 82.5546 25.7177C82.4668 25.7703 82.3274 25.8079 82.1492 25.8079V26.1921C82.3744 26.1921 82.5879 26.1456 82.7522 26.0471C82.9204 25.9461 83.0471 25.7815 83.0471 25.5631H82.663ZM82.1492 25.8079H78.0153V26.1921H82.1492V25.8079ZM86.255 10.8088L86.1766 10.6335L86.169 10.6369L86.1618 10.6409L86.255 10.8088ZM88.8093 9.66607L88.8878 9.84142L88.8915 9.83963L88.8093 9.66607ZM89.6832 12.8253H89.4911L89.8648 12.8877L89.6832 12.8253ZM94.0523 9.72368C95.0233 9.72368 95.7471 10.0064 96.2258 10.4388C96.7037 10.8704 96.9523 11.4643 96.9523 12.1195H97.3364C97.3364 11.3632 97.0472 10.6631 96.4833 10.1537C95.9201 9.64504 95.0979 9.33958 94.0523 9.33958V9.72368ZM96.9523 12.1195C96.9523 12.5305 96.857 12.8791 96.6725 13.1204C96.4938 13.354 96.2166 13.5071 95.8 13.5071V13.8912C96.3244 13.8912 96.7194 13.6914 96.9776 13.3537C97.23 13.0236 97.3364 12.5824 97.3364 12.1195H96.9523ZM95.8 13.5071C95.4149 13.5071 95.1923 13.3813 95.0307 13.2027C94.8559 13.0095 94.745 12.749 94.6051 12.443C94.4713 12.1503 94.3127 11.8223 94.039 11.5723C93.7568 11.3147 93.3701 11.1545 92.8088 11.1545V11.5386C93.2893 11.5386 93.579 11.6724 93.78 11.8559C93.9893 12.0471 94.1207 12.3072 94.2557 12.6027C94.3847 12.8848 94.5216 13.2125 94.7459 13.4604C94.9835 13.7229 95.3112 13.8912 95.8 13.8912V13.5071ZM92.8088 11.1545C91.7974 11.1545 91.0277 11.7385 90.5205 12.6249C90.0159 13.5069 89.76 14.7022 89.76 15.9845H90.1441C90.1441 14.7462 90.3923 13.6225 90.8539 12.8157C91.313 12.0132 91.9717 11.5386 92.8088 11.5386V11.1545ZM89.76 15.9845V23.6474H90.1441V15.9845H89.76ZM89.76 23.6474C89.76 24.3364 90.185 24.6891 90.5526 24.9297C90.7474 25.0573 90.8995 25.1393 91.0226 25.2384C91.1386 25.3319 91.1715 25.3982 91.1715 25.4623H91.5557C91.5557 25.2238 91.4122 25.0591 91.2635 24.9393C91.1219 24.8253 90.9211 24.7119 90.763 24.6084C90.4248 24.3869 90.1441 24.1346 90.1441 23.6474H89.76ZM91.1715 25.4623V25.5967H91.5557V25.4623H91.1715ZM91.1715 25.5967C91.1715 25.6626 91.1491 25.701 91.0934 25.734C91.0234 25.7755 90.896 25.8079 90.6914 25.8079V26.1921C90.9238 26.1921 91.1324 26.1573 91.2893 26.0644C91.4605 25.9629 91.5557 25.7997 91.5557 25.5967H91.1715ZM90.6914 25.8079H86.5239V26.1921H90.6914V25.8079ZM86.5239 25.8079C86.3193 25.8079 86.1919 25.7755 86.1219 25.734C86.0662 25.701 86.0438 25.6626 86.0438 25.5967H85.6597C85.6597 25.7997 85.7549 25.9629 85.9261 26.0644C86.0829 26.1573 86.2916 26.1921 86.5239 26.1921V25.8079ZM86.0438 25.5967V25.4623H85.6597V25.5967H86.0438ZM86.0438 25.4623C86.0438 25.3881 86.0777 25.3202 86.1756 25.2306C86.2832 25.1323 86.4143 25.0524 86.5881 24.9232C86.7499 24.8029 86.9266 24.6535 87.0616 24.4473C87.1989 24.2377 87.2873 23.9784 87.2873 23.6474H86.9032C86.9032 23.9045 86.8362 24.0905 86.7403 24.2369C86.6422 24.3868 86.508 24.5041 86.3589 24.6149C86.2218 24.7168 86.042 24.8323 85.9164 24.9472C85.7812 25.0708 85.6597 25.2339 85.6597 25.4623H86.0438ZM87.2873 23.6474V13.4303H86.9032V23.6474H87.2873ZM87.2873 13.4303C87.2873 13.0742 87.1927 12.7961 87.0459 12.5716C86.9014 12.3505 86.7119 12.1905 86.5371 12.0616C86.3497 11.9234 86.2069 11.8378 86.0891 11.7323C85.9811 11.6356 85.943 11.5616 85.943 11.4809H85.5589C85.5589 11.7196 85.6887 11.8893 85.8328 12.0184C85.9671 12.1386 86.1604 12.261 86.3091 12.3707C86.4704 12.4897 86.617 12.6174 86.7245 12.7818C86.8298 12.9428 86.9032 13.1477 86.9032 13.4303H87.2873ZM85.943 11.4809V11.4137H85.5589V11.4809H85.943ZM85.943 11.4137C85.943 11.2946 86.0508 11.1419 86.3483 10.9767L86.1618 10.6409C85.8543 10.8117 85.5589 11.0623 85.5589 11.4137H85.943ZM86.3335 10.9841L88.8877 9.84137L88.7309 9.49076L86.1766 10.6335L86.3335 10.9841ZM88.8915 9.83963C89.1973 9.69482 89.3296 9.72563 89.3792 9.75865C89.4326 9.79428 89.4911 9.89769 89.4911 10.1366H89.8752C89.8752 9.87136 89.8161 9.58827 89.5922 9.43905C89.3645 9.28722 89.06 9.33484 88.7271 9.4925L88.8915 9.83963ZM89.4911 10.1366V12.8253H89.8752V10.1366H89.4911ZM89.8648 12.8877C90.2244 11.8414 90.7758 11.0528 91.4788 10.5255C92.1811 9.99877 93.0469 9.72368 94.0523 9.72368V9.33958C92.974 9.33958 92.0249 9.63585 91.2484 10.2182C90.4727 10.8 89.8813 11.6582 89.5015 12.7629L89.8648 12.8877ZM99.4371 26.144C98.8681 26.144 98.3784 25.9782 98.0339 25.6786C97.6928 25.382 97.4782 24.9409 97.4782 24.3532H97.0941C97.0941 25.0426 97.35 25.5929 97.7819 25.9685C98.2104 26.3411 98.7962 26.5281 99.4371 26.5281V26.144ZM97.4782 24.3532C97.4782 23.7288 97.6949 23.271 98.0357 22.9673C98.3795 22.6609 98.8681 22.4951 99.4371 22.4951V22.111C98.7961 22.111 98.2093 22.2981 97.7801 22.6806C97.3478 23.0659 97.0941 23.6331 97.0941 24.3532H97.4782ZM99.4371 22.4951C99.988 22.4951 100.468 22.6602 100.808 22.9666C101.146 23.2705 101.362 23.7288 101.362 24.3532H101.747C101.747 23.6332 101.493 23.0664 101.065 22.6813C100.641 22.2988 100.062 22.111 99.4371 22.111V22.4951ZM101.362 24.3532C101.362 24.941 101.148 25.3825 100.81 25.6793C100.469 25.9788 99.9881 26.144 99.4371 26.144V26.5281C100.062 26.5281 100.64 26.3404 101.064 25.9678C101.491 25.5924 101.747 25.0425 101.747 24.3532H101.362Z" fill="white" mask="url(#path-1-outside-1_3256_3083)"/>
</g>
<defs>
<clipPath id="clip0_3256_3083">
<rect width="102" height="27" fill="white"/>
</clipPath>
</defs>
</svg>
