<svg width="80" height="80" viewBox="0 0 80 80" fill="none" xmlns="http://www.w3.org/2000/svg">
<g clip-path="url(#clip0_359_44)">
<path d="M41.2223 61.0054H17.0318C15.9625 61.0054 14.937 60.5807 14.1809 59.8246C13.4248 59.0685 13 58.043 13 56.9737V22.0318C13 20.9625 13.4248 19.937 14.1809 19.1809C14.937 18.4248 15.9625 18 17.0318 18H62.725C63.7943 18 64.8198 18.4248 65.5759 19.1809C66.332 19.937 66.7568 20.9625 66.7568 22.0318V40.7673" stroke="white" stroke-width="2.5" stroke-linecap="round" stroke-linejoin="round"/>
<path d="M13 22.0318C13 20.9625 13.4248 19.937 14.1809 19.1809C14.937 18.4248 15.9625 18 17.0318 18H62.725C63.7943 18 64.8198 18.4248 65.5759 19.1809C66.332 19.937 66.7568 20.9625 66.7568 22.0318V34.127H13V22.0318Z" stroke="white" stroke-width="2.5"/>
<path d="M50.6289 54.2862H66.7559M58.6924 46.2227V62.3497" stroke="white" stroke-width="2.5" stroke-linecap="round" stroke-linejoin="round"/>
<path d="M21.0622 24.6243C20.2681 24.6243 19.6243 25.2681 19.6243 26.0622C19.6243 26.8563 20.2681 27.5 21.0622 27.5C21.8563 27.5 22.5 26.8563 22.5 26.0622C22.5 25.2681 21.8563 24.6243 21.0622 24.6243Z" fill="black" stroke="white" stroke-width="2.5"/>
<path d="M29.1266 24.6243C28.3325 24.6243 27.6888 25.2681 27.6888 26.0622C27.6888 26.8563 28.3325 27.5 29.1266 27.5C29.9207 27.5 30.5645 26.8563 30.5645 26.0622C30.5645 25.2681 29.9207 24.6243 29.1266 24.6243Z" fill="black" stroke="white" stroke-width="2.5"/>
</g>
<defs>
<clipPath id="clip0_359_44">
<rect width="80" height="80" fill="white"/>
</clipPath>
</defs>
</svg>
